<svg width="175" height="69" viewBox="0 0 175 69" fill="none" xmlns="http://www.w3.org/2000/svg">
<path d="M160.295 57.9564C160.947 54.8148 160.783 51.5581 159.818 48.4981C158.854 45.4382 157.122 42.6775 154.787 40.4805C152.991 38.7033 150.841 37.3256 148.477 36.4377C146.113 35.5498 143.589 35.1717 141.069 35.328C138.352 35.4472 135.693 36.1548 133.275 37.4023C130.858 38.6497 128.739 40.4073 127.064 42.5539C125.39 44.7005 124.2 47.1851 123.576 49.8367C122.952 52.4883 122.909 55.2438 123.451 57.9135H49.57C50.2304 54.7614 50.0619 51.4916 49.0812 48.4243C48.1006 45.357 46.3417 42.5975 43.9762 40.4161C42.1773 38.6532 40.0282 37.2891 37.6686 36.4125C35.309 35.5359 32.7914 35.1664 30.2799 35.328C27.5498 35.4567 24.8804 36.1796 22.4575 37.4464C20.0345 38.7132 17.9164 40.4934 16.2498 42.6633C14.5833 44.8332 13.4083 47.3407 12.8072 50.0114C12.2061 52.6821 12.1932 55.4519 12.769 58.1282H10.7758C9.16234 58.214 7.54539 58.214 5.93188 58.1282C4.32873 57.9831 2.83794 57.2409 1.75457 56.0484C0.671188 54.8559 0.0740734 53.2998 0.0806047 51.6874C-0.105356 46.1523 0.0304936 40.611 0.487714 35.0918C0.700563 32.872 1.25741 30.6991 2.13813 28.651C2.69311 27.2265 3.55793 25.9439 4.67026 24.8965C5.78259 23.8492 7.11441 23.0635 8.56814 22.5967C11.4617 21.6091 14.4191 20.8577 17.3341 20.0204C19.6703 19.3549 22.0066 18.7323 24.3214 18.0238C26.8668 17.2073 29.263 15.9819 31.416 14.3955C33.8594 12.6351 36.3884 11.0034 38.8104 9.22147C42.8683 6.33806 47.3826 4.16062 52.1633 2.78073C57.0427 1.3095 62.0789 0.423052 67.1667 0.140004C81.0448 -0.571514 94.9284 1.4339 108.04 6.04402C113.429 7.8483 118.57 10.3222 123.344 13.4079C126.216 15.3187 129.002 17.3583 131.81 19.3549C132.303 19.7199 132.732 20.1493 133.182 20.5572C134.533 21.7884 136.249 22.5425 138.069 22.7041C141.219 23.0905 144.37 23.5843 147.52 24.164C151.747 24.819 155.929 25.7441 160.038 26.9335C163.171 27.8322 166.159 29.177 168.911 30.9267C170.672 32.0979 172.039 33.774 172.833 35.7359C173.856 38.4019 174.449 41.2135 174.591 44.0658C174.843 46.9262 174.786 49.8055 174.419 52.6535C174.131 54.1208 173.708 55.5582 173.155 56.9473C173.036 57.2994 172.802 57.6011 172.491 57.8037C172.18 58.0062 171.81 58.0979 171.44 58.0638H161.088L160.295 57.9564ZM106.476 22.6397L122.036 23.2408C122.551 23.2408 123.044 23.2408 123.258 22.6826C123.473 22.1244 123.151 21.7809 122.765 21.4374C120.467 19.3436 117.952 17.5012 115.264 15.9413C107.153 11.3069 98.2084 8.32284 88.9434 7.16045C87.2716 6.92429 85.5781 6.79543 83.8848 6.64515C83.1132 6.64515 82.7703 6.9887 82.8346 7.76159C82.8241 7.96183 82.8241 8.16248 82.8346 8.36272C83.3919 12.3775 83.9278 16.3707 84.485 20.3854C84.6565 21.7379 84.7423 21.8453 86.1355 21.8883L106.476 22.6397ZM57.6933 21.1583V21.33L76.3403 21.5232C77.2405 21.5232 77.4333 21.2871 77.3261 20.3854C76.8331 16.0916 76.3188 11.9051 75.8259 7.67569C75.6973 6.62371 75.6119 6.53783 74.5402 6.53783C69.8096 6.53193 65.0933 7.05759 60.4798 8.10504C53.8777 9.41546 47.6702 12.2451 42.3472 16.3707C40.9326 17.4871 39.6249 18.7108 38.3174 19.9346C38.2161 20.0374 38.1414 20.1636 38.1003 20.3022C38.0592 20.4407 38.0531 20.5873 38.082 20.7289C38.082 20.9221 38.5317 21.0295 38.7889 21.1368C38.9094 21.159 39.0332 21.159 39.1536 21.1368L57.6933 21.1583Z" fill="black"/>
<path d="M16.6289 54.1166C16.6247 51.2377 17.4726 48.4222 19.0658 46.0261C20.6591 43.63 22.9258 41.761 25.5796 40.6553C28.2333 39.5497 31.1548 39.2571 33.9745 39.8146C36.7942 40.3721 39.3859 41.7546 41.4212 43.7873C43.4565 45.82 44.8442 48.4116 45.4091 51.2343C45.974 54.0571 45.6903 56.9843 44.5944 59.6457C43.4984 62.3071 41.6391 64.5832 39.2517 66.1862C36.8643 67.7891 34.0564 68.647 31.1823 68.6512C27.3299 68.6512 23.6342 67.1213 20.9062 64.3968C18.1781 61.6722 16.6403 57.9754 16.6289 54.1166Z" fill="black"/>
<path d="M156.396 54.0737C156.4 56.9517 155.552 59.7663 153.96 62.1619C152.367 64.5576 150.102 66.4266 147.45 67.5329C144.797 68.6391 141.877 68.933 139.057 68.3772C136.238 67.8215 133.647 66.4411 131.611 64.4105C129.575 62.38 128.185 59.7904 127.618 56.9691C127.051 54.1477 127.331 51.2212 128.424 48.5594C129.517 45.8977 131.373 43.6201 133.757 42.0146C136.142 40.409 138.948 39.5476 141.821 39.5391C145.677 39.5334 149.378 41.0608 152.111 43.7859C154.843 46.5111 156.384 50.2112 156.396 54.0737Z" fill="black"/>
</svg>
