<svg width="335" height="221" viewBox="0 0 335 221" fill="none" xmlns="http://www.w3.org/2000/svg">
<path d="M3.528 20C2.964 20 2.532 19.844 2.232 19.532C1.944 19.22 1.8 18.788 1.8 18.236V13.88L0.9 12.458C1.5 11.69 2.196 11.108 2.988 10.712C3.78 10.304 4.722 10.1 5.814 10.1C7.206 10.1 8.268 10.418 9 11.054C9.732 11.69 10.098 12.584 10.098 13.736V20H8.712V13.862C8.712 12.962 8.466 12.296 7.974 11.864C7.494 11.432 6.774 11.216 5.814 11.216C5.07 11.216 4.428 11.324 3.888 11.54C3.36 11.756 2.862 12.116 2.394 12.62L3.186 13.862V17.894C3.186 18.242 3.252 18.488 3.384 18.632C3.528 18.764 3.768 18.83 4.104 18.83H5.148V20H3.528ZM16.3235 20.27C15.1475 20.27 14.2355 19.958 13.5875 19.334C12.9395 18.71 12.6155 17.876 12.6155 16.832V10.37H14.0015V16.778C14.0015 17.558 14.2235 18.152 14.6675 18.56C15.1115 18.956 15.7715 19.154 16.6475 19.154C18.0155 19.154 19.0955 18.542 19.8875 17.318V10.37H21.2735V20H19.9235V18.578C19.4795 19.154 18.9635 19.58 18.3755 19.856C17.7875 20.132 17.1035 20.27 16.3235 20.27ZM27.5032 20.27C26.3272 20.27 25.4152 19.958 24.7672 19.334C24.1192 18.71 23.7952 17.876 23.7952 16.832V10.37H25.1812V16.778C25.1812 17.558 25.4032 18.152 25.8472 18.56C26.2912 18.956 26.9512 19.154 27.8272 19.154C29.1952 19.154 30.2752 18.542 31.0672 17.318V10.37H32.4532V20H31.1032V18.578C30.6592 19.154 30.1432 19.58 29.5552 19.856C28.9672 20.132 28.2832 20.27 27.5032 20.27ZM37.2968 19.946C36.7568 19.946 36.3428 19.79 36.0548 19.478C35.7668 19.166 35.6228 18.734 35.6228 18.182V11.054C35.6228 10.142 35.7428 9.434 35.9828 8.93C36.2348 8.426 36.6728 7.994 37.2968 7.634H33.8048V6.464H39.1148V7.616C38.3828 7.94 37.8488 8.36 37.5128 8.876C37.1768 9.38 37.0088 10.076 37.0088 10.964V17.876C37.0088 18.224 37.0808 18.464 37.2248 18.596C37.3688 18.716 37.6088 18.776 37.9448 18.776H38.6108V19.946H37.2968ZM45.6905 20.27C44.2265 20.27 43.0265 19.706 42.0905 18.578V20H40.7405V10.37H42.1265V17.318C42.9185 18.542 43.9985 19.154 45.3665 19.154C46.2425 19.154 46.9025 18.956 47.3465 18.56C47.7905 18.152 48.0125 17.558 48.0125 16.778V10.37H49.3985V16.832C49.3985 17.876 49.0745 18.71 48.4265 19.334C47.7785 19.958 46.8665 20.27 45.6905 20.27ZM48.0322 5.924H49.3822V8.822H48.0322V5.924ZM56.3842 20.27C55.4842 20.27 54.6922 20.108 54.0082 19.784C53.3362 19.46 52.8202 19.004 52.4602 18.416C52.1002 17.816 51.9202 17.132 51.9202 16.364V10.37H53.3062V16.382C53.3062 17.234 53.5702 17.912 54.0982 18.416C54.6382 18.908 55.4002 19.154 56.3842 19.154C57.3682 19.154 58.1242 18.908 58.6522 18.416C59.1922 17.912 59.4622 17.234 59.4622 16.382V7.148H60.8482V16.364C60.8482 17.132 60.6682 17.816 60.3082 18.416C59.9482 19.004 59.4262 19.46 58.7422 19.784C58.0702 20.108 57.2842 20.27 56.3842 20.27ZM66.4235 20.27C65.3675 20.27 64.5335 20.012 63.9215 19.496C63.3095 18.968 63.0035 18.212 63.0035 17.228C63.0035 16.268 63.3455 15.512 64.0295 14.96C64.7135 14.396 65.6315 14.114 66.7835 14.114C68.0315 14.114 69.1655 14.354 70.1855 14.834V13.79C70.1855 12.902 69.9455 12.254 69.4655 11.846C68.9855 11.426 68.2055 11.216 67.1255 11.216C66.5615 11.216 66.0095 11.27 65.4695 11.378C64.9295 11.474 64.4615 11.612 64.0655 11.792V10.676C64.4255 10.508 64.9115 10.37 65.5235 10.262C66.1355 10.154 66.7295 10.1 67.3055 10.1C68.7455 10.1 69.8135 10.43 70.5095 11.09C71.2175 11.738 71.5715 12.632 71.5715 13.772V20H70.1855V15.95C69.2375 15.47 68.1455 15.23 66.9095 15.23C66.0455 15.23 65.4095 15.398 65.0015 15.734C64.5935 16.058 64.3895 16.556 64.3895 17.228C64.3895 17.888 64.5755 18.374 64.9475 18.686C65.3195 18.998 65.9135 19.154 66.7295 19.154C67.1495 19.154 67.5455 19.1 67.9175 18.992V20.09C67.4975 20.21 66.9995 20.27 66.4235 20.27ZM77.4702 20.27C76.7622 20.27 76.0782 20.18 75.4182 20C74.7582 19.82 74.1942 19.562 73.7262 19.226V14.69H77.3982V15.806H75.1122V18.578C75.7002 18.962 76.4862 19.154 77.4702 19.154C78.6942 19.154 79.6482 18.794 80.3322 18.074C81.0162 17.354 81.3582 16.334 81.3582 15.014C81.3582 13.682 81.0342 12.716 80.3862 12.116C79.7502 11.516 78.6942 11.216 77.2182 11.216C76.5702 11.216 75.9402 11.288 75.3282 11.432C74.7282 11.564 74.2182 11.78 73.7982 12.08V10.928C74.7102 10.376 75.9042 10.1 77.3802 10.1C79.1322 10.1 80.4642 10.52 81.3762 11.36C82.2882 12.188 82.7442 13.406 82.7442 15.014C82.7442 16.07 82.5342 16.994 82.1142 17.786C81.6942 18.578 81.0882 19.19 80.2962 19.622C79.5042 20.054 78.5622 20.27 77.4702 20.27ZM89.0727 20.27C88.1727 20.27 87.3807 20.084 86.6967 19.712C86.0127 19.328 85.4787 18.77 85.0947 18.038C84.7227 17.306 84.5367 16.412 84.5367 15.356C84.5367 13.7 84.9867 12.41 85.8867 11.486C86.7987 10.562 88.0587 10.1 89.6667 10.1C91.3107 10.1 92.4987 10.49 93.2307 11.27C93.9747 12.038 94.3467 13.01 94.3467 14.186V20H92.9607V14.168C92.9607 12.2 91.8627 11.216 89.6667 11.216C88.4907 11.216 87.5727 11.57 86.9127 12.278C86.2527 12.974 85.9227 14 85.9227 15.356C85.9227 16.592 86.2227 17.534 86.8227 18.182C87.4227 18.83 88.2387 19.154 89.2707 19.154C89.7147 19.154 90.1407 19.1 90.5487 18.992V20.09C90.1527 20.21 89.6607 20.27 89.0727 20.27ZM96.5074 18.83H97.3174C97.6654 18.83 97.8994 18.77 98.0194 18.65C98.1394 18.518 98.1994 18.266 98.1994 17.894V13.88L96.9394 12.458C97.5274 11.69 98.2174 11.108 99.0094 10.712C99.8134 10.304 100.761 10.1 101.853 10.1C103.245 10.1 104.307 10.418 105.039 11.054C105.771 11.69 106.137 12.584 106.137 13.736V20H104.751V13.862C104.751 12.098 103.785 11.216 101.853 11.216C101.109 11.216 100.467 11.324 99.9274 11.54C99.3994 11.756 98.9134 12.104 98.4694 12.584L99.5854 13.844V18.236C99.5854 18.788 99.4354 19.22 99.1354 19.532C98.8474 19.844 98.4214 20 97.8574 20H96.5074V18.83ZM103.01 8.822C102.554 8.822 102.218 8.708 102.002 8.48C101.786 8.252 101.678 7.916 101.678 7.472V6.626H102.956V7.238C102.956 7.454 102.998 7.604 103.082 7.688C103.166 7.76 103.328 7.796 103.568 7.796H107.78V8.822H103.01ZM112.73 20.27C111.374 20.27 110.294 20.018 109.49 19.514C108.698 18.998 108.302 18.242 108.302 17.246C108.302 16.682 108.452 16.196 108.752 15.788C109.052 15.368 109.466 15.08 109.994 14.924C109.49 14.732 109.088 14.444 108.788 14.06C108.5 13.664 108.356 13.202 108.356 12.674C108.356 11.906 108.608 11.288 109.112 10.82C109.616 10.34 110.348 10.1 111.308 10.1C111.572 10.1 111.842 10.118 112.118 10.154C112.406 10.19 112.634 10.232 112.802 10.28V11.378C112.646 11.33 112.442 11.294 112.19 11.27C111.95 11.234 111.728 11.216 111.524 11.216C110.948 11.216 110.504 11.354 110.192 11.63C109.892 11.894 109.742 12.266 109.742 12.746C109.742 13.238 109.91 13.628 110.246 13.916C110.594 14.192 111.086 14.33 111.722 14.33H112.802V15.482H111.74C111.092 15.482 110.588 15.632 110.228 15.932C109.868 16.22 109.688 16.658 109.688 17.246C109.688 17.858 109.958 18.332 110.498 18.668C111.05 18.992 111.794 19.154 112.73 19.154C113.822 19.154 114.626 18.914 115.142 18.434C115.67 17.942 115.934 17.258 115.934 16.382V10.37H117.32V16.346C117.32 17.018 117.176 17.648 116.888 18.236C116.6 18.824 116.114 19.31 115.43 19.694C114.746 20.078 113.846 20.27 112.73 20.27Z" fill="#565656"/>
<path d="M4.896 41.27C4.092 41.27 3.3 41.186 2.52 41.018C1.74 40.862 1.092 40.64 0.576 40.352V35.294H5.13V37.292H3.258V38.84C3.63 39.044 4.176 39.146 4.896 39.146C6.804 39.146 7.758 38.15 7.758 36.158C7.758 35.138 7.482 34.394 6.93 33.926C6.378 33.458 5.448 33.224 4.14 33.224C3.54 33.224 2.922 33.29 2.286 33.422C1.662 33.542 1.134 33.716 0.702 33.944V31.82C1.194 31.592 1.788 31.418 2.484 31.298C3.18 31.166 3.906 31.1 4.662 31.1C6.594 31.1 8.058 31.544 9.054 32.432C10.062 33.308 10.566 34.55 10.566 36.158C10.566 37.742 10.074 38.99 9.09 39.902C8.106 40.814 6.708 41.27 4.896 41.27ZM14.9785 35.006C14.9785 34.382 14.8465 33.932 14.5825 33.656C14.3185 33.368 13.8565 33.224 13.1965 33.224C12.5605 33.224 11.9185 33.386 11.2705 33.71V31.64C11.5585 31.496 11.9425 31.37 12.4225 31.262C12.9145 31.154 13.3885 31.1 13.8445 31.1C15.1045 31.1 16.0645 31.436 16.7245 32.108C17.3845 32.78 17.7145 33.752 17.7145 35.024V41H14.9785V35.006ZM20.0904 35.258L19.1904 33.728C20.5944 31.976 22.4004 31.1 24.6084 31.1C26.1564 31.1 27.3444 31.442 28.1724 32.126C29.0124 32.81 29.4324 33.764 29.4324 34.988V41H26.6964V35.204C26.6964 33.884 26.0004 33.224 24.6084 33.224C24.0924 33.224 23.6304 33.296 23.2224 33.44C22.8264 33.584 22.4544 33.818 22.1064 34.142L22.8084 35.294V41H20.0904V35.258ZM34.209 35.006C34.209 34.382 34.077 33.932 33.813 33.656C33.549 33.368 33.087 33.224 32.427 33.224C31.791 33.224 31.149 33.386 30.501 33.71V31.64C30.789 31.496 31.173 31.37 31.653 31.262C32.145 31.154 32.619 31.1 33.075 31.1C34.335 31.1 35.295 31.436 35.955 32.108C36.615 32.78 36.945 33.752 36.945 35.024V41H34.209V35.006ZM38.8169 35.222C38.8169 33.89 39.2609 32.87 40.1489 32.162C41.0489 31.454 42.2549 31.1 43.7669 31.1C44.5349 31.1 45.2249 31.208 45.8369 31.424L46.4849 30.65H49.4549L47.7629 32.594C48.3869 33.218 48.6989 34.094 48.6989 35.222V41H45.9629V35.204C45.9629 34.544 45.7709 34.052 45.3869 33.728C45.0149 33.392 44.4749 33.224 43.7669 33.224C43.0469 33.224 42.4949 33.392 42.1109 33.728C41.7389 34.052 41.5529 34.544 41.5529 35.204V36.572C41.6969 36.356 41.9069 36.188 42.1829 36.068C42.4709 35.936 42.7889 35.87 43.1369 35.87H44.5409V37.958H42.9929C42.5729 37.958 42.2249 38.09 41.9489 38.354C41.6849 38.618 41.5529 38.96 41.5529 39.38V41H38.8169V35.222ZM53.3976 41C52.7376 41 52.2276 40.814 51.8676 40.442C51.5196 40.058 51.3456 39.53 51.3456 38.858V32.648C51.3456 31.232 51.7596 30.206 52.5876 29.57H49.6176V27.464H56.0436V29.39C55.3476 29.666 54.8436 30.056 54.5316 30.56C54.2196 31.064 54.0636 31.742 54.0636 32.594V38.12C54.0636 38.408 54.1236 38.612 54.2436 38.732C54.3636 38.852 54.5676 38.912 54.8556 38.912H55.4856V41H53.3976ZM62.8422 41.27C62.2422 41.27 61.6602 41.156 61.0962 40.928C60.5322 40.7 60.0402 40.364 59.6202 39.92V41H57.0102V31.37H59.7462V37.85C60.0102 38.294 60.3282 38.624 60.7002 38.84C61.0722 39.044 61.5102 39.146 62.0142 39.146C63.2502 39.146 63.8682 38.564 63.8682 37.4V31.37H66.5862V37.562C66.5862 38.258 66.4422 38.888 66.1542 39.452C65.8662 40.016 65.4402 40.46 64.8762 40.784C64.3122 41.108 63.6342 41.27 62.8422 41.27ZM63.8632 26.978H66.5992V30.182H63.8632V26.978ZM73.4212 41.27C72.4252 41.27 71.5552 41.096 70.8112 40.748C70.0672 40.388 69.4912 39.896 69.0832 39.272C68.6752 38.648 68.4712 37.94 68.4712 37.148V31.37H71.2072V36.968C71.2072 37.664 71.3872 38.204 71.7472 38.588C72.1192 38.96 72.6772 39.146 73.4212 39.146C74.1652 39.146 74.7172 38.96 75.0772 38.588C75.4372 38.204 75.6172 37.664 75.6172 36.968V28.148H78.3532V37.148C78.3532 37.94 78.1492 38.648 77.7412 39.272C77.3332 39.896 76.7572 40.388 76.0132 40.748C75.2692 41.096 74.4052 41.27 73.4212 41.27ZM83.4889 41.27C82.3849 41.27 81.5029 40.994 80.8429 40.442C80.1949 39.89 79.8709 39.11 79.8709 38.102C79.8709 37.094 80.2249 36.302 80.9329 35.726C81.6529 35.15 82.6369 34.862 83.8849 34.862C85.0489 34.862 86.0449 35.054 86.8729 35.438V35.06C86.8729 34.412 86.6569 33.932 86.2249 33.62C85.8049 33.308 85.1209 33.152 84.1729 33.152C83.5849 33.152 83.0089 33.212 82.4449 33.332C81.8809 33.452 81.3769 33.62 80.9329 33.836V31.784C81.3289 31.592 81.8749 31.43 82.5709 31.298C83.2669 31.166 83.9689 31.1 84.6769 31.1C86.2849 31.1 87.5029 31.46 88.3309 32.18C89.1709 32.888 89.5909 33.842 89.5909 35.042V41H86.8729V37.418C86.1769 37.058 85.3609 36.878 84.4249 36.878C83.8129 36.878 83.3629 36.98 83.0749 37.184C82.7989 37.388 82.6609 37.706 82.6609 38.138C82.6609 38.534 82.7869 38.834 83.0389 39.038C83.3029 39.23 83.7169 39.326 84.2809 39.326C84.6769 39.326 85.0129 39.266 85.2889 39.146V41.036C84.8209 41.192 84.2209 41.27 83.4889 41.27ZM95.4233 41.27C94.6193 41.27 93.8273 41.186 93.0473 41.018C92.2673 40.862 91.6193 40.64 91.1033 40.352V35.294H95.6573V37.292H93.7853V38.84C94.1573 39.044 94.7033 39.146 95.4233 39.146C97.3313 39.146 98.2853 38.15 98.2853 36.158C98.2853 35.138 98.0093 34.394 97.4573 33.926C96.9053 33.458 95.9753 33.224 94.6673 33.224C94.0673 33.224 93.4493 33.29 92.8133 33.422C92.1893 33.542 91.6613 33.716 91.2293 33.944V31.82C91.7213 31.592 92.3153 31.418 93.0113 31.298C93.7073 31.166 94.4333 31.1 95.1893 31.1C97.1213 31.1 98.5853 31.544 99.5813 32.432C100.589 33.308 101.093 34.55 101.093 36.158C101.093 37.742 100.601 38.99 99.6173 39.902C98.6333 40.814 97.2353 41.27 95.4233 41.27ZM107.072 41.27C105.584 41.27 104.408 40.856 103.544 40.028C102.68 39.2 102.248 37.988 102.248 36.392C102.248 34.724 102.746 33.428 103.742 32.504C104.738 31.568 106.112 31.1 107.864 31.1C109.676 31.1 111.008 31.52 111.86 32.36C112.724 33.2 113.156 34.304 113.156 35.672V41H110.438V35.654C110.438 34.862 110.234 34.262 109.826 33.854C109.43 33.434 108.776 33.224 107.864 33.224C107 33.224 106.316 33.494 105.812 34.034C105.308 34.574 105.056 35.36 105.056 36.392C105.056 37.34 105.26 38.036 105.668 38.48C106.088 38.924 106.724 39.146 107.576 39.146C108.032 39.146 108.44 39.08 108.8 38.948V41.036C108.332 41.192 107.756 41.27 107.072 41.27ZM117.915 41C117.255 41 116.745 40.814 116.385 40.442C116.037 40.058 115.863 39.53 115.863 38.858V32.396C115.863 31.58 115.707 30.944 115.395 30.488C115.083 30.02 114.579 29.654 113.883 29.39V27.464H120.309V29.57H117.411C118.203 30.182 118.599 31.142 118.599 32.45V38.12C118.599 38.408 118.659 38.612 118.779 38.732C118.899 38.852 119.097 38.912 119.373 38.912H120.003V41H117.915ZM126.226 41.27C125.23 41.27 124.36 41.096 123.616 40.748C122.872 40.388 122.296 39.896 121.888 39.272C121.48 38.648 121.276 37.94 121.276 37.148V31.37H124.012V36.968C124.012 37.664 124.192 38.204 124.552 38.588C124.924 38.96 125.482 39.146 126.226 39.146C126.97 39.146 127.522 38.96 127.882 38.588C128.242 38.204 128.422 37.664 128.422 36.968V28.148H131.158V37.148C131.158 37.94 130.954 38.648 130.546 39.272C130.138 39.896 129.562 40.388 128.818 40.748C128.074 41.096 127.21 41.27 126.226 41.27ZM136.636 41.27C135.928 41.27 135.208 41.198 134.476 41.054C133.756 40.922 133.186 40.718 132.766 40.442V38.354C133.294 38.666 133.882 38.906 134.53 39.074C135.19 39.242 135.784 39.326 136.312 39.326C136.948 39.326 137.41 39.266 137.698 39.146C137.998 39.014 138.148 38.786 138.148 38.462C138.148 38.174 138.004 37.952 137.716 37.796C137.44 37.64 136.918 37.442 136.15 37.202L135.7 37.058C134.668 36.734 133.906 36.344 133.414 35.888C132.922 35.432 132.676 34.808 132.676 34.016C132.676 33.092 133.048 32.378 133.792 31.874C134.536 31.358 135.538 31.1 136.798 31.1C137.482 31.1 138.142 31.172 138.778 31.316C139.414 31.46 139.924 31.646 140.308 31.874V34.016C139.924 33.752 139.444 33.542 138.868 33.386C138.304 33.218 137.746 33.134 137.194 33.134C136.03 33.134 135.448 33.428 135.448 34.016C135.448 34.304 135.586 34.526 135.862 34.682C136.138 34.838 136.63 35.024 137.338 35.24L137.986 35.438C138.742 35.678 139.33 35.942 139.75 36.23C140.182 36.518 140.482 36.842 140.65 37.202C140.818 37.562 140.902 38 140.902 38.516C140.902 39.344 140.542 40.01 139.822 40.514C139.114 41.018 138.052 41.27 136.636 41.27ZM137.814 26.978H140.55V30.182H137.814V26.978ZM142.062 32.576H144.78L146.832 38.966C147.72 38.966 148.404 38.702 148.884 38.174C149.364 37.634 149.604 36.872 149.604 35.888C149.604 35 149.436 34.334 149.1 33.89C148.764 33.446 148.248 33.224 147.552 33.224C147.168 33.224 146.784 33.284 146.4 33.404V31.352C146.904 31.184 147.474 31.1 148.11 31.1C149.538 31.1 150.606 31.52 151.314 32.36C152.034 33.188 152.394 34.364 152.394 35.888C152.394 36.956 152.16 37.874 151.692 38.642C151.224 39.41 150.588 39.998 149.784 40.406C148.992 40.802 148.122 41 147.174 41H144.762L142.062 32.576Z" fill="#565656"/>
<path d="M169.291 94.8917H151.535V92.0262L169.035 68.2322H173.282V91.5145H178.809V94.8917H173.282V104H169.291V94.8917ZM169.598 91.5145V73.1445L156.243 91.5145H169.598ZM204.018 88.956H207.907L210.824 100.879C213.28 100.879 215.429 100.418 217.271 99.497C219.113 98.576 220.546 97.2626 221.569 95.5569C222.593 93.8513 223.104 91.8557 223.104 89.5701C223.104 87.148 222.763 85.1694 222.081 83.6343C221.433 82.0992 220.29 80.9564 218.653 80.2059C217.049 79.4213 214.832 79.029 212 79.029C210.261 79.029 208.521 79.1996 206.781 79.5407C205.041 79.8478 203.557 80.2742 202.329 80.82V77.6474C203.557 77.1016 205.075 76.6752 206.883 76.3682C208.726 76.0271 210.568 75.8565 212.41 75.8565C217.356 75.8565 221.023 76.9822 223.411 79.2337C225.833 81.4852 227.044 84.9306 227.044 89.5701C227.044 92.2991 226.362 94.7723 224.998 96.9897C223.633 99.173 221.774 100.896 219.42 102.158C217.1 103.386 214.542 104 211.745 104H207.702L204.018 88.956ZM222.388 112.034C222.388 111.386 222.269 110.959 222.03 110.754C221.791 110.584 221.314 110.499 220.597 110.499H219.011V107.173H222.644C223.975 107.173 224.879 107.463 225.356 108.042C225.8 108.622 226.021 109.646 226.021 111.113V117.151H222.388V112.034ZM245.057 104.768C242.498 104.768 240.247 104.239 238.302 103.181C236.358 102.09 234.84 100.503 233.748 98.4225C232.691 96.3416 232.162 93.8001 232.162 90.7981C232.162 86.0905 233.441 82.4233 236 79.7966C238.592 77.1699 242.174 75.8565 246.745 75.8565C251.419 75.8565 254.796 76.9652 256.877 79.1826C258.992 81.3658 260.049 84.129 260.049 87.4721V104H256.109V87.4209C256.109 81.8263 252.988 79.029 246.745 79.029C243.402 79.029 240.792 80.0354 238.916 82.0481C237.04 84.0266 236.102 86.9433 236.102 90.7981C236.102 94.3118 236.955 96.9897 238.66 98.8318C240.366 100.674 242.686 101.595 245.62 101.595C246.882 101.595 248.093 101.441 249.253 101.134V104.256C248.127 104.597 246.728 104.768 245.057 104.768Z" fill="#565656"/>
<path d="M153.582 134.705C153.582 131.259 154.691 128.598 156.908 126.722C159.159 124.812 162.23 123.857 166.119 123.857C170.042 123.857 173.112 124.812 175.329 126.722C177.547 128.598 178.655 131.259 178.655 134.705V152H174.715V134.551C174.715 132.027 173.948 130.15 172.412 128.922C170.911 127.66 168.814 127.029 166.119 127.029C163.424 127.029 161.309 127.66 159.773 128.922C158.272 130.15 157.522 132.027 157.522 134.551V140.538C158.034 139.651 158.801 138.935 159.825 138.389C160.882 137.809 162.11 137.519 163.509 137.519H167.551V140.691H163.151C162.127 140.691 161.172 140.964 160.285 141.51C159.432 142.056 158.75 142.755 158.238 143.608C157.761 144.427 157.522 145.28 157.522 146.167V152H153.582V134.705ZM194.563 152.768C190.435 152.768 187.178 151.966 184.79 150.363V147.037C187.212 148.742 190.248 149.595 193.898 149.595C197.48 149.595 200.277 148.657 202.29 146.781C204.302 144.87 205.309 142.056 205.309 138.338C205.309 134.619 204.302 131.805 202.29 129.895C200.277 127.984 197.48 127.029 193.898 127.029C190.282 127.029 187.263 127.899 184.841 129.639V126.261C187.297 124.658 190.538 123.857 194.563 123.857C199.1 123.857 202.682 125.136 205.309 127.694C207.935 130.219 209.249 133.766 209.249 138.338C209.249 142.909 207.935 146.457 205.309 148.981C202.682 151.505 199.1 152.768 194.563 152.768ZM224.453 152.768C222.679 152.768 220.837 152.529 218.926 152.051C217.05 151.608 215.566 150.977 214.475 150.158V146.832C215.907 147.753 217.477 148.452 219.182 148.93C220.888 149.373 222.559 149.595 224.197 149.595C226.653 149.595 228.41 149.288 229.467 148.674C230.559 148.026 231.105 146.951 231.105 145.45C231.105 144.461 230.866 143.659 230.388 143.045C229.945 142.397 229.195 141.834 228.137 141.357C227.079 140.879 225.51 140.333 223.429 139.719C220.325 138.798 218.039 137.758 216.573 136.598C215.106 135.404 214.372 133.681 214.372 131.43C214.372 128.973 215.293 127.097 217.135 125.801C219.012 124.505 221.57 123.857 224.811 123.857C226.482 123.857 228.086 124.061 229.621 124.471C231.156 124.846 232.435 125.357 233.459 126.006V129.281C231.003 127.78 228.222 127.029 225.118 127.029C220.581 127.029 218.312 128.496 218.312 131.43C218.312 132.487 218.585 133.323 219.131 133.937C219.677 134.551 220.479 135.08 221.536 135.523C222.594 135.933 224.214 136.444 226.397 137.058C228.58 137.672 230.286 138.355 231.514 139.105C232.776 139.822 233.68 140.691 234.226 141.715C234.772 142.704 235.045 143.966 235.045 145.501C235.045 147.685 234.175 149.442 232.435 150.772C230.73 152.102 228.069 152.768 224.453 152.768Z" fill="#565656"/>
<path d="M241.181 124.624H245.121V137.775L259.858 124.624H264.514L257.043 131.327C259.875 132.01 261.853 133.135 262.979 134.705C264.105 136.24 264.668 138.286 264.668 140.845V152H260.727V141.05C260.727 138.9 260.25 137.263 259.295 136.137C258.374 135.012 256.77 134.21 254.485 133.732L245.121 142.073V152H241.181V124.624ZM283.377 152.768C279.522 152.768 276.452 152.051 274.166 150.618C271.915 149.152 270.789 147.002 270.789 144.171C270.789 142.568 271.216 141.186 272.068 140.026C272.921 138.832 274.098 138.014 275.599 137.57C274.166 137.024 273.024 136.206 272.171 135.114C271.352 133.988 270.943 132.675 270.943 131.174C270.943 128.991 271.659 127.234 273.092 125.903C274.525 124.539 276.606 123.857 279.335 123.857C280.085 123.857 280.853 123.908 281.637 124.01C282.456 124.112 283.104 124.232 283.582 124.368V127.49C283.138 127.353 282.558 127.251 281.842 127.183C281.16 127.08 280.529 127.029 279.949 127.029C278.311 127.029 277.049 127.421 276.162 128.206C275.309 128.956 274.883 130.014 274.883 131.378C274.883 132.777 275.36 133.886 276.316 134.705C277.305 135.489 278.703 135.881 280.511 135.881H283.582V139.156H280.563C278.721 139.156 277.288 139.583 276.264 140.436C275.241 141.254 274.729 142.499 274.729 144.171C274.729 145.911 275.497 147.258 277.032 148.213C278.601 149.134 280.716 149.595 283.377 149.595C286.481 149.595 288.767 148.913 290.234 147.548C291.735 146.15 292.485 144.205 292.485 141.715V124.624H296.425V141.612C296.425 143.523 296.016 145.314 295.197 146.985C294.379 148.657 292.997 150.038 291.053 151.13C289.108 152.222 286.55 152.768 283.377 152.768ZM292.847 160.034C292.847 159.386 292.728 158.959 292.489 158.754C292.25 158.584 291.772 158.499 291.056 158.499H289.47V155.173H293.103C294.433 155.173 295.337 155.463 295.815 156.042C296.258 156.622 296.48 157.646 296.48 159.113V165.151H292.847V160.034ZM315.515 152.768C312.957 152.768 310.705 152.239 308.761 151.181C306.816 150.09 305.298 148.503 304.207 146.422C303.149 144.342 302.621 141.8 302.621 138.798C302.621 134.09 303.9 130.423 306.458 127.797C309.051 125.17 312.633 123.857 317.204 123.857C321.877 123.857 325.255 124.965 327.336 127.183C329.451 129.366 330.508 132.129 330.508 135.472V152H326.568V135.421C326.568 129.826 323.447 127.029 317.204 127.029C313.861 127.029 311.251 128.035 309.375 130.048C307.499 132.027 306.561 134.943 306.561 138.798C306.561 142.312 307.413 144.99 309.119 146.832C310.825 148.674 313.144 149.595 316.078 149.595C317.34 149.595 318.551 149.441 319.711 149.134V152.256C318.586 152.597 317.187 152.768 315.515 152.768Z" fill="#E0643C"/>
<path d="M168.779 200.768C167.074 200.768 165.385 200.426 163.714 199.744C162.076 199.028 160.609 197.987 159.313 196.623V200H153.07V172.624H159.569V191.506C161.343 194.303 163.799 195.702 166.937 195.702C170.963 195.702 172.975 193.825 172.975 190.073V172.624H179.423V190.38C179.423 192.324 178.996 194.098 178.143 195.702C177.325 197.271 176.114 198.516 174.51 199.437C172.907 200.324 170.997 200.768 168.779 200.768ZM194.659 200.768C191.623 200.768 189.167 200 187.291 198.465C185.449 196.93 184.528 194.764 184.528 191.966C184.528 190.124 184.988 188.504 185.909 187.105C186.865 185.707 188.195 184.615 189.901 183.83C191.64 183.046 193.67 182.653 195.99 182.653C199.299 182.653 202.164 183.216 204.586 184.342V183.114C204.586 180.999 203.955 179.447 202.693 178.457C201.465 177.434 199.469 176.922 196.706 176.922C195.035 176.922 193.38 177.093 191.743 177.434C190.139 177.775 188.741 178.236 187.547 178.816V173.75C188.638 173.238 190.139 172.795 192.05 172.419C193.994 172.044 195.887 171.857 197.73 171.857C202.164 171.857 205.49 172.863 207.708 174.876C209.925 176.888 211.034 179.583 211.034 182.96V200H204.586V189.459C202.301 188.299 199.691 187.719 196.757 187.719C194.847 187.719 193.414 188.094 192.459 188.845C191.538 189.561 191.078 190.619 191.078 192.017C191.078 193.28 191.504 194.218 192.357 194.832C193.21 195.412 194.557 195.702 196.399 195.702C197.559 195.702 198.565 195.531 199.418 195.19V200.154C198.156 200.563 196.57 200.768 194.659 200.768ZM215.648 172.624H222.146L226.547 190.994L231.868 172.624H236.678L242 190.994L246.401 172.624H252.899L245.275 200H239.8L234.273 181.169L228.747 200H223.272L215.648 172.624ZM223.898 164.744H246.771V168.889H223.898V164.744ZM271.12 200.768C268.391 200.768 265.986 200.273 263.905 199.284C261.858 198.294 260.272 196.93 259.146 195.19C258.055 193.416 257.509 191.403 257.509 189.152V172.624H264.008V188.896C264.008 191.045 264.605 192.717 265.799 193.911C266.992 195.105 268.766 195.702 271.12 195.702C273.44 195.702 275.197 195.105 276.391 193.911C277.585 192.717 278.182 191.045 278.182 188.896V186.593H272.195V181.169H278.182V172.624H284.68V181.169H287.443V186.593H284.68V189.152C284.68 191.403 284.117 193.416 282.992 195.19C281.9 196.93 280.331 198.294 278.284 199.284C276.237 200.273 273.849 200.768 271.12 200.768Z" fill="#565656"/>
</svg>
