<svg width="83" height="48" viewBox="0 0 83 48" fill="none" xmlns="http://www.w3.org/2000/svg">
<path d="M1.55178 32.2454V33.4194H0.44812V25.542H1.58292V31.224C1.8506 31.6878 2.23743 32.0716 2.7032 32.3358C3.16897 32.6 3.69677 32.735 4.23219 32.7267C4.81475 32.7696 5.39243 32.5938 5.85232 32.2337C6.04151 32.0446 6.18803 31.8172 6.28186 31.5667C6.37569 31.3163 6.41471 31.0487 6.39632 30.7819V25.542H7.52328V30.8327C7.54304 31.209 7.48365 31.5852 7.34883 31.9371C7.21401 32.289 7.00677 32.6086 6.74063 32.8754C6.43823 33.1468 6.08506 33.3557 5.70156 33.49C5.31807 33.6243 4.91186 33.6814 4.50619 33.658C3.93783 33.6683 3.37482 33.5459 2.86198 33.3007C2.34914 33.0555 1.90066 32.6942 1.55178 32.2454Z" fill="#565656"/>
<path d="M10.0336 32.9875C9.77713 32.7562 9.57632 32.47 9.4462 32.1501C9.31609 31.8302 9.26008 31.4851 9.28226 31.1405C9.26691 30.7867 9.33459 30.4343 9.48002 30.1115C9.62545 29.7887 9.84445 29.5045 10.1196 29.2817C10.7673 28.7961 11.5653 28.5537 12.3737 28.5969C13.3331 28.5841 14.2834 28.7846 15.1559 29.1838V28.3308C15.1813 28.0376 15.1413 27.7423 15.0392 27.4663C14.937 27.1902 14.7753 26.9402 14.5651 26.7342C14.1738 26.3924 13.5359 26.2228 12.6515 26.2254C12.1973 26.2254 11.7441 26.2674 11.2975 26.3507C10.9025 26.4194 10.5174 26.5363 10.1509 26.6989V25.7833C10.5326 25.6203 10.9337 25.5071 11.3443 25.4467C11.8246 25.3588 12.3119 25.3143 12.8002 25.3136C13.9793 25.3136 14.8546 25.5745 15.4259 26.0962C15.7179 26.3803 15.9458 26.7234 16.0943 27.1027C16.2428 27.482 16.3085 27.8888 16.2869 28.2955V33.3827H15.1559V30.0682C14.3213 29.6635 13.4027 29.4624 12.4753 29.4813C11.9245 29.4333 11.3735 29.5711 10.91 29.8726C10.7381 30.0252 10.6038 30.2155 10.5176 30.4287C10.4313 30.6419 10.3955 30.872 10.413 31.1013C10.3939 31.3216 10.4248 31.5434 10.5034 31.7501C10.582 31.9568 10.7063 32.143 10.867 32.2948C11.2931 32.5882 11.8069 32.7263 12.3227 32.6862C12.652 32.6869 12.98 32.6421 13.2971 32.5531V33.4492C12.8989 33.5545 12.488 33.6046 12.0762 33.598C11.344 33.6466 10.619 33.4299 10.0336 32.9875Z" fill="#565656"/>
<path d="M17.8909 25.5332H19.0257L20.6301 31.7748L22.4966 25.5332H23.4124L25.279 31.7748L26.8835 25.5332H28.0183L25.8385 33.4106H24.8837L22.9546 26.9772L21.0253 33.4106H20.0705L17.8909 25.5332Z" fill="#565656"/>
<path d="M20.0883 23.4351H26.2242V24.2724H20.0883V23.4351Z" fill="#565656"/>
<path d="M31.3379 33.2301C30.8108 32.9919 30.3677 32.6006 30.0661 32.107C29.7648 31.6026 29.6116 31.0235 29.624 30.436V25.5327H30.7548V30.44C30.7396 30.7468 30.7906 31.0534 30.904 31.339C31.0174 31.6245 31.1907 31.8824 31.4123 32.0953C31.951 32.4934 32.6031 32.7082 33.273 32.7082C33.9428 32.7082 34.595 32.4934 35.1337 32.0953C35.3552 31.8824 35.5287 31.6245 35.6421 31.339C35.7555 31.0534 35.8063 30.7468 35.7911 30.44V29.2895H33.7719V28.3777H35.7911V25.521H36.9221V28.3777H37.8221V29.2895H36.9221V30.4243C36.9345 31.0117 36.7813 31.5908 36.48 32.0953C36.1784 32.5888 35.7353 32.9802 35.2082 33.2184C34.597 33.4817 33.9384 33.6174 33.273 33.6174C32.6075 33.6174 31.9491 33.4817 31.3379 33.2184V33.2301Z" fill="#565656"/>
<path d="M39.5569 33.0271C39.3083 32.7316 39.1823 32.3521 39.2048 31.9665V25.5332H40.3396V31.7161C40.3285 31.8202 40.3384 31.9253 40.3686 32.0255C40.3989 32.1256 40.4487 32.2187 40.5156 32.2992C40.6875 32.4168 40.8951 32.4707 41.1025 32.4518H41.6505V33.4106H40.5744C40.3873 33.4224 40.1997 33.3944 40.0243 33.3282C39.8489 33.2621 39.6897 33.1595 39.5569 33.0271Z" fill="#565656"/>
<path d="M44.0841 33.0038C43.7701 32.8123 43.5136 32.5396 43.3414 32.2146C43.1693 31.8895 43.0879 31.5242 43.1058 31.1568C43.0939 30.7281 43.2231 30.3074 43.4737 29.9593C43.7233 29.6169 44.0822 29.3698 44.4911 29.2588C44.1015 29.1199 43.7605 28.8711 43.509 28.5427C43.2676 28.2187 43.1408 27.8236 43.1488 27.4196C43.1377 27.1365 43.1872 26.8543 43.2939 26.5918C43.4005 26.3293 43.5617 26.0925 43.7671 25.8973C44.2683 25.4786 44.9119 25.2697 45.5635 25.3143C45.7872 25.3154 46.0106 25.3299 46.2326 25.3573C46.4187 25.3799 46.603 25.4152 46.7842 25.463V26.3592C46.6231 26.313 46.4581 26.2816 46.2913 26.2652C46.1084 26.2397 45.924 26.2265 45.7394 26.2261C45.3506 26.1986 44.9655 26.3172 44.6595 26.5587C44.5366 26.6825 44.4399 26.8297 44.3753 26.9916C44.3108 27.1536 44.2796 27.3269 44.2836 27.5012C44.2876 27.6755 44.3269 27.8471 44.3988 28.0059C44.4708 28.1647 44.5741 28.3074 44.7025 28.4254C45.0502 28.6776 45.475 28.8008 45.9038 28.7736H46.7842V29.7166H45.9156C45.4741 29.6892 45.0367 29.8166 44.679 30.0767C44.5276 30.2108 44.4091 30.3779 44.3331 30.5653C44.2571 30.7527 44.2254 30.9552 44.2406 31.1568C44.2311 31.3955 44.2888 31.632 44.4071 31.8396C44.5254 32.0471 44.6995 32.2174 44.9098 32.3308C45.4686 32.6226 46.0961 32.7578 46.7256 32.7221C47.6178 32.7221 48.2778 32.5225 48.7057 32.1233C48.9254 31.9073 49.0962 31.6468 49.2069 31.3592C49.3176 31.0717 49.3656 30.7639 49.3475 30.4563V25.5373H50.4783V30.4406C50.4848 30.9827 50.3642 31.5188 50.1262 32.0059C49.8622 32.5067 49.453 32.916 48.9522 33.1799C48.2684 33.5215 47.5089 33.6831 46.7453 33.6495C45.8147 33.6942 44.8908 33.47 44.0841 33.0038Z" fill="#565656"/>
<path d="M53.628 33.4103C53.1336 33.2826 52.6657 33.0679 52.2465 32.7763V29.0666H55.2676V29.9784H53.3972V32.2442C53.9801 32.5872 54.6507 32.7518 55.3263 32.7177C55.7579 32.7443 56.1904 32.6792 56.595 32.5268C56.9997 32.3744 57.3674 32.138 57.6742 31.8333C58.2707 31.1419 58.5715 30.2438 58.5117 29.3327C58.5117 28.2409 58.2495 27.4544 57.7291 26.9613C57.2086 26.4682 56.3398 26.2256 55.1306 26.2256C54.6134 26.2256 54.0978 26.282 53.5928 26.3938C53.1422 26.4879 52.7149 26.6716 52.3365 26.9339V25.9907C53.2325 25.503 54.2447 25.269 55.2638 25.3138C56.696 25.3138 57.7851 25.6542 58.5312 26.3352C59.2773 27.0161 59.6505 28.0152 59.6505 29.3327C59.6679 30.119 59.4903 30.8974 59.1339 31.5984C58.7999 32.237 58.2819 32.7606 57.6469 33.1012C56.9341 33.469 56.14 33.6507 55.3381 33.6294C54.7609 33.6331 54.1857 33.5595 53.628 33.4103Z" fill="#565656"/>
<path d="M61.3251 28.2711C61.1465 28.0508 61.057 27.7715 61.0746 27.4885V26.7528H62.1194V27.2537C62.1135 27.317 62.1206 27.3809 62.1401 27.4414C62.1596 27.502 62.1912 27.5579 62.2329 27.6059C62.3468 27.686 62.4858 27.7222 62.6243 27.7076H64.3306V28.5489H62.1548C62.0048 28.5618 61.8538 28.5439 61.7111 28.4961C61.5684 28.4483 61.437 28.3717 61.3251 28.2711ZM61.3251 32.3174C61.1465 32.0972 61.057 31.8178 61.0746 31.5348V30.799H62.1194V31.2999C62.1128 31.3633 62.1196 31.4274 62.1391 31.4881C62.1587 31.5487 62.1906 31.6046 62.2329 31.6522C62.3452 31.7358 62.4851 31.7736 62.6243 31.7579H64.3306V32.5952H62.1548C62.0048 32.6082 61.8538 32.5902 61.7111 32.5424C61.5684 32.4946 61.437 32.418 61.3251 32.3174Z" fill="#565656"/>
<path d="M0.641705 42.8899H1.76084L2.59832 46.3179C3.23878 46.3352 3.87418 46.2011 4.4531 45.9266C4.96722 45.679 5.39729 45.2856 5.68974 44.7956C5.99211 44.273 6.14503 43.6775 6.13189 43.0738C6.15311 42.4916 6.05593 41.9112 5.84623 41.3676C5.65391 40.9243 5.3019 40.5695 4.86009 40.3737C4.25135 40.1247 3.59565 40.0112 2.93863 40.0411C2.43445 40.0414 1.93146 40.0885 1.43601 40.1819C0.995803 40.2626 0.566399 40.3939 0.156372 40.5732V39.6576C0.57894 39.4755 1.02167 39.3441 1.47518 39.2663C1.99217 39.1767 2.51579 39.1309 3.04047 39.1293C4.46489 39.1293 5.52272 39.4528 6.21405 40.0997C6.90278 40.7454 7.25102 41.7394 7.25102 43.0738C7.26076 43.824 7.05582 44.5613 6.66022 45.1987C6.27251 45.8298 5.72064 46.3438 5.06359 46.6858C4.38179 47.047 3.62016 47.2313 2.84863 47.2218H1.67466L0.641705 42.8899Z" fill="#565656"/>
<path d="M12.0339 42.0653C12.0794 41.5182 11.9282 40.9729 11.6074 40.5274C11.4144 40.3455 11.1845 40.2073 10.9333 40.1222C10.6821 40.0371 10.4155 40.0072 10.1516 40.0343C9.50615 40.0172 8.8657 40.1512 8.28119 40.4256V39.5138C8.57053 39.3789 8.87541 39.2803 9.18899 39.2203C9.55428 39.1422 9.92674 39.1028 10.3003 39.1029C11.2708 39.1029 11.9908 39.3638 12.4604 39.8856C12.9704 40.5156 13.2235 41.3152 13.1687 42.124V47.2112H12.0339V42.0653Z" fill="#565656"/>
<path d="M15.654 42.21L14.9184 41.0361C15.3796 40.4105 15.9871 39.9075 16.6878 39.5712C17.3884 39.2349 18.1608 39.0754 18.9373 39.1068C20.0747 39.1068 20.9434 39.3677 21.5434 39.8894C21.8471 40.1644 22.0853 40.5041 22.2404 40.8833C22.3955 41.2626 22.4636 41.6718 22.4395 42.0809V47.2033H21.3087V42.1787C21.333 41.879 21.2919 41.5775 21.1886 41.2952C21.0852 41.0128 20.9219 40.7562 20.7099 40.543C20.204 40.1551 19.573 39.967 18.9373 40.0147C18.395 40.0024 17.8554 40.0954 17.3485 40.2886C16.8835 40.4802 16.4704 40.7793 16.1432 41.1612L16.7888 42.1787V47.1955H15.654V42.21Z" fill="#565656"/>
<path d="M25.0606 42.4139L24.5753 41.1929C25.2085 40.552 25.9505 40.0286 26.7667 39.6472C27.5679 39.2895 28.437 39.1092 29.3143 39.1189C30.1538 39.0678 30.9872 39.2903 31.6896 39.7529C31.9653 39.9546 32.1871 40.2211 32.3353 40.5289C32.4834 40.8367 32.5532 41.1764 32.5388 41.5177C32.5334 41.7542 32.5085 41.9898 32.4644 42.2221L31.404 47.2115H29.5335L30.5508 42.3708C30.6011 42.1579 30.6261 41.9399 30.6251 41.7212C30.6368 41.5559 30.6073 41.3902 30.539 41.2392C30.4706 41.0882 30.3657 40.9567 30.2338 40.8564C29.86 40.6386 29.4286 40.5402 28.9974 40.5746C28.5518 40.5693 28.1085 40.6395 27.6864 40.782C27.2584 40.9371 26.8611 41.1663 26.5124 41.459L26.9037 42.4294L25.8863 47.2115H24.0158L25.0606 42.4139Z" fill="#E0643C"/>
<path d="M36.7454 42.1781C36.7999 41.9511 36.83 41.7189 36.8354 41.4855C36.8488 41.3537 36.8286 41.2207 36.7766 41.0988C36.7246 40.977 36.6426 40.8704 36.5381 40.7889C36.2347 40.6184 35.8868 40.5434 35.5401 40.5737C35.2323 40.5788 34.9261 40.6208 34.6283 40.6989C34.32 40.7727 34.0189 40.8735 33.7283 41.0003L34.0375 39.5445C34.3599 39.4091 34.6957 39.3081 35.0393 39.2432C35.4251 39.1598 35.8186 39.1178 36.2133 39.118C36.8839 39.0712 37.5462 39.2874 38.0602 39.7206C38.2794 39.9395 38.4499 40.2022 38.5605 40.4915C38.671 40.7808 38.7193 41.0902 38.702 41.3994C38.701 41.7012 38.6656 42.0018 38.5964 42.2956L37.5672 47.2106H35.7006L36.7454 42.1781Z" fill="#E0643C"/>
<path d="M40.4398 47.2668C39.9865 47.182 39.556 47.0034 39.1758 46.7424L39.485 45.2866C39.8885 45.5498 40.3327 45.7442 40.7998 45.8619C41.2597 45.9835 41.7329 46.0479 42.2086 46.0536C42.6516 46.0745 43.0948 46.0135 43.5158 45.8736C43.654 45.8188 43.7756 45.729 43.8689 45.6131C43.9621 45.4972 44.0239 45.3591 44.0479 45.2123C44.0528 45.1485 44.0528 45.0844 44.0479 45.0206C44.049 44.9413 44.0328 44.8628 44.0003 44.7904C43.9679 44.7181 43.92 44.6537 43.8601 44.6018C43.7089 44.4751 43.5366 44.3757 43.3512 44.3083C43.1399 44.2262 42.7604 44.0931 42.2086 43.917C41.6508 43.7508 41.133 43.4726 40.6865 43.0992C40.5201 42.9528 40.3873 42.7719 40.2975 42.5693C40.2076 42.3666 40.1628 42.1469 40.166 41.9252C40.165 41.7655 40.1847 41.6063 40.2247 41.4517C40.2933 41.0971 40.4361 40.7611 40.6439 40.4657C40.8516 40.1703 41.1195 39.9222 41.43 39.7377C42.2083 39.309 43.0897 39.1032 43.9774 39.1429C44.4711 39.1408 44.9632 39.2026 45.441 39.3268C45.8357 39.4163 46.2153 39.5627 46.568 39.7612L46.2432 41.2913C45.922 41.0631 45.563 40.8935 45.1827 40.7903C44.7484 40.6613 44.2975 40.5967 43.8444 40.5986C42.8009 40.5986 42.2165 40.8829 42.0913 41.4517C42.0858 41.5063 42.0858 41.5614 42.0913 41.6161C42.0916 41.7255 42.1221 41.8327 42.1794 41.9259C42.2367 42.0191 42.3186 42.0946 42.4161 42.1443C42.7713 42.3234 43.1436 42.4663 43.5274 42.5709L43.7779 42.653C43.8562 42.6765 43.9305 42.7039 43.9971 42.7313C44.5554 42.8834 45.0719 43.1604 45.5075 43.5414C45.6527 43.6857 45.7675 43.8578 45.8448 44.0474C45.9221 44.237 45.9604 44.4402 45.9575 44.6449C45.9524 44.8439 45.9275 45.0418 45.8832 45.2358C45.8216 45.5651 45.6933 45.8784 45.5062 46.1563C45.3191 46.4343 45.0773 46.6709 44.7954 46.8519C44.2032 47.2459 43.2901 47.4428 42.0561 47.4428C41.5126 47.4439 40.9704 47.3849 40.4398 47.2668Z" fill="#E0643C"/>
<path d="M48.0441 46.795C47.7854 46.5957 47.5778 46.3378 47.4384 46.0425C47.2989 45.7472 47.2316 45.423 47.2419 45.0967C47.2405 44.8943 47.2602 44.6923 47.3006 44.494L47.3749 44.1262C47.444 43.7778 47.5867 43.4483 47.7936 43.1596C48.0443 42.8148 48.319 42.4878 48.6154 42.1813C48.8424 41.9348 49.0066 41.747 49.1084 41.6139C49.2004 41.4982 49.2684 41.3651 49.308 41.2226C49.3132 41.1836 49.3132 41.1441 49.308 41.1052C49.308 40.89 49.1514 40.7804 48.8384 40.7804H48.0011L48.3102 39.309H50.1337C50.4508 39.2905 50.7634 39.391 51.0103 39.5907C51.1155 39.6838 51.1985 39.7993 51.2534 39.9286C51.3082 40.0579 51.3335 40.1979 51.3273 40.3382C51.3274 40.4584 51.3115 40.5781 51.2803 40.6943C51.2164 41.0003 51.0971 41.2921 50.9282 41.5552C50.7027 41.8906 50.4568 42.2122 50.1923 42.5179C49.9633 42.7639 49.7516 43.0254 49.5585 43.3005C49.418 43.5166 49.3185 43.7566 49.265 44.0088L49.1907 44.3767C49.1508 44.5499 49.131 44.7271 49.1319 44.9049C49.1205 45.0532 49.1455 45.2021 49.2049 45.3386C49.2642 45.475 49.3561 45.5948 49.4724 45.6876C49.8195 45.8878 50.2198 45.9766 50.619 45.942C51.1141 45.9667 51.602 45.8156 51.9965 45.5154C52.3603 45.2057 52.6062 44.78 52.6929 44.3101L53.7534 39.3051H55.6241L54.6222 44.0009C54.4536 44.9705 53.9576 45.8531 53.2173 46.5015C52.3872 47.1402 51.3556 47.4596 50.3098 47.4016C49.5075 47.4642 48.7078 47.2502 48.0441 46.795Z" fill="#E0643C"/>
<path d="M56.8609 46.7871C56.6425 46.5703 56.4715 46.3106 56.3584 46.0243C56.2452 45.7381 56.1925 45.4316 56.2036 45.124C56.2094 44.8966 56.2343 44.6702 56.2779 44.447L57.3657 39.3402H59.2364L58.1759 44.3609C58.1348 44.5541 58.1112 44.7505 58.1054 44.9479C58.0923 45.0945 58.1147 45.2421 58.1705 45.3783C58.2264 45.5145 58.314 45.6353 58.4262 45.7306C58.744 45.9248 59.1155 46.0125 59.4867 45.981C59.9409 45.9814 60.3892 45.8783 60.7976 45.6796C61.2371 45.4661 61.6235 45.1573 61.9286 44.7757L63.0791 39.3441H64.9457L63.2826 47.2176H61.4903L61.6938 46.247C60.8616 47.0257 59.7574 47.4472 58.618 47.421C58.2975 47.4396 57.9765 47.393 57.6745 47.284C57.3725 47.175 57.0957 47.006 56.8609 46.7871Z" fill="#E0643C"/>
<path d="M65.8328 46.8989C65.6143 46.7206 65.4408 46.4936 65.3259 46.236C65.2111 45.9784 65.1582 45.6975 65.1715 45.4158C65.1709 45.2187 65.1905 45.022 65.2302 44.8288C65.2989 44.4403 65.4455 44.0697 65.6614 43.7395C65.8773 43.4093 66.158 43.1262 66.4863 42.9075C67.2639 42.4231 68.1695 42.1844 69.0848 42.2226C69.5226 42.2215 69.9593 42.266 70.3879 42.3556C70.7567 42.4321 71.1153 42.5517 71.4562 42.7118L71.5265 42.3556C71.5816 42.134 71.6117 41.907 71.6165 41.6787C71.6311 41.5083 71.5966 41.3373 71.5168 41.1861C71.437 41.0348 71.3154 40.9097 71.1665 40.8256C70.6806 40.6228 70.1539 40.537 69.6288 40.5751C69.1424 40.5763 68.6573 40.6262 68.1808 40.7238C67.7342 40.8094 67.2975 40.9405 66.8776 41.1152L67.2025 39.6595C67.6451 39.4807 68.1055 39.3495 68.5759 39.2681C69.1217 39.1646 69.6759 39.1109 70.2314 39.1076C70.9049 39.087 71.5742 39.2209 72.188 39.499L73.0137 38.7163H75.0759L73.174 40.4656C73.3541 40.8108 73.4456 41.1954 73.4401 41.5847C73.437 41.8174 73.4121 42.0493 73.3658 42.2774L72.3367 47.1768H70.5287L71.1627 44.1479C70.5089 43.7947 69.7727 43.6218 69.0299 43.647C67.9381 43.647 67.3121 44.0383 67.1438 44.821C67.1169 44.9365 67.1026 45.0546 67.1008 45.1731C67.0949 45.2864 67.1188 45.3992 67.1704 45.5002C67.2219 45.6012 67.2992 45.6868 67.3943 45.7485C67.7005 45.8976 68.0407 45.9624 68.3803 45.9363C68.7006 45.9422 69.0196 45.8931 69.3234 45.7915L69.0299 47.2198C68.5699 47.3457 68.0942 47.4051 67.6173 47.3959C66.9826 47.4452 66.3507 47.2692 65.8328 46.8989Z" fill="#E0643C"/>
<path d="M73.0233 35.7395H74.8783L74.35 38.2714H72.4833L73.0233 35.7395Z" fill="#E0643C"/>
<path d="M75.3644 40.3234H77.235L77.8102 45.7549C78.5567 45.7826 79.2872 45.5332 79.8608 45.0545C80.4386 44.5336 80.8211 43.8307 80.9448 43.0626C81.0255 42.7147 81.0701 42.3593 81.0777 42.0022C81.093 41.8075 81.0686 41.6117 81.0061 41.4267C80.9435 41.2418 80.844 41.0715 80.7137 40.926C80.3898 40.6621 79.9755 40.5356 79.5595 40.5738C79.206 40.5746 78.8543 40.6247 78.5146 40.7225L78.8238 39.2941C79.2698 39.1712 79.7309 39.1119 80.1934 39.1181C80.5691 39.0928 80.9461 39.1428 81.3023 39.2651C81.6584 39.3874 81.9865 39.5796 82.2674 39.8303C82.5192 40.0992 82.7137 40.4166 82.8389 40.763C82.964 41.1095 83.0171 41.4778 82.9952 41.8456C82.9875 42.2525 82.9391 42.6576 82.8505 43.0548C82.6943 43.873 82.3395 44.6402 81.8174 45.2893C81.3311 45.9029 80.706 46.3925 79.9938 46.7176C79.2972 47.0397 78.5384 47.2054 77.771 47.2029H76.0805L75.3644 40.3234Z" fill="#E0643C"/>
<path d="M7.84998 14.0623H0V12.5636L7.82647 1.89612H10.2252V12.2153H12.718V14.0623H10.2252V18.0343H7.84998V14.0623ZM8.12379 12.2153V4.71363L2.64526 12.2153H8.12379Z" fill="#565656"/>
<path d="M23.8813 17.3962C23.4632 16.896 23.2531 16.2545 23.2943 15.604V5.67603H25.6422V14.9582C25.6255 15.112 25.6395 15.2676 25.6831 15.416C25.7268 15.5644 25.7994 15.7027 25.8967 15.823C26.1492 16.0119 26.4636 16.0985 26.7772 16.0657H27.6067V18.0223H25.5992C25.2849 18.045 24.9693 18.001 24.6733 17.893C24.3772 17.7851 24.1073 17.6158 23.8813 17.3962ZM29.8256 17.3962C29.4041 16.902 29.1895 16.2642 29.2268 15.6157V5.68778H31.5747V14.97C31.5569 15.1247 31.5714 15.2814 31.6172 15.4303C31.663 15.5791 31.7392 15.7168 31.8409 15.8348C32.0971 16.0221 32.4134 16.1085 32.7292 16.0774H33.5587V18.0341H31.5277C31.2149 18.0516 30.9019 18.0028 30.6092 17.8908C30.3165 17.7789 30.0508 17.6063 29.8295 17.3844L29.8256 17.3962Z" fill="#565656"/>
<path d="M36.0904 5.67603H38.4383V11.1271L44.4177 5.67603H47.1569L43.7877 8.74795C45.0477 9.07275 45.9321 9.58928 46.4291 10.2937C46.9686 11.1396 47.2312 12.1326 47.1804 13.1347V18.0301H44.8325V13.2755C44.884 12.5318 44.6857 11.7923 44.269 11.1741C43.753 10.6203 43.0621 10.261 42.3124 10.1567L38.4345 13.6786V18.0184H36.0865L36.0904 5.67603Z" fill="#565656"/>
<path d="M44.8809 0H47.2288V3.85458H44.8809V0Z" fill="#565656"/>
<path d="M49.7046 7.22753H52.0525L54.9834 16.185C56.4313 16.185 57.5479 15.7845 58.3332 14.9836C59.1158 14.2009 59.5072 13.0544 59.5072 11.5908C59.5072 10.1273 59.2372 9.05111 58.6972 8.3115C58.1572 7.5719 57.2963 7.20412 56.1106 7.20412C55.5652 7.20388 55.0219 7.2735 54.4943 7.41144V5.58791C55.1505 5.41403 55.827 5.32853 56.5057 5.33359C58.2589 5.33359 59.5973 5.88796 60.5208 6.99671C61.4444 8.10546 61.9061 9.63684 61.9061 11.5908C61.9387 12.8025 61.6395 13.9999 61.0411 15.054C60.4871 16.0022 59.6721 16.7711 58.6932 17.269C57.6778 17.7847 56.5527 18.0465 55.4139 18.032H53.1992L49.7046 7.22753Z" fill="#565656"/>
</svg>
