<svg width="390" height="637" viewBox="0 0 390 637" fill="none" xmlns="http://www.w3.org/2000/svg">
<path d="M175.32 143L170.34 134.45H167.04V143H164.31V122.09H171.06C172.64 122.09 173.97 122.36 175.05 122.9C176.15 123.44 176.97 124.17 177.51 125.09C178.05 126.01 178.32 127.06 178.32 128.24C178.32 129.68 177.9 130.95 177.06 132.05C176.24 133.15 175 133.88 173.34 134.24L178.59 143H175.32ZM167.04 132.26H171.06C172.54 132.26 173.65 131.9 174.39 131.18C175.13 130.44 175.5 129.46 175.5 128.24C175.5 127 175.13 126.04 174.39 125.36C173.67 124.68 172.56 124.34 171.06 124.34H167.04V132.26ZM194.922 138.35H185.802L184.122 143H181.242L188.802 122.21H191.952L199.482 143H196.602L194.922 138.35ZM194.142 136.13L190.362 125.57L186.582 136.13H194.142ZM205.507 122.09V143H202.777V122.09H205.507ZM226.6 143H223.87L212.89 126.35V143H210.16V122.06H212.89L223.87 138.68V122.06H226.6V143Z" fill="#125C86"/>
<path d="M35.9163 59.44C38.9029 59.9733 41.4363 61.5467 43.5163 64.16C45.5963 66.7733 46.6363 69.7333 46.6363 73.04C46.6363 75.8667 45.8896 78.4267 44.3963 80.72C42.9563 82.96 40.8496 84.7467 38.0763 86.08C35.3029 87.36 32.0763 88 28.3963 88H6.15625V32.4H27.3563C31.1429 32.4 34.3963 33.04 37.1163 34.32C39.8363 35.6 41.8896 37.3333 43.2763 39.52C44.6629 41.6533 45.3562 44.0533 45.3562 46.72C45.3562 49.92 44.5029 52.5867 42.7963 54.72C41.0896 56.8533 38.7963 58.4267 35.9163 59.44ZM15.2763 55.76H26.5563C29.5429 55.76 31.8629 55.0933 33.5163 53.76C35.2229 52.3733 36.0763 50.4 36.0763 47.84C36.0763 45.3333 35.2229 43.3867 33.5163 42C31.8629 40.56 29.5429 39.84 26.5563 39.84H15.2763V55.76ZM27.5963 80.56C30.6896 80.56 33.1163 79.8133 34.8763 78.32C36.6363 76.8267 37.5163 74.7467 37.5163 72.08C37.5163 69.36 36.5829 67.2 34.7163 65.6C32.8496 64 30.3696 63.2 27.2763 63.2H15.2763V80.56H27.5963ZM90.0669 76.64H66.7869L62.7869 88H53.2669L73.1869 32.32H83.7469L103.667 88H94.0669L90.0669 76.64ZM87.5069 69.2L78.4669 43.36L69.3469 69.2H87.5069ZM158.008 88H148.888L121.448 46.48V88H112.328V32.32H121.448L148.888 73.76V32.32H158.008V88ZM210.224 48.4C208.784 45.6267 206.784 43.5467 204.224 42.16C201.664 40.72 198.704 40 195.344 40C191.664 40 188.384 40.8267 185.504 42.48C182.624 44.1333 180.358 46.48 178.704 49.52C177.104 52.56 176.304 56.08 176.304 60.08C176.304 64.08 177.104 67.6267 178.704 70.72C180.358 73.76 182.624 76.1067 185.504 77.76C188.384 79.4133 191.664 80.24 195.344 80.24C200.304 80.24 204.331 78.8533 207.424 76.08C210.518 73.3067 212.411 69.5467 213.104 64.8H192.224V57.52H222.864V64.64C222.278 68.96 220.731 72.9333 218.224 76.56C215.771 80.1867 212.544 83.0933 208.544 85.28C204.598 87.4133 200.198 88.48 195.344 88.48C190.118 88.48 185.344 87.28 181.024 84.88C176.704 82.4267 173.264 79.04 170.704 74.72C168.198 70.4 166.944 65.52 166.944 60.08C166.944 54.64 168.198 49.76 170.704 45.44C173.264 41.12 176.704 37.76 181.024 35.36C185.398 32.9067 190.171 31.68 195.344 31.68C201.264 31.68 206.518 33.1467 211.104 36.08C215.744 38.96 219.104 43.0667 221.184 48.4H210.224ZM262.499 88L240.979 63.12V88H231.859V32.4H240.979V57.76L262.579 32.4H274.019L249.859 60.24L274.419 88H262.499ZM307.844 88.56C302.671 88.56 297.898 87.36 293.524 84.96C289.204 82.5067 285.764 79.12 283.204 74.8C280.698 70.4267 279.444 65.52 279.444 60.08C279.444 54.64 280.698 49.76 283.204 45.44C285.764 41.12 289.204 37.76 293.524 35.36C297.898 32.9067 302.671 31.68 307.844 31.68C313.071 31.68 317.844 32.9067 322.164 35.36C326.538 37.76 329.978 41.12 332.484 45.44C334.991 49.76 336.244 54.64 336.244 60.08C336.244 65.52 334.991 70.4267 332.484 74.8C329.978 79.12 326.538 82.5067 322.164 84.96C317.844 87.36 313.071 88.56 307.844 88.56ZM307.844 80.64C311.524 80.64 314.804 79.8133 317.684 78.16C320.564 76.4533 322.804 74.0533 324.404 70.96C326.058 67.8133 326.884 64.1867 326.884 60.08C326.884 55.9733 326.058 52.3733 324.404 49.28C322.804 46.1867 320.564 43.8133 317.684 42.16C314.804 40.5067 311.524 39.68 307.844 39.68C304.164 39.68 300.884 40.5067 298.004 42.16C295.124 43.8133 292.858 46.1867 291.204 49.28C289.604 52.3733 288.804 55.9733 288.804 60.08C288.804 64.1867 289.604 67.8133 291.204 70.96C292.858 74.0533 295.124 76.4533 298.004 78.16C300.884 79.8133 304.164 80.64 307.844 80.64ZM375.859 88L354.339 63.12V88H345.219V32.4H354.339V57.76L375.939 32.4H387.379L363.219 60.24L387.779 88H375.859Z" fill="#125C86"/>
<path d="M48.0483 208.344H37V554.241H48.0483V208.344Z" fill="#125C86"/>
<g clip-path="url(#clip0_423_291)">
<path d="M119.998 177.07H109.023V508.899H119.998V177.07Z" fill="#125C86" stroke="#125C86" stroke-width="1.26" stroke-miterlimit="10"/>
<path d="M203.392 248.172H192.418V554.083H203.392V248.172Z" fill="#125C86" stroke="#125C86" stroke-width="1.26" stroke-miterlimit="10"/>
<path d="M286.791 187.805H275.816V535.02H286.791V187.805Z" fill="#125C86" stroke="#125C86" stroke-width="1.26" stroke-miterlimit="10"/>
<path d="M353.525 220.242H342.152V579.759H353.525V220.242Z" fill="#125C86" stroke="#125C86" stroke-width="1.26" stroke-miterlimit="10"/>
</g>
<defs>
<clipPath id="clip0_423_291">
<rect width="279.094" height="471.678" fill="white" transform="translate(74.9062 165)"/>
</clipPath>
</defs>
</svg>
