<svg width="174" height="174" viewBox="0 0 174 174" fill="none" xmlns="http://www.w3.org/2000/svg">
<path d="M102.086 65.2503C101.654 65.2503 101.225 65.3355 100.826 65.501C100.426 65.6665 100.063 65.909 99.7575 66.2148C99.4517 66.5206 99.2092 66.8837 99.0437 67.2832C98.8782 67.6827 98.793 68.111 98.793 68.5434V83.0157L86.6605 66.8969C86.3582 66.4064 85.9384 65.9989 85.4391 65.7114C84.9398 65.424 84.3767 65.2655 83.8007 65.2503C82.9273 65.2503 82.0897 65.5973 81.4721 66.2148C80.8546 66.8324 80.5076 67.67 80.5076 68.5434V93.155C80.5076 94.0284 80.8546 94.866 81.4721 95.4836C82.0897 96.1011 82.9273 96.4481 83.8007 96.4481C84.6741 96.4481 85.5117 96.1011 86.1293 95.4836C86.7469 94.866 87.0938 94.0284 87.0938 93.155V78.596L99.1396 95.1482C99.4463 95.6099 99.907 95.9477 100.44 96.1015C100.839 96.191 101.253 96.191 101.653 96.1015C102.033 96.2397 102.438 96.2957 102.841 96.2658C103.245 96.2359 103.637 96.1208 103.993 95.9281L104.859 95.3215C105.468 94.6941 105.809 93.8555 105.812 92.9817V68.5434C105.817 68.072 105.719 67.6051 105.528 67.1744C105.336 66.7438 105.053 66.3594 104.7 66.0471C104.347 65.7349 103.931 65.5022 103.48 65.3648C103.029 65.2273 102.553 65.1883 102.086 65.2503ZM62.3956 89.6019H53.2096V68.5434C53.2096 68.111 53.1244 67.6827 52.9589 67.2832C52.7934 66.8837 52.5508 66.5206 52.245 66.2148C51.9392 65.909 51.5762 65.6665 51.1767 65.501C50.7771 65.3355 50.3489 65.2503 49.9165 65.2503C49.484 65.2503 49.0558 65.3355 48.6562 65.501C48.2567 65.6665 47.8937 65.909 47.5879 66.2148C47.2821 66.5206 47.0395 66.8837 46.874 67.2832C46.7085 67.6827 46.6234 68.111 46.6234 68.5434V93.155C46.6234 93.5875 46.7085 94.0157 46.874 94.4152C47.0395 94.8147 47.2821 95.1778 47.5879 95.4836C47.8937 95.7894 48.2567 96.0319 48.6562 96.1974C49.0558 96.3629 49.484 96.4481 49.9165 96.4481H62.3956C63.2771 96.4484 64.1239 96.1042 64.7553 95.489C65.3867 94.8738 65.7527 94.0363 65.7753 93.155C65.7989 92.6968 65.7289 92.2386 65.5696 91.8083C65.4103 91.3781 65.1651 90.9847 64.8488 90.6523C64.5326 90.3199 64.1521 90.0553 63.7303 89.8747C63.3085 89.6941 62.8544 89.6013 62.3956 89.6019ZM72.0149 65.2503C71.1333 65.25 70.2866 65.5942 69.6552 66.2094C69.0238 66.8246 68.6577 67.6621 68.6351 68.5434V93.155C68.6577 94.0363 69.0238 94.8738 69.6552 95.489C70.2866 96.1042 71.1333 96.4484 72.0149 96.4481C72.4474 96.4481 72.8756 96.3629 73.2751 96.1974C73.6746 96.0319 74.0377 95.7894 74.3435 95.4836C74.6493 95.1778 74.8918 94.8147 75.0573 94.4152C75.2228 94.0157 75.308 93.5875 75.308 93.155V68.5434C75.308 68.111 75.2228 67.6827 75.0573 67.2832C74.8918 66.8837 74.6493 66.5206 74.3435 66.2148C74.0377 65.909 73.6746 65.6665 73.2751 65.501C72.8756 65.3355 72.4474 65.2503 72.0149 65.2503ZM137.877 0.601562H35.4442C26.0508 0.624445 17.0487 4.36608 10.4066 11.0082C3.76451 17.6503 0.0228828 26.6524 0 36.0457V138.478C0.0228828 147.872 3.76451 156.874 10.4066 163.516C17.0487 170.158 26.0508 173.9 35.4442 173.923H137.877C147.27 173.9 156.272 170.158 162.914 163.516C169.557 156.874 173.298 147.872 173.321 138.478V36.0457C173.298 26.6524 169.557 17.6503 162.914 11.0082C156.272 4.36608 147.27 0.624445 137.877 0.601562ZM140.563 107.021C140.222 107.537 139.846 108.029 139.437 108.494C137.37 111.037 135.047 113.36 132.504 115.427C115.172 131.632 86.0539 151.044 82.1542 148.011C78.2544 144.978 87.7004 132.759 77.5612 130.679C76.8418 130.77 76.114 130.77 75.3946 130.679C45.5834 126.519 23.3983 105.634 23.3983 80.5892C23.3983 52.4245 51.9096 29.6328 87.0072 29.6328C122.105 29.6328 150.616 52.4245 150.616 80.5892C150.315 90.276 146.776 99.5823 140.563 107.021ZM125.744 65.337H112.659C112.226 65.337 111.798 65.4222 111.398 65.5876C110.999 65.7531 110.636 65.9957 110.33 66.3015C110.024 66.6073 109.782 66.9703 109.616 67.3699C109.451 67.7694 109.366 68.1976 109.366 68.6301V93.2417C109.366 93.6741 109.451 94.1023 109.616 94.5019C109.782 94.9014 110.024 95.2644 110.33 95.5702C110.636 95.876 110.999 96.1186 111.398 96.2841C111.798 96.4496 112.226 96.5348 112.659 96.5348H125.484C126.358 96.5348 127.195 96.1878 127.813 95.5702C128.431 94.9527 128.778 94.115 128.778 93.2417C128.778 92.3683 128.431 91.5307 127.813 90.9131C127.195 90.2955 126.358 89.9486 125.484 89.9486H116.558V84.7489H125.744C126.626 84.7263 127.463 84.3603 128.078 83.7289C128.694 83.0975 129.038 82.2507 129.038 81.3692C129.038 80.4958 128.691 79.6582 128.073 79.0406C127.455 78.423 126.618 78.0761 125.744 78.0761H116.558V72.7898H125.744C126.618 72.7898 127.455 72.4428 128.073 71.8252C128.691 71.2077 129.038 70.3701 129.038 69.4967C129.174 68.9986 129.191 68.4754 129.088 67.9694C128.984 67.4634 128.764 66.9889 128.443 66.584C128.122 66.1791 127.711 65.8553 127.242 65.6386C126.774 65.422 126.26 65.3187 125.744 65.337Z" fill="white"/>
</svg>
