<svg width="174" height="174" viewBox="0 0 174 174" fill="none" xmlns="http://www.w3.org/2000/svg">
<path d="M154.856 0.601562H18.6756C13.7505 0.601563 9.0271 2.55805 5.54453 6.04062C2.06196 9.52319 0.105469 14.2466 0.105469 19.1717L0.105469 155.352C0.105469 160.278 2.06196 165.001 5.54453 168.484C9.0271 171.966 13.7505 173.923 18.6756 173.923H71.7745V114.997H47.4012V87.2621H71.7745V66.1231C71.7745 42.0787 86.089 28.7972 108.013 28.7972C118.513 28.7972 129.493 30.6697 129.493 30.6697V54.2692H117.395C105.475 54.2692 101.757 61.6663 101.757 69.2529V87.2621H128.367L124.111 114.997H101.757V173.923H154.856C159.781 173.923 164.505 171.966 167.987 168.484C171.47 165.001 173.426 160.278 173.426 155.352V19.1717C173.426 14.2466 171.47 9.52319 167.987 6.04062C164.505 2.55805 159.781 0.601563 154.856 0.601562Z" fill="white"/>
</svg>
