<svg width="128" height="128" viewBox="0 0 128 128" fill="none" xmlns="http://www.w3.org/2000/svg">
<path d="M59.8022 49.2623L38.5956 70.469C38.0987 70.9618 37.7042 71.5482 37.4351 72.1943C37.1659 72.8403 37.0273 73.5333 37.0273 74.2331C37.0273 74.933 37.1659 75.626 37.4351 76.272C37.7042 76.9181 38.0987 77.5045 38.5956 77.9973C39.0884 78.4942 39.6748 78.8887 40.3209 79.1578C40.9669 79.427 41.6599 79.5656 42.3598 79.5656C43.0596 79.5656 43.7526 79.427 44.3986 79.1578C45.0447 78.8887 45.6311 78.4942 46.1239 77.9973L67.3306 56.7907C68.3289 55.7923 68.8898 54.4383 68.8898 53.0265C68.8898 51.6146 68.3289 50.2606 67.3306 49.2623C66.3323 48.264 64.9783 47.7031 63.5664 47.7031C62.1546 47.7031 60.8006 48.264 59.8022 49.2623Z" fill="white"/>
<path d="M54.4573 92.2709L47.6712 99.004C43.8615 102.93 38.7402 105.315 33.284 105.707C27.8277 106.098 22.4185 104.467 18.0879 101.125C15.799 99.2386 13.9312 96.8933 12.6051 94.2404C11.279 91.5875 10.5241 88.686 10.3892 85.7232C10.2543 82.7604 10.7424 79.8022 11.8219 77.0398C12.9014 74.2774 14.5484 71.7721 16.6564 69.6858L24.1848 62.1044C24.6817 61.6115 25.0761 61.0252 25.3453 60.3791C25.6144 59.7331 25.753 59.0401 25.753 58.3402C25.753 57.6403 25.6144 56.9474 25.3453 56.3013C25.0761 55.6553 24.6817 55.0689 24.1848 54.576C23.6919 54.0791 23.1055 53.6847 22.4595 53.4155C21.8134 53.1464 21.1205 53.0078 20.4206 53.0078C19.7207 53.0078 19.0277 53.1464 18.3817 53.4155C17.7356 53.6847 17.1493 54.0791 16.6564 54.576L9.92329 61.3622C4.25134 66.8547 0.765114 74.2188 0.111848 82.0873C-0.541417 89.9557 1.68266 97.7939 6.37117 104.147C9.15391 107.757 12.6729 110.733 16.6945 112.879C20.7161 115.024 25.1481 116.289 29.6963 116.59C34.2444 116.891 38.8045 116.221 43.0736 114.624C47.3428 113.027 51.2233 110.54 54.4573 107.328L61.9857 99.7992C62.984 98.8009 63.5448 97.4469 63.5448 96.0351C63.5448 94.6232 62.984 93.2692 61.9857 92.2709C60.9873 91.2726 59.6333 90.7117 58.2215 90.7117C56.8096 90.7117 55.4556 91.2726 54.4573 92.2709Z" fill="white"/>
<path d="M93.5803 17.0869C87.1838 12.3497 79.2815 10.103 71.3496 10.7664C63.4176 11.4298 55.9984 14.9581 50.4777 20.6921L44.7519 26.5239C44.0975 26.9996 43.5502 27.6075 43.1456 28.3082C42.741 29.0089 42.488 29.7867 42.403 30.5913C42.3181 31.3959 42.403 32.2094 42.6524 32.9791C42.9018 33.7489 43.31 34.4576 43.8506 35.0596C44.3435 35.5565 44.9299 35.9509 45.5759 36.2201C46.222 36.4892 46.9149 36.6278 47.6148 36.6278C48.3147 36.6278 49.0077 36.4892 49.6537 36.2201C50.2998 35.9509 50.8861 35.5565 51.379 35.0596L58.2712 28.1144C62.0597 24.1716 67.175 21.7727 72.6289 21.3811C78.0828 20.9894 83.4884 22.6328 87.8014 25.9937C90.1074 27.8801 91.99 30.2311 93.3266 32.8937C94.6632 35.5562 95.4239 38.4705 95.5589 41.4466C95.694 44.4228 95.2004 47.394 94.1104 50.1667C93.0205 52.9393 91.3585 55.4512 89.2329 57.5386L81.7045 65.12C81.2076 65.6129 80.8132 66.1992 80.544 66.8453C80.2749 67.4914 80.1363 68.1843 80.1363 68.8842C80.1363 69.5841 80.2749 70.277 80.544 70.9231C80.8132 71.5692 81.2076 72.1555 81.7045 72.6484C82.1974 73.1453 82.7838 73.5397 83.4298 73.8089C84.0759 74.078 84.7688 74.2166 85.4687 74.2166C86.1686 74.2166 86.8615 74.078 87.5076 73.8089C88.1537 73.5397 88.74 73.1453 89.2329 72.6484L96.7613 65.12C99.9643 61.8866 102.444 58.0094 104.035 53.7455C105.627 49.4816 106.295 44.9281 105.994 40.3867C105.693 35.8453 104.431 31.4197 102.291 27.4028C100.151 23.386 97.1817 19.8698 93.5803 17.0869Z" fill="white"/>
</svg>
