<svg width="174" height="174" viewBox="0 0 174 174" fill="none" xmlns="http://www.w3.org/2000/svg">
<path d="M154.954 0.601562H18.7732C8.52099 0.601562 0.203125 8.91942 0.203125 19.1717V155.352C0.203125 165.605 8.52099 173.923 18.7732 173.923H154.954C165.206 173.923 173.524 165.605 173.524 155.352V19.1717C173.524 8.91942 165.206 0.601562 154.954 0.601562ZM136.036 62.0377C136.113 63.1209 136.113 64.2429 136.113 65.3261C136.113 98.8684 110.579 137.517 63.9218 137.517C49.53 137.517 36.1827 133.339 24.9633 126.143C27.0137 126.375 28.9868 126.453 31.0759 126.453C42.9531 126.453 53.863 122.429 62.5677 115.62C51.4257 115.388 42.0632 108.076 38.8522 98.0173C42.7596 98.5976 46.2802 98.5976 50.3037 97.553C38.6974 95.1931 29.9927 84.9795 29.9927 72.6381V72.3286C33.3585 74.2243 37.3047 75.3849 41.4442 75.5397C37.964 73.2248 35.111 70.0842 33.1398 66.3984C31.1686 62.7125 30.1406 58.596 30.1474 54.4162C30.1474 49.6963 31.3854 45.3633 33.5906 41.6106C46.0868 57.0083 64.8503 67.0671 85.8964 68.1503C82.2985 50.9343 95.1815 36.968 110.657 36.968C117.969 36.968 124.545 40.0244 129.188 44.9764C134.914 43.8931 140.407 41.7653 145.282 38.8637C143.386 44.7443 139.402 49.6963 134.14 52.83C139.247 52.2884 144.199 50.8569 148.764 48.8839C145.321 53.9519 140.988 58.4397 136.036 62.0377Z" fill="white"/>
</svg>
