<svg width="116" height="156" viewBox="0 0 116 156" fill="none" xmlns="http://www.w3.org/2000/svg">
<ellipse cx="57.6289" cy="52.5" rx="33" ry="35.5" fill="white"/>
<path d="M55.7843 0H59.724H60.1541C74.7082 0.578073 88.4955 6.68903 98.7105 17.0893C108.926 27.4896 114.801 41.3978 115.141 55.9837C115.48 70.5695 110.259 84.737 100.539 95.6032C90.8196 106.469 77.3321 113.218 62.8208 114.475C56.8658 115.029 50.8606 114.628 45.0319 113.286C32.986 110.501 22.1628 103.888 14.1786 94.4333C6.19426 84.979 1.47727 73.1913 0.73223 60.8306L0.628906 59.3486V55.4024C0.637428 55.2646 0.637428 55.1265 0.628906 54.9888C0.781295 51.3667 1.27103 47.7667 2.09139 44.2357C4.92029 32.2223 11.5385 21.4418 20.9651 13.4924C30.3918 5.54304 42.125 0.848007 54.4251 0.103391L55.7843 0ZM57.7453 87.1963C57.827 87.1104 57.902 87.0182 57.9692 86.9205L71.7322 70.1189C72.6268 69.0332 73.4527 67.9303 74.4161 66.9136C77.0547 64.2377 78.9891 60.9478 80.046 57.3387C81.1029 53.7297 81.2493 49.9143 80.4719 46.2347C79.3921 40.7483 76.3681 35.8379 71.9582 32.4089C67.5482 28.98 62.0496 27.2636 56.4756 27.5764C50.9017 27.8891 45.6282 30.2099 41.6281 34.1107C37.6281 38.0116 35.171 43.2294 34.7097 48.8023C34.4359 51.811 34.7619 54.8442 35.6686 57.7256C36.5753 60.607 38.0447 63.2791 39.9913 65.5867C40.5247 66.2243 41.1268 66.8102 41.7117 67.4478L57.608 86.9033L57.7453 87.1963Z" fill="black"/>
<path d="M57.813 60.691C55.8482 60.691 53.928 60.1069 52.2948 59.0128C50.6617 57.9187 49.3893 56.3638 48.639 54.5449C47.8887 52.726 47.6942 50.725 48.08 48.7953C48.4658 46.8656 49.4146 45.094 50.8063 43.7048C52.198 42.3156 53.9699 41.3713 55.8977 40.9916C57.8255 40.6118 59.8223 40.8136 61.6355 41.5715C63.4488 42.3294 64.9969 43.6092 66.0835 45.2488C67.1701 46.8885 67.7464 48.8143 67.7396 50.7823C67.7396 52.0864 67.4828 53.3777 66.9836 54.5822C66.4843 55.7866 65.7524 56.8804 64.8301 57.801C63.9079 58.7216 62.8132 59.4507 61.6091 59.9466C60.4049 60.4425 59.1149 60.6955 57.813 60.691Z" fill="black"/>
<path d="M38.9219 108.955L53.9063 152.709C54.2286 153.642 54.8362 154.45 55.6426 155.018C56.449 155.587 57.4137 155.886 58.3996 155.875C59.3855 155.863 60.3425 155.541 61.1356 154.955C61.9286 154.368 62.5175 153.546 62.8181 152.605L76.7185 108.68L38.9219 108.955Z" fill="black"/>
</svg>
