<svg width="1132" height="1235" viewBox="0 0 1132 1235" fill="none" xmlns="http://www.w3.org/2000/svg">
<path d="M228.736 799.341L275.82 834.626C277.512 835.894 279.482 836.741 281.566 837.095C283.651 837.45 285.79 837.303 287.806 836.665C289.823 836.028 291.659 834.919 293.163 833.431C294.667 831.942 295.796 830.116 296.456 828.104L342.587 688.056C343.344 685.767 343.47 683.315 342.949 680.961C342.428 678.607 341.28 676.438 339.628 674.684C337.975 672.931 335.88 671.658 333.563 671.002C331.247 670.345 328.796 670.329 326.471 670.955L248.199 691.885C246.262 692.405 244.232 692.48 242.262 692.102L94.3874 663.577C92.4937 663.212 90.5432 663.262 88.6706 663.725C86.798 664.188 85.0475 665.052 83.5402 666.257C82.0329 667.463 80.8045 668.981 79.9396 670.708C79.0747 672.435 78.5941 674.329 78.5306 676.26L74.0745 817.883C74.0061 819.966 74.4257 822.037 75.3001 823.928C76.1745 825.819 77.479 827.479 79.1094 828.774C80.7398 830.069 82.6505 830.963 84.6884 831.385C86.7263 831.806 88.8348 831.744 90.8446 831.202L217.335 797.145C219.278 796.626 221.313 796.555 223.287 796.935C225.262 797.315 227.124 798.138 228.736 799.341Z" fill="#F7F7F7"/>
<path d="M413.825 684.549L551.599 763.283C557.594 766.707 564.209 768.903 571.059 769.744C577.91 770.585 584.859 770.054 591.504 768.181C598.149 766.309 604.356 763.133 609.766 758.837C615.175 754.542 619.679 749.213 623.015 743.159L713.984 578.103C719.374 568.314 721.485 557.051 720.007 545.973C718.528 534.894 713.537 524.585 705.769 516.563L645.641 454.387C637.072 445.54 625.656 440.015 613.41 438.788L548.437 432.283C539.045 431.343 529.573 432.975 521.034 437.007C512.495 441.039 505.208 447.318 499.953 455.173L396.325 610.212C392.346 616.169 389.636 622.883 388.361 629.935C387.087 636.988 387.277 644.227 388.919 651.201C390.561 658.176 393.619 664.736 397.904 670.473C402.189 676.211 407.609 681.002 413.825 684.549Z" fill="#FD3E00"/>
<path d="M186.674 865.487L168.642 902.645C166.922 906.168 166.025 910.036 166.018 913.957L165.822 981.474C165.81 986.521 167.263 991.463 170.004 995.698C172.746 999.933 176.657 1003.28 181.262 1005.33L235.776 1029.54C239.265 1031.08 243.053 1031.84 246.87 1031.76C250.686 1031.68 254.438 1030.75 257.857 1029.05C261.277 1027.35 264.281 1024.92 266.656 1021.92C269.03 1018.93 270.716 1015.45 271.595 1011.72L290.833 930.302C291.936 925.642 291.732 920.768 290.246 916.216C288.76 911.665 286.05 907.613 282.412 904.507L226.897 857.111C223.883 854.532 220.318 852.678 216.478 851.692C212.637 850.706 208.622 850.614 204.739 851.422C200.857 852.231 197.21 853.919 194.078 856.357C190.947 858.794 188.414 861.918 186.674 865.487Z" fill="white"/>
<path d="M365.755 711.566L313.33 867.852C311.907 872.098 311.466 876.612 312.041 881.053C312.616 885.495 314.192 889.746 316.65 893.487C319.108 897.227 322.384 900.358 326.229 902.643C330.074 904.928 334.388 906.306 338.844 906.674L742.65 940.24C746.596 940.579 750.57 940.118 754.334 938.885C758.099 937.652 761.577 935.672 764.561 933.063C767.545 930.454 769.974 927.27 771.703 923.7C773.432 920.131 774.425 916.249 774.623 912.287L775.504 894.745C775.847 887.91 773.809 881.169 769.738 875.674C765.668 870.179 759.818 866.271 753.188 864.619L598.49 826.06C594.985 825.182 591.67 823.667 588.711 821.59L410.608 696.771C406.853 694.139 402.537 692.42 398.002 691.751C393.467 691.082 388.839 691.482 384.485 692.918C380.131 694.355 376.171 696.788 372.92 700.025C369.668 703.262 367.215 707.214 365.755 711.566Z" fill="white"/>
<path d="M849.141 311.546L824.278 320.129C820.741 321.348 817.575 323.453 815.08 326.244C812.585 329.035 810.844 332.418 810.023 336.073L768.029 522.706C767.58 524.747 766.837 526.713 765.824 528.541L635.071 764.439C633.455 767.357 632.523 770.606 632.348 773.939C632.173 777.271 632.759 780.6 634.06 783.671C635.362 786.742 637.346 789.476 639.862 791.663C642.377 793.851 645.357 795.435 648.575 796.296L779.827 831.404C785.077 832.807 790.662 832.206 795.496 829.717C800.331 827.228 804.07 823.029 805.989 817.935L899.114 570.963C900.29 567.815 900.739 564.44 900.427 561.094L878.173 330.12C877.849 326.813 876.779 323.623 875.045 320.791C873.311 317.958 870.958 315.558 868.162 313.769C865.367 311.981 862.203 310.852 858.908 310.466C855.613 310.081 852.273 310.451 849.141 311.546Z" fill="#FD3E00"/>
<path d="M711.415 210.527L560.742 252.642C550.248 255.574 541.033 262.269 534.703 271.559C528.373 280.848 525.33 292.143 526.105 303.473L529.533 353.356C530.155 362.414 533.189 371.081 538.29 378.373C543.391 385.665 550.354 391.289 558.387 394.604L639.523 428.17C643.579 429.827 647.381 432.091 650.811 434.891L691.199 467.775C697.193 472.652 704.258 475.888 711.764 477.195C719.27 478.502 726.986 477.839 734.225 475.265C741.465 472.691 748.003 468.286 753.259 462.442C758.515 456.598 762.326 449.495 764.353 441.766L805.374 285.452C808.382 273.94 807.261 261.71 802.223 251.091C797.185 240.473 788.583 232.207 778.055 227.869L740.183 212.258C731.044 208.479 720.965 207.873 711.415 210.527Z" fill="#FD3E00"/>
<path d="M114.752 628.095L233.838 661.588C243.491 664.31 253.718 664.234 263.332 661.368L332.806 640.648C339.927 638.527 346.523 634.93 352.167 630.092C357.811 625.253 362.378 619.281 365.57 612.562L389.841 561.485C395.479 549.629 396.529 536.103 392.787 523.52C389.045 510.938 380.778 500.193 369.584 493.365L304.395 453.626C298.337 449.929 291.599 447.489 284.58 446.45C277.561 445.412 270.406 445.795 263.537 447.579L119.957 484.865C109.466 487.585 100.059 493.462 93.0052 501.704C85.9514 509.945 81.59 520.154 80.5092 530.954L76.4302 571.691C75.1697 584.109 78.3217 596.572 85.331 606.889C92.3403 617.206 102.758 624.715 114.752 628.095Z" fill="#F7F7F7" stroke="#F7F7F7" stroke-width="1.41" stroke-miterlimit="10"/>
<path d="M317.649 953.079L282.991 1077.94C281.007 1085.04 281.032 1092.55 283.061 1099.63C285.091 1106.72 289.046 1113.1 294.485 1118.06L402.789 1216.91C407.783 1221.47 413.858 1224.68 420.437 1226.23C427.016 1227.78 433.882 1227.62 440.384 1225.77C446.887 1223.92 452.811 1220.43 457.594 1215.65C462.378 1210.87 465.863 1204.94 467.72 1198.43L525.963 994.539C527.525 989.099 527.91 983.389 527.092 977.789C526.274 972.189 524.273 966.829 521.221 962.067C518.169 957.305 514.137 953.251 509.395 950.175C504.653 947.099 499.31 945.072 493.723 944.23L361.85 924.402C352.259 922.953 342.469 925.07 334.327 930.353C326.184 935.635 320.252 943.719 317.649 953.079Z" fill="#FD3E00"/>
<path d="M619.569 951.803L811.167 970.988C822.143 972.09 832.286 977.337 839.536 985.663L903.289 1058.9C907.291 1063.51 910.278 1068.91 912.053 1074.76C913.829 1080.6 914.354 1086.75 913.594 1092.81C912.834 1098.88 910.806 1104.71 907.643 1109.93C904.48 1115.16 900.252 1119.65 895.237 1123.13L802.013 1187.86C796.221 1191.88 789.537 1194.43 782.541 1195.28C775.544 1196.14 768.446 1195.27 761.862 1192.75L566.478 1118.15C561.093 1116.1 556.171 1112.99 552.001 1109C547.831 1105.02 544.495 1100.24 542.189 1094.95C539.883 1089.66 538.654 1083.97 538.572 1078.19C538.49 1072.42 539.558 1066.69 541.713 1061.34L574.971 978.784C578.483 970.054 584.731 962.703 592.775 957.837C600.818 952.971 610.222 950.853 619.569 951.803Z" fill="#F7F7F7"/>
<path d="M108.219 857.145L79.7122 860.792C73.2694 861.623 67.2455 864.514 62.5163 869.046C57.7871 873.577 54.5995 879.513 53.4167 885.989L12.3461 1111.06C11.1243 1117.77 12.1228 1124.69 15.1863 1130.74C18.2498 1136.79 23.2065 1141.64 29.2844 1144.52L161.118 1207.08C165.2 1209.02 169.662 1210.01 174.179 1209.98C178.696 1209.96 183.156 1208.91 187.236 1206.92C191.315 1204.94 194.912 1202.06 197.767 1198.49C200.622 1194.93 202.662 1190.77 203.741 1186.32L227.568 1087.93C229.136 1081.46 228.6 1074.65 226.041 1068.53C223.482 1062.41 219.036 1057.3 213.365 1053.96L141.185 1011.53C135.809 1008.36 131.531 1003.58 128.929 997.85C126.327 992.118 125.525 985.706 126.632 979.479L141.896 893.064C142.735 888.302 142.46 883.414 141.096 878.791C139.731 874.168 137.314 869.939 134.038 866.446C130.763 862.952 126.721 860.291 122.236 858.676C117.752 857.06 112.951 856.536 108.219 857.145Z" fill="#F7F7F7" stroke="#F7F7F7" stroke-width="1.63" stroke-miterlimit="10"/>
<path d="M904.993 649.369L840.113 798.612C836.311 807.321 834.377 816.734 834.439 826.238C834.5 835.743 836.554 845.128 840.469 853.785C844.383 862.443 850.07 870.179 857.162 876.493C864.253 882.806 872.59 887.557 881.633 890.436L1042.01 941.726C1058.37 946.958 1075.39 935.788 1077.1 918.699L1110.48 585.346C1110.87 581.237 1110.21 577.096 1108.56 573.315C1106.91 569.535 1104.32 566.24 1101.04 563.744C1097.76 561.247 1093.89 559.632 1089.81 559.051C1085.73 558.471 1081.57 558.944 1077.72 560.425L942.571 613.178C934.233 616.427 926.619 621.298 920.169 627.509C913.719 633.721 908.561 641.151 904.993 649.369Z" fill="#F7F7F7"/>
<path d="M876.031 1004.29L945.959 1079.18C950.05 1083.56 952.755 1089.05 953.735 1094.96L967.191 1176.19C968.1 1181.69 970.502 1186.83 974.134 1191.05C977.766 1195.28 982.488 1198.42 987.786 1200.15L1038.09 1216.48C1042.43 1217.89 1047.03 1218.31 1051.56 1217.7C1056.08 1217.09 1060.41 1215.47 1064.22 1212.96C1068.03 1210.45 1071.23 1207.11 1073.57 1203.2C1075.92 1199.28 1077.35 1194.89 1077.77 1190.35L1094.3 1011C1094.94 1004.03 1093.16 997.05 1089.26 991.241C1085.35 985.432 1079.57 981.147 1072.87 979.108L911.658 930.028C907.562 928.783 903.25 928.416 899.002 928.951C894.755 929.487 890.668 930.912 887.009 933.135C883.35 935.358 880.201 938.328 877.768 941.851C875.335 945.373 873.672 949.37 872.889 953.579L868.374 977.979C867.504 982.659 867.743 987.477 869.073 992.047C870.402 996.618 872.785 1000.81 876.031 1004.29Z" fill="#F7F7F7"/>
<path d="M1012.71 561.312C1005.48 562.562 997.753 562.649 990.104 561.565C982.454 560.482 975.08 558.255 968.531 555.053C961.982 551.851 956.428 547.755 952.283 543.071C948.139 538.388 945.51 533.238 944.595 528.005L871.248 108.149C870.121 101.665 871.66 95.2885 875.691 89.7394C879.722 84.1903 886.086 79.689 894.064 76.7432L1029.86 26.732C1037.88 23.7826 1047.2 22.5227 1056.76 23.096C1066.33 23.6692 1075.75 26.0524 1083.95 29.974C1092.16 33.8957 1098.82 39.198 1103.18 45.2768C1107.53 51.3555 1109.41 57.9661 1108.59 64.3552L1046.12 534.33C1045.26 540.812 1041.66 546.793 1035.74 551.572C1029.82 556.352 1021.83 559.73 1012.71 561.312Z" fill="#F7F7F7" stroke="#F7F7F7" stroke-width="1.06" stroke-miterlimit="10"/>
</svg>
