<svg width="432" height="512" viewBox="0 0 432 512" fill="none" xmlns="http://www.w3.org/2000/svg">
<path d="M283.395 24.2646L215.117 48.2256C210.361 49.8947 206.377 53.0849 203.858 57.2402C201.339 61.3956 200.446 66.2527 201.335 70.9653L205.261 91.7452C205.971 95.5072 207.786 99.0059 210.499 101.844C213.212 104.681 216.715 106.744 220.61 107.798L260.016 118.434C261.982 118.969 263.859 119.762 265.592 120.788L285.963 132.862C288.986 134.656 292.432 135.717 295.995 135.951C299.558 136.185 303.127 135.584 306.384 134.203C309.642 132.822 312.487 130.703 314.666 128.034C316.845 125.365 318.291 122.23 318.875 118.907L330.705 51.7217C331.581 46.767 330.49 41.6817 327.641 37.4378C324.792 33.1938 320.385 30.0888 315.262 28.7161L296.875 23.7919C292.442 22.5933 287.72 22.7588 283.395 24.2646Z" fill="#F7F7F7" stroke="#F7F7F7" stroke-width="1.06" stroke-miterlimit="10"/>
<path d="M79.3575 327.934L103.749 341.763C104.628 342.26 105.619 342.553 106.641 342.618C107.663 342.682 108.687 342.517 109.628 342.135C110.569 341.754 111.4 341.166 112.052 340.422C112.704 339.678 113.158 338.799 113.377 337.857L128.847 272.391C129.099 271.323 129.039 270.21 128.675 269.171C128.311 268.132 127.655 267.205 126.777 266.487C125.899 265.77 124.832 265.289 123.688 265.096C122.544 264.902 121.365 265.003 120.277 265.388L83.5076 278.446C82.5977 278.768 81.623 278.895 80.6544 278.817L8.02873 272.606C7.09985 272.526 6.16364 272.637 5.28478 272.931C4.40593 273.225 3.60539 273.695 2.93849 274.309C2.27159 274.923 1.75422 275.666 1.42215 276.486C1.09008 277.307 0.951215 278.186 1.01516 279.061L5.69433 343.336C5.76394 344.282 6.06747 345.199 6.58068 346.015C7.09389 346.831 7.80258 347.523 8.65022 348.035C9.49785 348.548 10.461 348.867 11.4627 348.966C12.4644 349.066 13.4771 348.944 14.4198 348.61L73.7031 327.455C74.6223 327.125 75.6093 326.997 76.589 327.08C77.5688 327.163 78.5156 327.455 79.3575 327.934Z" fill="#F7F7F7" stroke="#F7F7F7" stroke-width="1.06" stroke-miterlimit="10" stroke-dasharray="13.6 13.6"/>
<path d="M161.924 256.304L231.891 285.933C234.934 287.222 238.216 287.923 241.546 287.994C244.876 288.065 248.188 287.505 251.288 286.346C254.389 285.188 257.217 283.454 259.608 281.246C261.998 279.037 263.904 276.398 265.214 273.482L300.968 193.972C303.088 189.261 303.564 184.026 302.326 179.038C301.087 174.05 298.2 169.573 294.088 166.264L262.213 140.654C257.678 137.003 251.931 134.999 245.992 135H214.458C209.903 135 205.432 136.178 201.526 138.409C197.619 140.64 194.422 143.84 192.277 147.667L149.964 223.158C148.337 226.059 147.355 229.248 147.08 232.526C146.805 235.803 147.242 239.1 148.364 242.21C149.486 245.32 151.269 248.177 153.602 250.602C155.935 253.026 158.768 254.967 161.924 256.304Z" fill="#F7F7F7" stroke="#F7F7F7" stroke-width="1.06" stroke-miterlimit="10"/>
<path d="M65.666 350.795L58.7745 368.519C58.1199 370.208 57.8755 372.015 58.0594 373.806L61.2202 404.695C61.4564 407 62.3935 409.19 63.9171 410.998C65.4407 412.806 67.4851 414.153 69.8009 414.876L97.1906 423.403C98.9449 423.951 100.805 424.125 102.637 423.912C104.47 423.699 106.232 423.106 107.796 422.173C109.36 421.241 110.689 419.992 111.687 418.517C112.686 417.041 113.331 415.375 113.575 413.635L118.891 375.589C119.195 373.412 118.861 371.198 117.927 369.19C116.993 367.182 115.494 365.458 113.595 364.206L84.5787 345.104C83.0023 344.073 81.1992 343.398 79.3068 343.13C77.4143 342.862 75.4824 343.009 73.6583 343.557C71.8342 344.106 70.1661 345.044 68.7811 346.298C67.396 347.552 66.3306 349.09 65.666 350.795Z" fill="#FD3E00"/>
<path d="M143.093 276.552L125.356 350.415C124.876 352.418 124.881 354.499 125.372 356.5C125.862 358.501 126.824 360.37 128.185 361.967C129.547 363.564 131.273 364.846 133.232 365.718C135.192 366.59 137.334 367.027 139.498 366.999L335.945 363.852C337.861 363.822 339.751 363.427 341.503 362.689C343.255 361.952 344.833 360.888 346.142 359.559C347.452 358.231 348.467 356.666 349.127 354.958C349.786 353.25 350.077 351.433 349.982 349.616L349.556 341.546C349.385 338.418 348.078 335.443 345.858 333.127C343.638 330.81 340.642 329.295 337.378 328.839L260.892 318.283C259.162 318.043 257.493 317.505 255.967 316.695L164.02 267.732C162.081 266.701 159.916 266.113 157.696 266.015C155.476 265.917 153.262 266.311 151.231 267.167C149.199 268.024 147.406 269.317 145.994 270.946C144.581 272.575 143.588 274.495 143.093 276.552Z" fill="#FD3E00"/>
<path d="M353.112 74.9059L341.559 79.9778C339.923 80.6933 338.506 81.7935 337.441 83.1746C336.376 84.5557 335.698 86.1723 335.471 87.8717L324.251 175.149C324.125 176.103 323.86 177.037 323.462 177.921L271.879 291.84C271.236 293.248 270.939 294.776 271.01 296.309C271.082 297.842 271.519 299.34 272.29 300.688C273.061 302.036 274.145 303.199 275.459 304.089C276.773 304.978 278.284 305.571 279.875 305.822L344.764 315.867C347.359 316.272 350.02 315.744 352.228 314.385C354.436 313.026 356.034 310.934 356.71 308.516L389.637 191.292C390.061 189.801 390.114 188.237 389.792 186.723L367.911 82.1289C367.599 80.6359 366.937 79.2294 365.973 78.0144C365.01 76.7994 363.77 75.8074 362.347 75.1127C360.923 74.418 359.353 74.0386 357.754 74.0028C356.155 73.967 354.568 74.2757 353.112 74.9059Z" fill="#FD3E00"/>
<path d="M22.6965 250.989L74.689 259.678C78.8926 260.377 83.219 259.932 87.1673 258.394L115.794 247.277C118.727 246.137 121.375 244.425 123.566 242.251C125.757 240.078 127.442 237.491 128.512 234.659L136.654 213.125C138.56 208.118 138.438 202.618 136.313 197.692C134.188 192.765 130.21 188.765 125.153 186.467L95.8084 173.118C93.078 171.872 90.1115 171.16 87.0854 171.024C84.0593 170.888 81.0353 171.332 78.1933 172.328L18.7867 193.121C14.4468 194.64 10.7021 197.387 8.05795 200.991C5.4138 204.594 3.99744 208.881 4 213.273V229.84C3.99814 234.891 5.87181 239.78 9.29147 243.648C12.7111 247.516 17.4578 250.116 22.6965 250.989Z" fill="#F7F7F7" stroke="#F7F7F7" stroke-width="1.06" stroke-miterlimit="10"/>
<path d="M396.664 236.022L368.832 320.089C368.162 322.131 367.893 324.273 368.038 326.408L369.873 353.087C370.03 355.409 370.679 357.676 371.781 359.752C372.883 361.828 374.415 363.669 376.284 365.164L402.271 385.958C404.909 388.07 408.124 389.421 411.54 389.851C414.955 390.282 418.428 389.773 421.551 388.386C424.673 386.999 427.316 384.79 429.167 382.021C431.018 379.251 432.001 376.035 432 372.751V241.211C431.995 238.682 431.406 236.186 430.276 233.899C429.147 231.612 427.503 229.589 425.462 227.975C423.421 226.36 421.033 225.193 418.467 224.556C415.9 223.919 413.218 223.828 410.611 224.289C407.389 224.858 404.39 226.25 401.934 228.316C399.478 230.382 397.656 233.046 396.664 236.022Z" fill="#F7F7F7" stroke="#F7F7F7" stroke-width="1.06" stroke-miterlimit="10"/>
<path d="M424.307 198.815C422.486 199.619 420.496 200.023 418.486 199.999C416.476 199.975 414.497 199.522 412.698 198.674C410.9 197.827 409.327 196.606 408.097 195.104C406.868 193.602 406.013 191.858 405.598 190L372.287 40.9472C371.774 38.645 371.952 36.2533 372.801 34.0418C373.651 31.8302 375.138 29.8868 377.095 28.4307L410.406 3.6939C412.372 2.23474 414.733 1.32659 417.219 1.07293C419.705 0.819271 422.217 1.2303 424.468 2.25921C426.719 3.28812 428.618 4.89351 429.95 6.89241C431.282 8.89131 431.992 11.2033 432 13.5649V187.394C432.001 189.792 431.277 192.139 429.914 194.162C428.552 196.185 426.607 197.799 424.307 198.815Z" fill="#F7F7F7" stroke="#F7F7F7" stroke-width="1.06" stroke-miterlimit="10"/>
<path d="M128.902 390.222L118.278 449.126C117.678 452.466 118.055 455.9 119.367 459.047C120.679 462.193 122.875 464.93 125.711 466.951L182.374 507.376C184.986 509.239 188.051 510.432 191.279 510.842C194.507 511.251 197.79 510.863 200.818 509.715C203.846 508.566 206.517 506.695 208.58 504.279C210.643 501.863 212.028 498.981 212.605 495.908L230.694 399.65C231.179 397.082 231.087 394.444 230.424 391.912C229.761 389.381 228.543 387.014 226.85 384.971C225.157 382.927 223.029 381.254 220.608 380.062C218.187 378.871 215.529 378.188 212.811 378.061L148.653 375.021C143.994 374.808 139.415 376.236 135.778 379.036C132.14 381.835 129.695 385.814 128.902 390.222Z" fill="#F7F7F7" stroke="#F7F7F7" stroke-width="1.06" stroke-miterlimit="10"/>
<path d="M277.943 383H370.908C376.234 382.999 381.36 384.944 385.243 388.439L419.398 419.207C421.545 421.141 423.242 423.488 424.378 426.094C425.515 428.701 426.065 431.507 425.994 434.331C425.923 437.155 425.231 439.933 423.964 442.483C422.698 445.033 420.884 447.299 418.643 449.131L376.963 483.194C374.375 485.313 371.287 486.795 367.966 487.511C364.646 488.227 361.194 488.156 357.908 487.303L260.462 462.024C257.776 461.326 255.261 460.121 253.066 458.48C250.871 456.839 249.039 454.795 247.677 452.467C246.315 450.139 245.451 447.574 245.135 444.923C244.819 442.271 245.058 439.585 245.837 437.023L257.833 397.511C259.095 393.33 261.738 389.655 265.364 387.039C268.991 384.422 273.405 383.005 277.943 383Z" fill="#F7F7F7"/>
<path d="M23.7747 361.632L10.9781 365.479C8.08366 366.348 5.55442 368.081 3.75941 370.425C1.96441 372.77 0.997579 375.603 1 378.512V479.613C1.00664 482.619 2.0478 485.538 3.96182 487.918C5.87584 490.297 8.5556 492.004 11.585 492.774L77.4196 509.545C79.4601 510.063 81.5952 510.14 83.6704 509.769C85.7456 509.399 87.7088 508.59 89.4181 507.402C91.1273 506.214 92.5398 504.677 93.5531 502.901C94.5665 501.125 95.1554 499.155 95.2772 497.134L97.9723 452.493C98.1638 449.555 97.3585 446.636 95.6767 444.173C93.995 441.71 91.5272 439.835 88.6423 438.829L51.8984 426.103C49.1561 425.154 46.7833 423.421 45.1002 421.139C43.4171 418.856 42.5047 416.133 42.4861 413.337L42.2804 374.585C42.2708 372.447 41.7373 370.341 40.723 368.437C39.7087 366.533 38.2419 364.884 36.441 363.623C34.6401 362.363 32.5555 361.526 30.3553 361.18C28.1551 360.834 25.9009 360.989 23.7747 361.632Z" fill="#F7F7F7" stroke="#F7F7F7" stroke-width="1.22" stroke-miterlimit="10"/>
</svg>
