<svg width="35" height="129" viewBox="0 0 35 129" fill="none" xmlns="http://www.w3.org/2000/svg">
<path d="M25.1644 0H9.02306C4.03973 0 0 4.03977 0 9.0231V71.0821C0 76.0655 4.03973 80.1053 9.02306 80.1053H25.1644C30.1478 80.1053 34.1876 76.0655 34.1876 71.0821V9.0231C34.1876 4.03977 30.1478 0 25.1644 0Z" fill="black"/>
<path d="M17.0914 48.9486C22.1578 48.9486 26.2649 44.8415 26.2649 39.7751C26.2649 34.7087 22.1578 30.6016 17.0914 30.6016C12.025 30.6016 7.91797 34.7087 7.91797 39.7751C7.91797 44.8415 12.025 48.9486 17.0914 48.9486Z" fill="#FFDA3E"/>
<path d="M20.3527 67.2969H13.8359V128.604H20.3527V67.2969Z" fill="black"/>
<path d="M17.0914 26.5189C22.1578 26.5189 26.2649 22.4118 26.2649 17.3454C26.2649 12.279 22.1578 8.17188 17.0914 8.17188C12.025 8.17188 7.91797 12.279 7.91797 17.3454C7.91797 22.4118 12.025 26.5189 17.0914 26.5189Z" fill="#85E08B"/>
<path d="M17.0914 71.3704C22.1578 71.3704 26.2649 67.2633 26.2649 62.197C26.2649 57.1306 22.1578 53.0234 17.0914 53.0234C12.025 53.0234 7.91797 57.1306 7.91797 62.197C7.91797 67.2633 12.025 71.3704 17.0914 71.3704Z" fill="#FF4848"/>
</svg>
