<svg width="252" height="248" viewBox="0 0 252 248" fill="none" xmlns="http://www.w3.org/2000/svg">
<path d="M95.084 28.932C95.6627 29.0627 96.12 29.352 96.456 29.8C96.8013 30.2387 96.974 30.7427 96.974 31.312C96.974 32.152 96.6847 32.81 96.106 33.286C95.5273 33.762 94.7153 34 93.67 34H88.784V24.13H93.516C94.524 24.13 95.3127 24.354 95.882 24.802C96.4607 25.25 96.75 25.88 96.75 26.692C96.75 27.2707 96.596 27.756 96.288 28.148C95.9893 28.5307 95.588 28.792 95.084 28.932ZM91.528 28.05H92.914C93.6047 28.05 93.95 27.7653 93.95 27.196C93.95 26.608 93.6047 26.314 92.914 26.314H91.528V28.05ZM93.124 31.788C93.8147 31.788 94.16 31.4987 94.16 30.92C94.16 30.6213 94.0667 30.3927 93.88 30.234C93.7027 30.0753 93.446 29.996 93.11 29.996H91.528V31.788H93.124ZM104.421 32.39H100.921L100.389 34H97.5046L101.103 24.13H104.267L107.851 34H104.953L104.421 32.39ZM103.735 30.29L102.671 27.098L101.621 30.29H103.735ZM117.887 34H115.143L111.489 28.484V34H108.745V24.13H111.489L115.143 29.716V24.13H117.887V34ZM125.75 27.378C125.591 27.1167 125.372 26.916 125.092 26.776C124.821 26.636 124.499 26.566 124.126 26.566C123.435 26.566 122.889 26.79 122.488 27.238C122.096 27.686 121.9 28.288 121.9 29.044C121.9 29.8933 122.11 30.542 122.53 30.99C122.959 31.4287 123.58 31.648 124.392 31.648C125.353 31.648 126.039 31.214 126.45 30.346H123.692V28.372H128.816V31.032C128.601 31.5547 128.284 32.0447 127.864 32.502C127.453 32.9593 126.931 33.3373 126.296 33.636C125.661 33.9253 124.938 34.07 124.126 34.07C123.137 34.07 122.259 33.86 121.494 33.44C120.738 33.0107 120.15 32.418 119.73 31.662C119.319 30.8967 119.114 30.024 119.114 29.044C119.114 28.0733 119.319 27.21 119.73 26.454C120.15 25.6887 120.738 25.096 121.494 24.676C122.25 24.2467 123.123 24.032 124.112 24.032C125.353 24.032 126.38 24.3307 127.192 24.928C128.004 25.5253 128.508 26.342 128.704 27.378H125.75ZM135.884 34L132.79 29.674V34H130.046V24.13H132.79V28.386L135.856 24.13H139.02L135.394 28.918L139.202 34H135.884ZM144.936 34.098C144.012 34.098 143.163 33.8833 142.388 33.454C141.613 33.0153 140.997 32.4133 140.54 31.648C140.092 30.8733 139.868 30.0007 139.868 29.03C139.868 28.0593 140.092 27.1913 140.54 26.426C140.997 25.6513 141.613 25.0493 142.388 24.62C143.163 24.1907 144.012 23.976 144.936 23.976C145.869 23.976 146.719 24.1907 147.484 24.62C148.259 25.0493 148.87 25.6513 149.318 26.426C149.766 27.1913 149.99 28.0593 149.99 29.03C149.99 30.0007 149.766 30.8733 149.318 31.648C148.87 32.4133 148.259 33.0153 147.484 33.454C146.709 33.8833 145.86 34.098 144.936 34.098ZM144.936 31.55C145.636 31.55 146.187 31.3213 146.588 30.864C146.999 30.4067 147.204 29.7953 147.204 29.03C147.204 28.246 146.999 27.63 146.588 27.182C146.187 26.7247 145.636 26.496 144.936 26.496C144.227 26.496 143.671 26.7247 143.27 27.182C142.869 27.63 142.668 28.246 142.668 29.03C142.668 29.8047 142.869 30.4207 143.27 30.878C143.671 31.326 144.227 31.55 144.936 31.55ZM157.061 34L153.967 29.674V34H151.223V24.13H153.967V28.386L157.033 24.13H160.197L156.571 28.918L160.379 34H157.061Z" fill="black"/>
<path d="M108.172 49.098C107.528 49.098 106.949 48.986 106.436 48.762C105.932 48.5287 105.535 48.2113 105.246 47.81C104.957 47.3993 104.807 46.928 104.798 46.396H106.156C106.203 46.8533 106.389 47.2407 106.716 47.558C107.052 47.866 107.537 48.02 108.172 48.02C108.779 48.02 109.255 47.8707 109.6 47.572C109.955 47.264 110.132 46.872 110.132 46.396C110.132 46.0227 110.029 45.7193 109.824 45.486C109.619 45.2527 109.362 45.0753 109.054 44.954C108.746 44.8327 108.331 44.702 107.808 44.562C107.164 44.394 106.646 44.226 106.254 44.058C105.871 43.89 105.54 43.6287 105.26 43.274C104.989 42.91 104.854 42.4247 104.854 41.818C104.854 41.286 104.989 40.8147 105.26 40.404C105.531 39.9933 105.909 39.676 106.394 39.452C106.889 39.228 107.453 39.116 108.088 39.116C109.003 39.116 109.749 39.3447 110.328 39.802C110.916 40.2593 111.247 40.866 111.322 41.622H109.922C109.875 41.2487 109.679 40.922 109.334 40.642C108.989 40.3527 108.531 40.208 107.962 40.208C107.43 40.208 106.996 40.348 106.66 40.628C106.324 40.8987 106.156 41.2813 106.156 41.776C106.156 42.1307 106.254 42.42 106.45 42.644C106.655 42.868 106.903 43.0407 107.192 43.162C107.491 43.274 107.906 43.4047 108.438 43.554C109.082 43.7313 109.6 43.9087 109.992 44.086C110.384 44.254 110.72 44.52 111 44.884C111.28 45.2387 111.42 45.724 111.42 46.34C111.42 46.816 111.294 47.264 111.042 47.684C110.79 48.104 110.417 48.4447 109.922 48.706C109.427 48.9673 108.844 49.098 108.172 49.098ZM123.193 39.312V49H121.919V41.776L118.699 49H117.803L114.569 41.762V49H113.295V39.312H114.667L118.251 47.32L121.835 39.312H123.193ZM129.777 49.098C128.872 49.098 128.046 48.888 127.299 48.468C126.553 48.0387 125.96 47.446 125.521 46.69C125.092 45.9247 124.877 45.066 124.877 44.114C124.877 43.162 125.092 42.308 125.521 41.552C125.96 40.7867 126.553 40.194 127.299 39.774C128.046 39.3447 128.872 39.13 129.777 39.13C130.692 39.13 131.523 39.3447 132.269 39.774C133.016 40.194 133.604 40.782 134.033 41.538C134.463 42.294 134.677 43.1527 134.677 44.114C134.677 45.0753 134.463 45.934 134.033 46.69C133.604 47.446 133.016 48.0387 132.269 48.468C131.523 48.888 130.692 49.098 129.777 49.098ZM129.777 47.992C130.459 47.992 131.07 47.8333 131.611 47.516C132.162 47.1987 132.591 46.746 132.899 46.158C133.217 45.57 133.375 44.8887 133.375 44.114C133.375 43.33 133.217 42.6487 132.899 42.07C132.591 41.482 132.167 41.0293 131.625 40.712C131.084 40.3947 130.468 40.236 129.777 40.236C129.087 40.236 128.471 40.3947 127.929 40.712C127.388 41.0293 126.959 41.482 126.641 42.07C126.333 42.6487 126.179 43.33 126.179 44.114C126.179 44.8887 126.333 45.57 126.641 46.158C126.959 46.746 127.388 47.1987 127.929 47.516C128.48 47.8333 129.096 47.992 129.777 47.992ZM143.751 42.07C143.481 41.5007 143.089 41.062 142.575 40.754C142.062 40.4367 141.465 40.278 140.783 40.278C140.102 40.278 139.486 40.4367 138.935 40.754C138.394 41.062 137.965 41.51 137.647 42.098C137.339 42.6767 137.185 43.3487 137.185 44.114C137.185 44.8793 137.339 45.5513 137.647 46.13C137.965 46.7087 138.394 47.1567 138.935 47.474C139.486 47.782 140.102 47.936 140.783 47.936C141.735 47.936 142.519 47.6513 143.135 47.082C143.751 46.5127 144.111 45.7427 144.213 44.772H140.321V43.736H145.571V44.716C145.497 45.5187 145.245 46.256 144.815 46.928C144.386 47.5907 143.821 48.118 143.121 48.51C142.421 48.8927 141.642 49.084 140.783 49.084C139.878 49.084 139.052 48.874 138.305 48.454C137.559 48.0247 136.966 47.432 136.527 46.676C136.098 45.92 135.883 45.066 135.883 44.114C135.883 43.162 136.098 42.308 136.527 41.552C136.966 40.7867 137.559 40.194 138.305 39.774C139.052 39.3447 139.878 39.13 140.783 39.13C141.819 39.13 142.734 39.3867 143.527 39.9C144.33 40.4133 144.913 41.1367 145.277 42.07H143.751Z" fill="black"/>
<path d="M117.49 143.984C122.488 142.082 126.525 146.829 131.024 148.962C136.417 151.51 142.318 153.126 148.172 150.974C154.205 148.758 159.955 140.448 164.454 136.523C170.6 131.168 175.362 132.904 182.336 128.933C194.241 122.146 199.352 115.175 195.982 103.762C193.046 93.8261 179.653 92.2101 173.743 89.8555C167.541 87.3808 167.635 81.8497 162.647 77.6021C156.812 72.6435 150.685 69.3933 142.883 70.0951C137.151 70.6122 132.709 73.7056 127.137 74.7675C121.566 75.8294 116.389 74.1396 110.677 75.4415C104.088 76.9467 99.9098 79.7907 96.2864 85.5988C93.9617 89.2923 92.4465 92.5056 89.9618 96.0698C88.0042 98.84 80.9362 100.437 76.1552 103.632C67.6848 109.33 64.5696 110.789 59.6662 120.77C55.0546 130.17 54.3393 139.552 60.1556 157.457C63.4497 167.614 67.299 175.333 67.6848 178.694C68.0236 181.465 71.0353 181.862 71.9671 179.212C74.7246 171.354 71.5341 155.453 76.6728 147.336C79.4963 142.913 84.0985 140.513 89.0489 139.617C91.161 139.277 93.3221 139.373 95.3945 139.897C97.4669 140.422 99.4053 141.364 101.086 142.664C104.126 144.871 109.51 147.041 117.49 143.984Z" fill="#282828"/>
<path d="M61.5306 230.787C63.9778 217.794 65.1968 203.499 64.4086 184H74.0782C73.5924 201.481 74.1973 215.342 77.2586 230.702L79 238H60L61.5306 230.787Z" fill="#606060"/>
<path d="M170 154V238H83V196.071L112.302 174.283V190.344L134.959 174.283V193.137L158.521 173.117L164.816 154H170Z" fill="#606060"/>
<path d="M106 203H90V211H106V203Z" fill="white"/>
<path d="M125 203H113V211H125V203Z" fill="white"/>
<path d="M147 203H132V211H147V203Z" fill="white"/>
</svg>
