<svg width="252" height="248" viewBox="0 0 252 248" fill="none" xmlns="http://www.w3.org/2000/svg">
<path d="M94.51 28.988C95.0607 29.0907 95.5133 29.366 95.868 29.814C96.2227 30.262 96.4 30.7753 96.4 31.354C96.4 31.8767 96.2693 32.3387 96.008 32.74C95.756 33.132 95.3873 33.44 94.902 33.664C94.4167 33.888 93.8427 34 93.18 34H88.966V24.228H92.998C93.6607 24.228 94.23 24.3353 94.706 24.55C95.1913 24.7647 95.5553 25.0633 95.798 25.446C96.05 25.8287 96.176 26.2627 96.176 26.748C96.176 27.3173 96.022 27.7933 95.714 28.176C95.4153 28.5587 95.014 28.8293 94.51 28.988ZM90.926 28.26H92.718C93.1847 28.26 93.544 28.1573 93.796 27.952C94.048 27.7373 94.174 27.434 94.174 27.042C94.174 26.65 94.048 26.3467 93.796 26.132C93.544 25.9173 93.1847 25.81 92.718 25.81H90.926V28.26ZM92.9 32.404C93.376 32.404 93.7447 32.292 94.006 32.068C94.2767 31.844 94.412 31.5267 94.412 31.116C94.412 30.696 94.272 30.3693 93.992 30.136C93.712 29.8933 93.334 29.772 92.858 29.772H90.926V32.404H92.9ZM103.954 32.138H100.062L99.4181 34H97.3601L100.874 24.214H103.156L106.67 34H104.598L103.954 32.138ZM103.422 30.57L102.008 26.482L100.594 30.57H103.422ZM116.342 34H114.382L109.944 27.294V34H107.984V24.214H109.944L114.382 30.934V24.214H116.342V34ZM125.083 27.168C124.859 26.7573 124.551 26.4447 124.159 26.23C123.767 26.0153 123.309 25.908 122.787 25.908C122.208 25.908 121.695 26.0387 121.247 26.3C120.799 26.5613 120.449 26.9347 120.197 27.42C119.945 27.9053 119.819 28.4653 119.819 29.1C119.819 29.7533 119.945 30.3227 120.197 30.808C120.458 31.2933 120.817 31.6667 121.275 31.928C121.732 32.1893 122.264 32.32 122.871 32.32C123.617 32.32 124.229 32.124 124.704 31.732C125.181 31.3307 125.493 30.7753 125.643 30.066H122.283V28.568H127.575V30.276C127.444 30.9573 127.164 31.5873 126.735 32.166C126.305 32.7447 125.75 33.2113 125.069 33.566C124.397 33.9113 123.641 34.084 122.801 34.084C121.858 34.084 121.004 33.874 120.239 33.454C119.483 33.0247 118.885 32.432 118.447 31.676C118.017 30.92 117.803 30.0613 117.803 29.1C117.803 28.1387 118.017 27.28 118.447 26.524C118.885 25.7587 119.483 25.166 120.239 24.746C121.004 24.3167 121.853 24.102 122.787 24.102C123.888 24.102 124.845 24.3727 125.657 24.914C126.469 25.446 127.029 26.1973 127.337 27.168H125.083ZM134.541 34L130.985 29.646V34H129.025V24.228H130.985V28.61L134.541 24.228H136.907L132.875 29.072L137.019 34H134.541ZM142.844 34.098C141.929 34.098 141.089 33.8833 140.324 33.454C139.558 33.0247 138.952 32.432 138.504 31.676C138.056 30.9107 137.832 30.0473 137.832 29.086C137.832 28.134 138.056 27.28 138.504 26.524C138.952 25.7587 139.558 25.1613 140.324 24.732C141.089 24.3027 141.929 24.088 142.844 24.088C143.768 24.088 144.608 24.3027 145.364 24.732C146.129 25.1613 146.731 25.7587 147.17 26.524C147.618 27.28 147.842 28.134 147.842 29.086C147.842 30.0473 147.618 30.9107 147.17 31.676C146.731 32.432 146.129 33.0247 145.364 33.454C144.598 33.8833 143.758 34.098 142.844 34.098ZM142.844 32.348C143.432 32.348 143.95 32.2173 144.398 31.956C144.846 31.6853 145.196 31.3027 145.448 30.808C145.7 30.3133 145.826 29.7393 145.826 29.086C145.826 28.4327 145.7 27.8633 145.448 27.378C145.196 26.8833 144.846 26.5053 144.398 26.244C143.95 25.9827 143.432 25.852 142.844 25.852C142.256 25.852 141.733 25.9827 141.276 26.244C140.828 26.5053 140.478 26.8833 140.226 27.378C139.974 27.8633 139.848 28.4327 139.848 29.086C139.848 29.7393 139.974 30.3133 140.226 30.808C140.478 31.3027 140.828 31.6853 141.276 31.956C141.733 32.2173 142.256 32.348 142.844 32.348ZM154.816 34L151.26 29.646V34H149.3V24.228H151.26V28.61L154.816 24.228H157.182L153.15 29.072L157.294 34H154.816Z" fill="black"/>
<path d="M111.116 39.242C112.18 39.242 113.099 39.4427 113.874 39.844C114.658 40.236 115.255 40.8007 115.666 41.538C116.086 42.2753 116.296 43.1433 116.296 44.142C116.296 45.1407 116.086 46.0087 115.666 46.746C115.255 47.474 114.658 48.034 113.874 48.426C113.099 48.8087 112.18 49 111.116 49H108.078V39.242H111.116ZM111.116 47.95C112.376 47.95 113.337 47.6187 114 46.956C114.663 46.284 114.994 45.346 114.994 44.142C114.994 42.9287 114.658 41.9813 113.986 41.3C113.323 40.6187 112.367 40.278 111.116 40.278H109.352V47.95H111.116ZM119.222 39.242V45.416C119.222 46.284 119.432 46.928 119.852 47.348C120.282 47.768 120.874 47.978 121.63 47.978C122.377 47.978 122.96 47.768 123.38 47.348C123.81 46.928 124.024 46.284 124.024 45.416V39.242H125.298V45.402C125.298 46.214 125.135 46.9 124.808 47.46C124.482 48.0107 124.038 48.4213 123.478 48.692C122.928 48.9627 122.307 49.098 121.616 49.098C120.926 49.098 120.3 48.9627 119.74 48.692C119.19 48.4213 118.751 48.0107 118.424 47.46C118.107 46.9 117.948 46.214 117.948 45.402V39.242H119.222ZM130.518 49.098C129.874 49.098 129.295 48.986 128.782 48.762C128.278 48.5287 127.881 48.2113 127.592 47.81C127.302 47.3993 127.153 46.928 127.144 46.396H128.502C128.548 46.8533 128.735 47.2407 129.062 47.558C129.398 47.866 129.883 48.02 130.518 48.02C131.124 48.02 131.6 47.8707 131.946 47.572C132.3 47.264 132.478 46.872 132.478 46.396C132.478 46.0227 132.375 45.7193 132.17 45.486C131.964 45.2527 131.708 45.0753 131.4 44.954C131.092 44.8327 130.676 44.702 130.154 44.562C129.51 44.394 128.992 44.226 128.6 44.058C128.217 43.89 127.886 43.6287 127.606 43.274C127.335 42.91 127.2 42.4247 127.2 41.818C127.2 41.286 127.335 40.8147 127.606 40.404C127.876 39.9933 128.254 39.676 128.74 39.452C129.234 39.228 129.799 39.116 130.434 39.116C131.348 39.116 132.095 39.3447 132.674 39.802C133.262 40.2593 133.593 40.866 133.668 41.622H132.268C132.221 41.2487 132.025 40.922 131.68 40.642C131.334 40.3527 130.877 40.208 130.308 40.208C129.776 40.208 129.342 40.348 129.006 40.628C128.67 40.8987 128.502 41.2813 128.502 41.776C128.502 42.1307 128.6 42.42 128.796 42.644C129.001 42.868 129.248 43.0407 129.538 43.162C129.836 43.274 130.252 43.4047 130.784 43.554C131.428 43.7313 131.946 43.9087 132.338 44.086C132.73 44.254 133.066 44.52 133.346 44.884C133.626 45.2387 133.766 45.724 133.766 46.34C133.766 46.816 133.64 47.264 133.388 47.684C133.136 48.104 132.762 48.4447 132.268 48.706C131.773 48.9673 131.19 49.098 130.518 49.098ZM141.647 39.242V40.278H138.987V49H137.713V40.278H135.039V39.242H141.647Z" fill="black"/>
<g clip-path="url(#clip0_20_536)">
<path d="M178.061 89.9901C178.061 100.814 170.197 108.166 158.675 108.248C148.576 108.302 139.088 99.2236 139.079 89.5175C139.079 79.3934 148.202 70.3235 158.173 70.4962C169.494 70.6961 178.061 79.1208 178.061 89.9901Z" fill="#FFE500"/>
<path d="M122.622 163.576C120.241 163.576 118.772 162.504 118.288 160.75C118.042 159.866 118.069 158.929 118.367 158.061C118.665 157.193 119.22 156.436 119.958 155.888C120.87 155.27 121.691 154.643 122.594 154.07C124.775 152.789 127.283 153.834 128.223 156.379C129.163 158.923 127.995 162.031 125.797 162.804C124.759 163.139 123.698 163.397 122.622 163.576Z" fill="#282828"/>
<path d="M161.585 181.971C159.204 181.971 157.735 180.889 157.252 179.144C157.003 178.259 157.029 177.32 157.327 176.45C157.625 175.581 158.181 174.822 158.921 174.273C159.833 173.655 160.654 173.037 161.557 172.501C163.738 171.219 166.256 172.274 167.195 174.818C168.135 177.363 166.958 180.471 164.76 181.244C163.719 181.555 162.658 181.798 161.585 181.971Z" fill="#282828"/>
<path d="M99.961 147.981C102.789 147.981 104.112 149.799 103.172 151.807C102.233 153.816 101.129 155.442 98.6108 155.515C97.8293 155.528 97.0655 155.283 96.4373 154.82C95.8091 154.357 95.3514 153.701 95.1351 152.952C94.8778 152.213 94.8998 151.406 95.197 150.681C95.4943 149.957 96.0463 149.365 96.7498 149.017C97.7958 148.601 98.8686 148.255 99.961 147.981Z" fill="#282828"/>
<path d="M125.258 186.733C125.27 187.291 125.165 187.846 124.948 188.361C124.732 188.876 124.41 189.34 124.002 189.724C123.595 190.107 123.112 190.402 122.583 190.588C122.055 190.774 121.493 190.847 120.934 190.804C119.813 190.779 118.741 190.336 117.932 189.561C117.123 188.787 116.635 187.739 116.564 186.624C116.594 185.508 117.053 184.445 117.845 183.656C118.638 182.866 119.704 182.409 120.825 182.38C121.404 182.37 121.98 182.475 122.518 182.69C123.056 182.904 123.546 183.224 123.959 183.629C124.371 184.034 124.699 184.518 124.922 185.05C125.145 185.583 125.26 186.155 125.258 186.733Z" fill="#282828"/>
<path d="M135.448 205.027C135.46 205.585 135.355 206.14 135.138 206.655C134.922 207.17 134.6 207.634 134.192 208.018C133.785 208.401 133.302 208.696 132.773 208.882C132.245 209.068 131.683 209.142 131.124 209.099C130.003 209.071 128.933 208.627 128.124 207.853C127.316 207.08 126.827 206.033 126.754 204.918C126.782 203.801 127.24 202.738 128.033 201.948C128.826 201.158 129.894 200.702 131.015 200.674C131.594 200.664 132.17 200.77 132.708 200.984C133.246 201.199 133.736 201.518 134.149 201.923C134.561 202.329 134.889 202.812 135.112 203.345C135.335 203.878 135.45 204.45 135.448 205.027Z" fill="#282828"/>
<path d="M117.185 228.32C117.197 228.878 117.091 229.433 116.875 229.948C116.658 230.463 116.336 230.927 115.929 231.311C115.521 231.694 115.038 231.989 114.509 232.175C113.981 232.361 113.419 232.435 112.861 232.391C111.739 232.366 110.668 231.923 109.858 231.149C109.049 230.375 108.561 229.326 108.491 228.211C108.521 227.095 108.979 226.032 109.772 225.243C110.564 224.453 111.631 223.997 112.751 223.967C113.331 223.957 113.906 224.063 114.444 224.277C114.982 224.492 115.472 224.811 115.885 225.216C116.298 225.622 116.625 226.105 116.849 226.638C117.072 227.171 117.186 227.742 117.185 228.32Z" fill="#282828"/>
<path d="M156.431 201.147C156.431 203.564 154.67 205.209 152.097 205.218C150.976 205.191 149.906 204.747 149.098 203.973C148.289 203.199 147.8 202.152 147.727 201.037C147.757 199.921 148.216 198.859 149.008 198.069C149.801 197.28 150.867 196.823 151.988 196.793C152.568 196.784 153.144 196.889 153.682 197.104C154.221 197.318 154.711 197.637 155.125 198.042C155.539 198.447 155.867 198.931 156.091 199.464C156.315 199.997 156.431 200.569 156.431 201.147Z" fill="#282828"/>
<path d="M73.9977 194.585C73.9977 191.858 74.6728 190.904 76.9353 190.423C77.4708 190.271 78.0339 190.244 78.5816 190.343C79.1293 190.442 79.647 190.664 80.0951 190.993C80.5433 191.322 80.91 191.749 81.1671 192.241C81.4242 192.732 81.565 193.276 81.5787 193.831C81.6288 194.708 81.5921 195.587 81.4692 196.457C81.2047 198.465 79.8545 199.556 77.6742 199.601C76.806 199.586 75.9718 199.263 75.3214 198.69C74.6709 198.117 74.2469 197.332 74.1255 196.475C74.0505 195.848 74.0079 195.217 73.9977 194.585Z" fill="#282828"/>
<path d="M73.9977 228.992C73.9977 226.266 74.6728 225.303 76.9353 224.83C77.4708 224.679 78.0339 224.652 78.5816 224.751C79.1293 224.85 79.647 225.072 80.0951 225.401C80.5433 225.73 80.91 226.156 81.1671 226.648C81.4242 227.14 81.565 227.684 81.5787 228.238C81.6288 229.112 81.5921 229.989 81.4692 230.856C81.2047 232.873 79.8545 233.964 77.6742 234C76.8074 233.985 75.9742 233.663 75.324 233.092C74.6737 232.521 74.2489 231.738 74.1255 230.883C74.0508 230.255 74.0082 229.624 73.9977 228.992Z" fill="#282828"/>
<path d="M83.2664 135.14C84.204 135.152 85.1019 135.518 85.7791 136.164C86.4564 136.81 86.8625 137.688 86.9155 138.621C86.8879 139.067 86.771 139.504 86.5717 139.905C86.3724 140.307 86.0946 140.664 85.7547 140.957C85.4148 141.25 85.0197 141.472 84.5924 141.611C84.1651 141.75 83.7143 141.802 83.2664 141.765C82.3445 141.739 81.4703 141.351 80.8346 140.685C80.1989 140.019 79.8531 139.13 79.8728 138.212C79.8866 137.786 79.9861 137.367 80.1655 136.98C80.3448 136.593 80.6004 136.246 80.9169 135.96C81.2334 135.673 81.6045 135.453 82.0081 135.312C82.4117 135.171 82.8396 135.113 83.2664 135.14Z" fill="#282828"/>
<path d="M65.094 171.974C62.8863 171.974 61.5361 170.938 61.4449 169.156C61.3537 167.375 63.2695 165.585 65.3038 165.594C66.1733 165.618 66.9983 165.982 67.5995 166.609C68.2008 167.235 68.5297 168.072 68.515 168.938C68.5241 170.665 67.101 171.91 65.094 171.974Z" fill="#282828"/>
<path d="M139.024 173.146C139.888 173.212 140.694 173.6 141.284 174.231C141.874 174.862 142.204 175.692 142.208 176.554C142.221 177.312 141.933 178.044 141.407 178.592C140.881 179.14 140.159 179.459 139.398 179.481C138.537 179.466 137.71 179.14 137.072 178.563C136.435 177.986 136.029 177.198 135.932 176.345C135.929 175.516 136.25 174.718 136.827 174.121C137.405 173.524 138.193 173.175 139.024 173.146Z" fill="#282828"/>
<path d="M101.32 205.318C102.183 205.384 102.989 205.769 103.58 206.399C104.171 207.028 104.504 207.855 104.513 208.717C104.521 209.476 104.23 210.208 103.704 210.756C103.177 211.305 102.456 211.626 101.694 211.652C100.833 211.638 100.006 211.312 99.3683 210.735C98.7304 210.158 98.325 209.37 98.2277 208.517C98.2248 207.688 98.5461 206.89 99.1233 206.293C99.7006 205.696 100.489 205.346 101.32 205.318Z" fill="#282828"/>
<path d="M144.224 160.205C144.276 159.417 144.629 158.678 145.211 158.142C145.794 157.606 146.561 157.313 147.353 157.324C148.182 157.38 148.956 157.756 149.509 158.373C150.063 158.989 150.354 159.796 150.318 160.623C150.312 160.996 150.229 161.364 150.077 161.705C149.924 162.046 149.704 162.352 149.43 162.607C149.156 162.861 148.833 163.058 148.481 163.186C148.129 163.313 147.755 163.369 147.381 163.349C146.559 163.302 145.784 162.955 145.202 162.375C144.62 161.796 144.272 161.023 144.224 160.205Z" fill="#282828"/>
<path d="M94.5603 176.872C94.5997 176.315 94.8509 175.793 95.2627 175.413C95.6744 175.033 96.216 174.824 96.7772 174.827C97.3644 174.869 97.912 175.138 98.3038 175.576C98.6956 176.014 98.9006 176.586 98.8754 177.172C98.8733 177.438 98.8171 177.7 98.7102 177.944C98.6033 178.187 98.448 178.407 98.2535 178.588C98.059 178.77 97.8295 178.911 97.5789 179.002C97.3282 179.093 97.0617 179.132 96.7954 179.117C96.211 179.082 95.66 178.834 95.2477 178.42C94.8354 178.006 94.5907 177.455 94.5603 176.872Z" fill="#282828"/>
<path d="M150.521 89.6335C149.846 88.7246 147.784 86.5163 147.009 85.6348C142.21 79.9093 135.779 78.9005 130.141 77.4555C121.137 75.1199 113.419 76.2285 105.208 80.7999C98.7587 84.4351 93.3489 90.5968 88.149 95.8225C85.8378 98.3662 82.9732 100.349 79.7743 101.621C76.5814 102.893 72.2025 103.493 69.8032 106.165C64.6945 111.763 66.9478 120.197 74.693 124.341C82.4382 128.485 91.6977 130.757 100.1 131.657C111.293 132.856 122.332 134.029 133.562 133.529C141.17 133.184 148.724 132.811 156.286 132.057C160.796 131.51 165.18 130.204 169.25 128.194C179.531 122.541 173.738 110.3 168.456 104.965C162.59 99.0125 157.837 99.7939 150.521 89.6335Z" fill="#282828"/>
<path d="M156.431 147.881C156.47 147.324 156.721 146.802 157.133 146.422C157.545 146.042 158.086 145.833 158.647 145.836C159.234 145.881 159.78 146.15 160.171 146.587C160.563 147.024 160.769 147.596 160.746 148.181C160.742 148.447 160.685 148.708 160.578 148.951C160.471 149.194 160.315 149.413 160.121 149.594C159.927 149.776 159.698 149.917 159.448 150.008C159.198 150.099 158.932 150.139 158.666 150.126C158.081 150.093 157.528 149.845 157.116 149.431C156.703 149.016 156.459 148.464 156.431 147.881Z" fill="#282828"/>
<path d="M77.8019 157.215C77.837 156.656 78.0872 156.133 78.5002 155.754C78.9132 155.374 79.4572 155.168 80.0187 155.179C80.6052 155.219 81.1528 155.485 81.5448 155.922C81.9368 156.358 82.1421 156.93 82.117 157.515C82.1137 157.781 82.0563 158.043 81.9484 158.287C81.8405 158.53 81.6843 158.749 81.4891 158.931C81.2939 159.113 81.0638 159.253 80.8127 159.344C80.5616 159.435 80.2946 159.474 80.0278 159.459C79.4436 159.426 78.8926 159.178 78.4814 158.764C78.0702 158.349 77.828 157.797 77.8019 157.215Z" fill="#282828"/>
<path d="M131.033 140.629C131.823 140.657 132.575 140.972 133.148 141.514C133.721 142.057 134.075 142.789 134.144 143.574C134.16 143.966 134.096 144.357 133.956 144.723C133.815 145.09 133.602 145.425 133.328 145.707C133.054 145.989 132.726 146.213 132.363 146.365C132 146.517 131.609 146.594 131.215 146.591C130.392 146.553 129.612 146.211 129.028 145.631C128.445 145.052 128.099 144.276 128.059 143.455C128.136 142.709 128.478 142.014 129.023 141.496C129.568 140.978 130.281 140.67 131.033 140.629Z" fill="#282828"/>
<path d="M172.715 145.909C173.128 145.905 173.538 145.987 173.917 146.15C174.297 146.313 174.638 146.553 174.919 146.856C175.2 147.158 175.414 147.515 175.548 147.904C175.682 148.294 175.733 148.707 175.698 149.117C175.651 149.874 175.309 150.583 174.745 151.092C174.18 151.602 173.439 151.871 172.678 151.844C172.284 151.85 171.893 151.776 171.528 151.627C171.163 151.478 170.833 151.256 170.557 150.976C170.281 150.695 170.066 150.361 169.924 149.995C169.782 149.628 169.717 149.237 169.731 148.845C169.72 148.453 169.789 148.063 169.936 147.699C170.082 147.335 170.302 147.006 170.582 146.73C170.862 146.455 171.195 146.24 171.562 146.098C171.929 145.957 172.322 145.893 172.715 145.909Z" fill="#282828"/>
<path d="M104.258 130.169C105.051 130.155 105.819 130.447 106.402 130.984C106.985 131.521 107.338 132.26 107.387 133.049C107.347 133.839 106.994 134.582 106.406 135.113C105.817 135.645 105.042 135.922 104.249 135.885C103.501 135.836 102.797 135.517 102.269 134.989C101.74 134.46 101.422 133.758 101.375 133.013C101.394 132.26 101.704 131.543 102.242 131.013C102.779 130.483 103.501 130.18 104.258 130.169Z" fill="#282828"/>
<path d="M61.8919 146.036C62.6854 146.023 63.4535 146.315 64.0363 146.852C64.6191 147.388 64.9718 148.128 65.021 148.917C64.9809 149.707 64.628 150.449 64.0398 150.981C63.4516 151.512 62.676 151.79 61.8828 151.753C61.1351 151.702 60.4312 151.383 59.9012 150.855C59.3713 150.327 59.0511 149.626 59 148.881C59.0211 148.127 59.3336 147.41 59.8725 146.88C60.4113 146.35 61.1347 146.048 61.8919 146.036Z" fill="#282828"/>
<path d="M176.619 62.5259L170.005 70.4961" stroke="#FFF200" stroke-width="3.27" stroke-miterlimit="10"/>
<path d="M182.047 112.865L174.047 106.276" stroke="#FFF200" stroke-width="3.27" stroke-miterlimit="10"/>
<path d="M191.681 86.0459L181.545 88.2634" stroke="#FFF200" stroke-width="3.27" stroke-miterlimit="10"/>
<path d="M144.617 58.4635L147.864 68.2877" stroke="#FFF200" stroke-width="3.27" stroke-miterlimit="10"/>
</g>
<defs>
<clipPath id="clip0_20_536">
<rect width="133" height="176" fill="white" transform="translate(59 58)"/>
</clipPath>
</defs>
</svg>
