<svg width="392" height="612" viewBox="0 0 392 612" fill="none" xmlns="http://www.w3.org/2000/svg">
<path d="M159.94 143.21C158.56 143.21 157.32 142.97 156.22 142.49C155.14 141.99 154.29 141.31 153.67 140.45C153.05 139.57 152.73 138.56 152.71 137.42H155.62C155.72 138.4 156.12 139.23 156.82 139.91C157.54 140.57 158.58 140.9 159.94 140.9C161.24 140.9 162.26 140.58 163 139.94C163.76 139.28 164.14 138.44 164.14 137.42C164.14 136.62 163.92 135.97 163.48 135.47C163.04 134.97 162.49 134.59 161.83 134.33C161.17 134.07 160.28 133.79 159.16 133.49C157.78 133.13 156.67 132.77 155.83 132.41C155.01 132.05 154.3 131.49 153.7 130.73C153.12 129.95 152.83 128.91 152.83 127.61C152.83 126.47 153.12 125.46 153.7 124.58C154.28 123.7 155.09 123.02 156.13 122.54C157.19 122.06 158.4 121.82 159.76 121.82C161.72 121.82 163.32 122.31 164.56 123.29C165.82 124.27 166.53 125.57 166.69 127.19H163.69C163.59 126.39 163.17 125.69 162.43 125.09C161.69 124.47 160.71 124.16 159.49 124.16C158.35 124.16 157.42 124.46 156.7 125.06C155.98 125.64 155.62 126.46 155.62 127.52C155.62 128.28 155.83 128.9 156.25 129.38C156.69 129.86 157.22 130.23 157.84 130.49C158.48 130.73 159.37 131.01 160.51 131.33C161.89 131.71 163 132.09 163.84 132.47C164.68 132.83 165.4 133.4 166 134.18C166.6 134.94 166.9 135.98 166.9 137.3C166.9 138.32 166.63 139.28 166.09 140.18C165.55 141.08 164.75 141.81 163.69 142.37C162.63 142.93 161.38 143.21 159.94 143.21ZM192.127 122.24V143H189.397V127.52L182.497 143H180.577L173.647 127.49V143H170.917V122.24H173.857L181.537 139.4L189.217 122.24H192.127ZM206.237 143.21C204.297 143.21 202.527 142.76 200.927 141.86C199.327 140.94 198.057 139.67 197.117 138.05C196.197 136.41 195.737 134.57 195.737 132.53C195.737 130.49 196.197 128.66 197.117 127.04C198.057 125.4 199.327 124.13 200.927 123.23C202.527 122.31 204.297 121.85 206.237 121.85C208.197 121.85 209.977 122.31 211.577 123.23C213.177 124.13 214.437 125.39 215.357 127.01C216.277 128.63 216.737 130.47 216.737 132.53C216.737 134.59 216.277 136.43 215.357 138.05C214.437 139.67 213.177 140.94 211.577 141.86C209.977 142.76 208.197 143.21 206.237 143.21ZM206.237 140.84C207.697 140.84 209.007 140.5 210.167 139.82C211.347 139.14 212.267 138.17 212.927 136.91C213.607 135.65 213.947 134.19 213.947 132.53C213.947 130.85 213.607 129.39 212.927 128.15C212.267 126.89 211.357 125.92 210.197 125.24C209.037 124.56 207.717 124.22 206.237 124.22C204.757 124.22 203.437 124.56 202.277 125.24C201.117 125.92 200.197 126.89 199.517 128.15C198.857 129.39 198.527 130.85 198.527 132.53C198.527 134.19 198.857 135.65 199.517 136.91C200.197 138.17 201.117 139.14 202.277 139.82C203.457 140.5 204.777 140.84 206.237 140.84ZM236.181 128.15C235.601 126.93 234.761 125.99 233.661 125.33C232.561 124.65 231.281 124.31 229.821 124.31C228.361 124.31 227.041 124.65 225.861 125.33C224.701 125.99 223.781 126.95 223.101 128.21C222.441 129.45 222.111 130.89 222.111 132.53C222.111 134.17 222.441 135.61 223.101 136.85C223.781 138.09 224.701 139.05 225.861 139.73C227.041 140.39 228.361 140.72 229.821 140.72C231.861 140.72 233.541 140.11 234.861 138.89C236.181 137.67 236.951 136.02 237.171 133.94H228.831V131.72H240.081V133.82C239.921 135.54 239.381 137.12 238.461 138.56C237.541 139.98 236.331 141.11 234.831 141.95C233.331 142.77 231.661 143.18 229.821 143.18C227.881 143.18 226.111 142.73 224.511 141.83C222.911 140.91 221.641 139.64 220.701 138.02C219.781 136.4 219.321 134.57 219.321 132.53C219.321 130.49 219.781 128.66 220.701 127.04C221.641 125.4 222.911 124.13 224.511 123.23C226.111 122.31 227.881 121.85 229.821 121.85C232.041 121.85 234.001 122.4 235.701 123.5C237.421 124.6 238.671 126.15 239.451 128.15H236.181Z" fill="black"/>
<path d="M4.33969 31.08H31.7797C37.0597 31.08 41.193 32.3867 44.1797 35C47.1664 37.6133 48.6597 41.4 48.6597 46.36C48.6597 48.8667 48.073 51.16 46.8997 53.24C45.7264 55.2667 44.1264 56.84 42.0997 57.96C44.873 58.9733 46.953 60.52 48.3397 62.6C49.7264 64.6267 50.4197 67.2933 50.4197 70.6C50.4197 73.96 49.6464 76.8933 48.0997 79.4C46.6064 81.8533 44.5264 83.7467 41.8597 85.08C39.2464 86.36 36.3397 87 33.1397 87H4.33969V31.08ZM29.4597 53.8C31.593 53.8 33.273 53.2667 34.4997 52.2C35.7264 51.1333 36.3397 49.4267 36.3397 47.08C36.3397 44.52 35.7264 42.76 34.4997 41.8C33.3264 40.84 31.513 40.36 29.0597 40.36H16.4997V53.8H29.4597ZM30.1797 77.72C32.793 77.72 34.7664 77.2133 36.0997 76.2C37.4864 75.1333 38.1797 73.2933 38.1797 70.68C38.1797 68.0133 37.4597 66.0933 36.0197 64.92C34.633 63.7467 32.553 63.16 29.7797 63.16H16.4997V77.72H30.1797ZM72.7959 31.08H84.7159L107.036 87H94.6359L89.8359 74.84H67.6759L62.8759 87H50.3959L72.7959 31.08ZM86.6359 65.16L78.7159 43.88L70.7959 65.16H86.6359ZM113.793 31.08H125.633L148.993 67.24V31.08H161.153V87H149.393L125.953 50.84V87H113.793V31.08ZM198.136 88.2C192.163 88.2 186.883 87.0267 182.296 84.68C177.709 82.28 174.163 78.8933 171.656 74.52C169.149 70.1467 167.896 65 167.896 59.08C167.896 53.16 169.149 48.0133 171.656 43.64C174.163 39.2133 177.709 35.8267 182.296 33.48C186.883 31.08 192.163 29.88 198.136 29.88C202.189 29.88 205.763 30.3067 208.856 31.16C212.003 31.96 214.883 33.24 217.496 35V46.6C215.149 44.68 212.456 43.2933 209.416 42.44C206.429 41.5333 203.016 41.08 199.176 41.08C195.603 41.08 192.376 41.8267 189.496 43.32C186.669 44.76 184.429 46.84 182.776 49.56C181.123 52.28 180.296 55.4533 180.296 59.08C180.296 62.76 181.043 65.9867 182.536 68.76C184.083 71.48 186.243 73.5867 189.016 75.08C191.789 76.5733 194.989 77.32 198.616 77.32C201.923 77.32 204.803 76.7333 207.256 75.56V64.76H198.216V55.8H219.016V82.76C213.736 86.3867 206.776 88.2 198.136 88.2ZM225.824 31.08H237.984V55.4L259.104 31.08H273.584L249.904 58.36L275.184 87H260.704L237.984 61.32V87H225.824V31.08ZM303.441 88.2C297.841 88.2 292.748 86.9733 288.161 84.52C283.628 82.0667 280.054 78.6533 277.441 74.28C274.828 69.8533 273.521 64.7867 273.521 59.08C273.521 53.3733 274.828 48.3067 277.441 43.88C280.054 39.4533 283.628 36.0133 288.161 33.56C292.748 31.1067 297.841 29.88 303.441 29.88C309.041 29.88 314.081 31.1067 318.561 33.56C323.094 36.0133 326.668 39.4533 329.281 43.88C331.894 48.3067 333.201 53.3733 333.201 59.08C333.201 64.7867 331.894 69.8533 329.281 74.28C326.668 78.6533 323.094 82.0667 318.561 84.52C314.081 86.9733 309.041 88.2 303.441 88.2ZM303.441 77C306.641 77 309.548 76.28 312.161 74.84C314.828 73.3467 316.934 71.2667 318.481 68.6C320.028 65.88 320.801 62.7067 320.801 59.08C320.801 55.5067 320.028 52.3867 318.481 49.72C316.988 47 314.908 44.92 312.241 43.48C309.628 41.9867 306.694 41.24 303.441 41.24C300.134 41.24 297.148 41.9867 294.481 43.48C291.868 44.92 289.788 47 288.241 49.72C286.694 52.3867 285.921 55.5067 285.921 59.08C285.921 62.7067 286.694 65.88 288.241 68.6C289.788 71.2667 291.894 73.3467 294.561 74.84C297.228 76.28 300.188 77 303.441 77ZM339.887 31.08H352.047V55.4L373.167 31.08H387.647L363.967 58.36L389.247 87H374.767L352.047 61.32V87H339.887V31.08Z" fill="black"/>
<path d="M172.929 366.352C186.008 361.278 196.575 373.939 208.349 379.629C222.462 386.427 237.906 390.737 253.227 384.998C269.015 379.086 284.065 356.918 295.839 346.45C311.923 332.164 324.386 336.794 342.638 326.203C373.796 308.099 387.171 289.503 378.353 259.059C370.668 232.556 335.618 228.245 320.15 221.964C303.918 215.363 304.164 200.609 291.109 189.279C275.838 176.052 259.803 167.382 239.384 169.254C224.384 170.633 212.758 178.885 198.176 181.717C183.594 184.55 170.047 180.042 155.096 183.515C137.854 187.53 126.918 195.116 117.435 210.61C111.351 220.462 107.385 229.033 100.883 238.541C95.7595 245.93 77.2615 250.191 64.7489 258.714C42.5808 273.911 34.4279 277.803 21.595 304.429C9.52576 329.504 7.6538 354.529 22.8759 402.289C31.4968 429.383 41.5709 449.975 42.5808 458.941C43.4675 466.33 51.3495 467.389 53.788 460.32C61.0049 439.359 52.655 396.944 66.1036 375.293C73.4929 363.495 85.5376 357.091 98.4936 354.702C104.021 353.796 109.677 354.051 115.101 355.45C120.525 356.849 125.598 359.362 129.997 362.83C137.953 368.717 152.042 374.505 172.929 366.352Z" fill="#282828"/>
<path d="M27.6056 593.158C34.1821 559.216 37.4581 521.875 35.3398 470.938H61.3257C60.0202 516.604 61.6459 552.811 69.8727 592.935L74.5526 612H23.4922L27.6056 593.158Z" fill="#606060"/>
<path d="M310.148 391.969V611.999H82.7773V502.169L159.356 445.098V487.168L218.569 445.098V494.484L280.147 442.044L296.601 391.969H310.148Z" fill="#606060"/>
<path d="M139.356 521.672H103V538.15H139.356V521.672Z" fill="white"/>
<path d="M196.453 521.672H160.098V538.15H196.453V521.672Z" fill="white"/>
<path d="M252.563 521.672H216.207V538.15H252.563V521.672Z" fill="white"/>
</svg>
