<svg width="252" height="248" viewBox="0 0 252 248" fill="none" xmlns="http://www.w3.org/2000/svg">
<path d="M94.258 29.002C94.7807 29.0953 95.224 29.3707 95.588 29.828C95.952 30.2853 96.134 30.8033 96.134 31.382C96.134 31.8767 96.0033 32.3247 95.742 32.726C95.49 33.118 95.1213 33.4307 94.636 33.664C94.1507 33.888 93.586 34 92.942 34H89.05V24.27H92.76C93.4227 24.27 93.992 24.382 94.468 24.606C94.944 24.83 95.3033 25.1333 95.546 25.516C95.7887 25.8893 95.91 26.3093 95.91 26.776C95.91 27.336 95.7607 27.8027 95.462 28.176C95.1633 28.5493 94.762 28.8247 94.258 29.002ZM90.646 28.358H92.62C93.1427 28.358 93.5487 28.2413 93.838 28.008C94.1367 27.7653 94.286 27.42 94.286 26.972C94.286 26.5333 94.1367 26.1927 93.838 25.95C93.5487 25.698 93.1427 25.572 92.62 25.572H90.646V28.358ZM92.802 32.698C93.3433 32.698 93.768 32.5673 94.076 32.306C94.384 32.0447 94.538 31.6807 94.538 31.214C94.538 30.738 94.3747 30.36 94.048 30.08C93.7213 29.8 93.2873 29.66 92.746 29.66H90.646V32.698H92.802ZM103.734 32.012H99.6604L98.9604 34H97.2944L100.78 24.256H102.628L106.114 34H104.434L103.734 32.012ZM103.286 30.71L101.704 26.188L100.108 30.71H103.286ZM115.624 34H114.028L109.226 26.734V34H107.63V24.256H109.226L114.028 31.508V24.256H115.624V34ZM124.762 27.07C124.51 26.5847 124.16 26.2207 123.712 25.978C123.264 25.726 122.746 25.6 122.158 25.6C121.514 25.6 120.94 25.7447 120.436 26.034C119.932 26.3233 119.535 26.734 119.246 27.266C118.966 27.798 118.826 28.414 118.826 29.114C118.826 29.814 118.966 30.4347 119.246 30.976C119.535 31.508 119.932 31.9187 120.436 32.208C120.94 32.4973 121.514 32.642 122.158 32.642C123.026 32.642 123.731 32.3993 124.272 31.914C124.813 31.4287 125.145 30.7707 125.266 29.94H121.612V28.666H126.974V29.912C126.871 30.668 126.601 31.3633 126.162 31.998C125.733 32.6327 125.168 33.1413 124.468 33.524C123.777 33.8973 123.007 34.084 122.158 34.084C121.243 34.084 120.408 33.874 119.652 33.454C118.896 33.0247 118.294 32.432 117.846 31.676C117.407 30.92 117.188 30.066 117.188 29.114C117.188 28.162 117.407 27.308 117.846 26.552C118.294 25.796 118.896 25.208 119.652 24.788C120.417 24.3587 121.253 24.144 122.158 24.144C123.194 24.144 124.113 24.4007 124.916 24.914C125.728 25.418 126.316 26.1367 126.68 27.07H124.762ZM133.91 34L130.144 29.646V34H128.548V24.27H130.144V28.708L133.924 24.27H135.926L131.698 29.142L135.996 34H133.91ZM141.845 34.098C140.94 34.098 140.105 33.888 139.339 33.468C138.583 33.0387 137.981 32.446 137.533 31.69C137.095 30.9247 136.875 30.066 136.875 29.114C136.875 28.162 137.095 27.308 137.533 26.552C137.981 25.796 138.583 25.208 139.339 24.788C140.105 24.3587 140.94 24.144 141.845 24.144C142.76 24.144 143.595 24.3587 144.351 24.788C145.117 25.208 145.719 25.796 146.157 26.552C146.596 27.308 146.815 28.162 146.815 29.114C146.815 30.066 146.596 30.9247 146.157 31.69C145.719 32.446 145.117 33.0387 144.351 33.468C143.595 33.888 142.76 34.098 141.845 34.098ZM141.845 32.712C142.489 32.712 143.063 32.5673 143.567 32.278C144.071 31.9793 144.463 31.5593 144.743 31.018C145.033 30.4673 145.177 29.8327 145.177 29.114C145.177 28.3953 145.033 27.7653 144.743 27.224C144.463 26.6827 144.071 26.2673 143.567 25.978C143.063 25.6887 142.489 25.544 141.845 25.544C141.201 25.544 140.627 25.6887 140.123 25.978C139.619 26.2673 139.223 26.6827 138.933 27.224C138.653 27.7653 138.513 28.3953 138.513 29.114C138.513 29.8327 138.653 30.4673 138.933 31.018C139.223 31.5593 139.619 31.9793 140.123 32.278C140.627 32.5673 141.201 32.712 141.845 32.712ZM153.748 34L149.982 29.646V34H148.386V24.27H149.982V28.708L153.762 24.27H155.764L151.536 29.142L155.834 34H153.748Z" fill="#125C86"/>
<path d="M115.216 49L112.892 45.01H111.352V49H110.078V39.242H113.228C113.965 39.242 114.586 39.368 115.09 39.62C115.603 39.872 115.986 40.2127 116.238 40.642C116.49 41.0713 116.616 41.5613 116.616 42.112C116.616 42.784 116.42 43.3767 116.028 43.89C115.645 44.4033 115.067 44.744 114.292 44.912L116.742 49H115.216ZM111.352 43.988H113.228C113.919 43.988 114.437 43.82 114.782 43.484C115.127 43.1387 115.3 42.6813 115.3 42.112C115.3 41.5333 115.127 41.0853 114.782 40.768C114.446 40.4507 113.928 40.292 113.228 40.292H111.352V43.988ZM124.364 46.83H120.108L119.324 49H117.98L121.508 39.298H122.978L126.492 49H125.148L124.364 46.83ZM124 45.794L122.236 40.866L120.472 45.794H124ZM129.303 39.242V49H128.029V39.242H129.303ZM139.146 49H137.872L132.748 41.23V49H131.474V39.228H132.748L137.872 46.984V39.228H139.146V49Z" fill="#125C86"/>
<line x1="75.5" y1="96" x2="75.5" y2="218" stroke="#125C86" stroke-width="5"/>
<line x1="104.5" y1="58" x2="104.5" y2="176" stroke="#125C86" stroke-width="5"/>
<line x1="180.5" y1="100" x2="180.5" y2="218" stroke="#125C86" stroke-width="5"/>
<line x1="122.5" y1="100" x2="122.5" y2="218" stroke="#125C86" stroke-width="5"/>
<line x1="142.5" y1="62" x2="142.5" y2="181" stroke="#125C86" stroke-width="5"/>
</svg>
