<svg width="911" height="545" viewBox="0 0 911 545" fill="none" xmlns="http://www.w3.org/2000/svg">
<path d="M793.647 312.737C790.417 309.235 780.46 301.131 776.914 297.853C754.013 276.535 724.433 273.562 698.424 268.737C656.896 261.02 621.828 266.375 585.059 285.127C556.208 299.848 532.676 324.465 509.653 345.315C497.681 356.127 488.428 362.805 472.351 368.791C457.998 374.126 438.084 377.038 427.544 387.524C405.177 409.758 416.883 441.888 452.995 456.751C489.108 471.615 531.802 479.006 570.342 481.287C621.706 484.341 672.341 487.273 723.535 483.75C758.263 481.368 792.7 478.843 827.161 474.893C844.16 472.857 870.462 465.873 885.737 458.177C931.879 435.026 903.247 388.766 878.184 368.974C850.378 347.107 828.788 350.792 793.647 312.737Z" fill="white"/>
<path d="M306.594 403.637C303.971 400.786 295.883 394.188 293.004 391.519C274.403 374.163 250.378 371.743 229.253 367.814C195.524 361.531 167.041 365.891 137.178 381.159C113.745 393.144 94.6316 413.186 75.9325 430.161C66.2082 438.963 58.693 444.401 45.6353 449.275C33.9779 453.618 17.8036 455.988 9.24306 464.526C-8.92345 482.628 0.583912 508.787 29.9146 520.888C59.2454 532.99 93.9215 539.007 125.225 540.864C166.943 543.35 208.069 545.737 249.649 542.87C277.855 540.93 305.825 538.874 333.814 535.658C347.621 534.001 368.983 528.315 381.39 522.049C418.867 503.2 395.612 465.537 375.256 449.424C352.671 431.62 335.136 434.62 306.594 403.637Z" fill="white"/>
<path d="M406.29 145.53C406.29 143.49 406.75 141.66 407.67 140.04C408.59 138.4 409.84 137.12 411.42 136.2C413.02 135.28 414.79 134.82 416.73 134.82C419.01 134.82 421 135.37 422.7 136.47C424.4 137.57 425.64 139.13 426.42 141.15H423.15C422.57 139.89 421.73 138.92 420.63 138.24C419.55 137.56 418.25 137.22 416.73 137.22C415.27 137.22 413.96 137.56 412.8 138.24C411.64 138.92 410.73 139.89 410.07 141.15C409.41 142.39 409.08 143.85 409.08 145.53C409.08 147.19 409.41 148.65 410.07 149.91C410.73 151.15 411.64 152.11 412.8 152.79C413.96 153.47 415.27 153.81 416.73 153.81C418.25 153.81 419.55 153.48 420.63 152.82C421.73 152.14 422.57 151.17 423.15 149.91H426.42C425.64 151.91 424.4 153.46 422.7 154.56C421 155.64 419.01 156.18 416.73 156.18C414.79 156.18 413.02 155.73 411.42 154.83C409.84 153.91 408.59 152.64 407.67 151.02C406.75 149.4 406.29 147.57 406.29 145.53ZM433.214 153.78H440.534V156H430.484V135.09H433.214V153.78ZM452.913 156.21C450.973 156.21 449.203 155.76 447.603 154.86C446.003 153.94 444.733 152.67 443.793 151.05C442.873 149.41 442.413 147.57 442.413 145.53C442.413 143.49 442.873 141.66 443.793 140.04C444.733 138.4 446.003 137.13 447.603 136.23C449.203 135.31 450.973 134.85 452.913 134.85C454.873 134.85 456.653 135.31 458.253 136.23C459.853 137.13 461.113 138.39 462.033 140.01C462.953 141.63 463.413 143.47 463.413 145.53C463.413 147.59 462.953 149.43 462.033 151.05C461.113 152.67 459.853 153.94 458.253 154.86C456.653 155.76 454.873 156.21 452.913 156.21ZM452.913 153.84C454.373 153.84 455.683 153.5 456.843 152.82C458.023 152.14 458.943 151.17 459.603 149.91C460.283 148.65 460.623 147.19 460.623 145.53C460.623 143.85 460.283 142.39 459.603 141.15C458.943 139.89 458.033 138.92 456.873 138.24C455.713 137.56 454.393 137.22 452.913 137.22C451.433 137.22 450.113 137.56 448.953 138.24C447.793 138.92 446.873 139.89 446.193 141.15C445.533 142.39 445.203 143.85 445.203 145.53C445.203 147.19 445.533 148.65 446.193 149.91C446.873 151.17 447.793 152.14 448.953 152.82C450.133 153.5 451.453 153.84 452.913 153.84ZM469.687 135.09V148.32C469.687 150.18 470.137 151.56 471.037 152.46C471.957 153.36 473.227 153.81 474.847 153.81C476.447 153.81 477.697 153.36 478.597 152.46C479.517 151.56 479.977 150.18 479.977 148.32V135.09H482.707V148.29C482.707 150.03 482.357 151.5 481.657 152.7C480.957 153.88 480.007 154.76 478.807 155.34C477.627 155.92 476.297 156.21 474.817 156.21C473.337 156.21 471.997 155.92 470.797 155.34C469.617 154.76 468.677 153.88 467.977 152.7C467.297 151.5 466.957 150.03 466.957 148.29V135.09H469.687ZM493.771 135.09C496.051 135.09 498.021 135.52 499.681 136.38C501.361 137.22 502.641 138.43 503.521 140.01C504.421 141.59 504.871 143.45 504.871 145.59C504.871 147.73 504.421 149.59 503.521 151.17C502.641 152.73 501.361 153.93 499.681 154.77C498.021 155.59 496.051 156 493.771 156H487.261V135.09H493.771ZM493.771 153.75C496.471 153.75 498.531 153.04 499.951 151.62C501.371 150.18 502.081 148.17 502.081 145.59C502.081 142.99 501.361 140.96 499.921 139.5C498.501 138.04 496.451 137.31 493.771 137.31H489.991V153.75H493.771ZM523.112 135.09L516.302 148.11V156H513.572V148.11L506.732 135.09H509.762L514.922 145.68L520.082 135.09H523.112Z" fill="white"/>
<path d="M272.84 31.08H300.28C305.56 31.08 309.693 32.3867 312.68 35C315.666 37.6133 317.16 41.4 317.16 46.36C317.16 48.8667 316.573 51.16 315.4 53.24C314.226 55.2667 312.626 56.84 310.6 57.96C313.373 58.9733 315.453 60.52 316.84 62.6C318.226 64.6267 318.92 67.2933 318.92 70.6C318.92 73.96 318.146 76.8933 316.6 79.4C315.106 81.8533 313.026 83.7467 310.36 85.08C307.746 86.36 304.84 87 301.64 87H272.84V31.08ZM297.96 53.8C300.093 53.8 301.773 53.2667 303 52.2C304.226 51.1333 304.84 49.4267 304.84 47.08C304.84 44.52 304.226 42.76 303 41.8C301.826 40.84 300.013 40.36 297.56 40.36H285V53.8H297.96ZM298.68 77.72C301.293 77.72 303.266 77.2133 304.6 76.2C305.986 75.1333 306.68 73.2933 306.68 70.68C306.68 68.0133 305.96 66.0933 304.52 64.92C303.133 63.7467 301.053 63.16 298.28 63.16H285V77.72H298.68ZM341.296 31.08H353.216L375.536 87H363.136L358.336 74.84H336.176L331.376 87H318.896L341.296 31.08ZM355.136 65.16L347.216 43.88L339.296 65.16H355.136ZM382.293 31.08H394.133L417.493 67.24V31.08H429.653V87H417.893L394.453 50.84V87H382.293V31.08ZM466.636 88.2C460.663 88.2 455.383 87.0267 450.796 84.68C446.209 82.28 442.663 78.8933 440.156 74.52C437.649 70.1467 436.396 65 436.396 59.08C436.396 53.16 437.649 48.0133 440.156 43.64C442.663 39.2133 446.209 35.8267 450.796 33.48C455.383 31.08 460.663 29.88 466.636 29.88C470.689 29.88 474.263 30.3067 477.356 31.16C480.503 31.96 483.383 33.24 485.996 35V46.6C483.649 44.68 480.956 43.2933 477.916 42.44C474.929 41.5333 471.516 41.08 467.676 41.08C464.103 41.08 460.876 41.8267 457.996 43.32C455.169 44.76 452.929 46.84 451.276 49.56C449.623 52.28 448.796 55.4533 448.796 59.08C448.796 62.76 449.543 65.9867 451.036 68.76C452.583 71.48 454.743 73.5867 457.516 75.08C460.289 76.5733 463.489 77.32 467.116 77.32C470.423 77.32 473.303 76.7333 475.756 75.56V64.76H466.716V55.8H487.516V82.76C482.236 86.3867 475.276 88.2 466.636 88.2ZM494.324 31.08H506.484V55.4L527.604 31.08H542.084L518.404 58.36L543.684 87H529.204L506.484 61.32V87H494.324V31.08ZM571.941 88.2C566.341 88.2 561.248 86.9733 556.661 84.52C552.128 82.0667 548.554 78.6533 545.941 74.28C543.328 69.8533 542.021 64.7867 542.021 59.08C542.021 53.3733 543.328 48.3067 545.941 43.88C548.554 39.4533 552.128 36.0133 556.661 33.56C561.248 31.1067 566.341 29.88 571.941 29.88C577.541 29.88 582.581 31.1067 587.061 33.56C591.594 36.0133 595.168 39.4533 597.781 43.88C600.394 48.3067 601.701 53.3733 601.701 59.08C601.701 64.7867 600.394 69.8533 597.781 74.28C595.168 78.6533 591.594 82.0667 587.061 84.52C582.581 86.9733 577.541 88.2 571.941 88.2ZM571.941 77C575.141 77 578.048 76.28 580.661 74.84C583.328 73.3467 585.434 71.2667 586.981 68.6C588.528 65.88 589.301 62.7067 589.301 59.08C589.301 55.5067 588.528 52.3867 586.981 49.72C585.488 47 583.408 44.92 580.741 43.48C578.128 41.9867 575.194 41.24 571.941 41.24C568.634 41.24 565.648 41.9867 562.981 43.48C560.368 44.92 558.288 47 556.741 49.72C555.194 52.3867 554.421 55.5067 554.421 59.08C554.421 62.7067 555.194 65.88 556.741 68.6C558.288 71.2667 560.394 73.3467 563.061 74.84C565.728 76.28 568.688 77 571.941 77ZM608.387 31.08H620.547V55.4L641.667 31.08H656.147L632.467 58.36L657.747 87H643.267L620.547 61.32V87H608.387V31.08Z" fill="white"/>
</svg>
