<svg width="392" height="637" viewBox="0 0 392 637" fill="none" xmlns="http://www.w3.org/2000/svg">
<path d="M176.32 143L171.34 134.45H168.04V143H165.31V122.09H172.06C173.64 122.09 174.97 122.36 176.05 122.9C177.15 123.44 177.97 124.17 178.51 125.09C179.05 126.01 179.32 127.06 179.32 128.24C179.32 129.68 178.9 130.95 178.06 132.05C177.24 133.15 176 133.88 174.34 134.24L179.59 143H176.32ZM168.04 132.26H172.06C173.54 132.26 174.65 131.9 175.39 131.18C176.13 130.44 176.5 129.46 176.5 128.24C176.5 127 176.13 126.04 175.39 125.36C174.67 124.68 173.56 124.34 172.06 124.34H168.04V132.26ZM195.922 138.35H186.802L185.122 143H182.242L189.802 122.21H192.952L200.482 143H197.602L195.922 138.35ZM195.142 136.13L191.362 125.57L187.582 136.13H195.142ZM206.507 122.09V143H203.777V122.09H206.507ZM227.6 143H224.87L213.89 126.35V143H211.16V122.06H213.89L224.87 138.68V122.06H227.6V143Z" fill="#125C86"/>
<path d="M4.33969 31.08H31.7797C37.0597 31.08 41.193 32.3867 44.1797 35C47.1664 37.6133 48.6597 41.4 48.6597 46.36C48.6597 48.8667 48.073 51.16 46.8997 53.24C45.7264 55.2667 44.1264 56.84 42.0997 57.96C44.873 58.9733 46.953 60.52 48.3397 62.6C49.7264 64.6267 50.4197 67.2933 50.4197 70.6C50.4197 73.96 49.6464 76.8933 48.0997 79.4C46.6064 81.8533 44.5264 83.7467 41.8597 85.08C39.2464 86.36 36.3397 87 33.1397 87H4.33969V31.08ZM29.4597 53.8C31.593 53.8 33.273 53.2667 34.4997 52.2C35.7264 51.1333 36.3397 49.4267 36.3397 47.08C36.3397 44.52 35.7264 42.76 34.4997 41.8C33.3264 40.84 31.513 40.36 29.0597 40.36H16.4997V53.8H29.4597ZM30.1797 77.72C32.793 77.72 34.7664 77.2133 36.0997 76.2C37.4864 75.1333 38.1797 73.2933 38.1797 70.68C38.1797 68.0133 37.4597 66.0933 36.0197 64.92C34.633 63.7467 32.553 63.16 29.7797 63.16H16.4997V77.72H30.1797ZM72.7959 31.08H84.7159L107.036 87H94.6359L89.8359 74.84H67.6759L62.8759 87H50.3959L72.7959 31.08ZM86.6359 65.16L78.7159 43.88L70.7959 65.16H86.6359ZM113.793 31.08H125.633L148.993 67.24V31.08H161.153V87H149.393L125.953 50.84V87H113.793V31.08ZM198.136 88.2C192.163 88.2 186.883 87.0267 182.296 84.68C177.709 82.28 174.163 78.8933 171.656 74.52C169.149 70.1467 167.896 65 167.896 59.08C167.896 53.16 169.149 48.0133 171.656 43.64C174.163 39.2133 177.709 35.8267 182.296 33.48C186.883 31.08 192.163 29.88 198.136 29.88C202.189 29.88 205.763 30.3067 208.856 31.16C212.003 31.96 214.883 33.24 217.496 35V46.6C215.149 44.68 212.456 43.2933 209.416 42.44C206.429 41.5333 203.016 41.08 199.176 41.08C195.603 41.08 192.376 41.8267 189.496 43.32C186.669 44.76 184.429 46.84 182.776 49.56C181.123 52.28 180.296 55.4533 180.296 59.08C180.296 62.76 181.043 65.9867 182.536 68.76C184.083 71.48 186.243 73.5867 189.016 75.08C191.789 76.5733 194.989 77.32 198.616 77.32C201.923 77.32 204.803 76.7333 207.256 75.56V64.76H198.216V55.8H219.016V82.76C213.736 86.3867 206.776 88.2 198.136 88.2ZM225.824 31.08H237.984V55.4L259.104 31.08H273.584L249.904 58.36L275.184 87H260.704L237.984 61.32V87H225.824V31.08ZM303.441 88.2C297.841 88.2 292.748 86.9733 288.161 84.52C283.628 82.0667 280.054 78.6533 277.441 74.28C274.828 69.8533 273.521 64.7867 273.521 59.08C273.521 53.3733 274.828 48.3067 277.441 43.88C280.054 39.4533 283.628 36.0133 288.161 33.56C292.748 31.1067 297.841 29.88 303.441 29.88C309.041 29.88 314.081 31.1067 318.561 33.56C323.094 36.0133 326.668 39.4533 329.281 43.88C331.894 48.3067 333.201 53.3733 333.201 59.08C333.201 64.7867 331.894 69.8533 329.281 74.28C326.668 78.6533 323.094 82.0667 318.561 84.52C314.081 86.9733 309.041 88.2 303.441 88.2ZM303.441 77C306.641 77 309.548 76.28 312.161 74.84C314.828 73.3467 316.934 71.2667 318.481 68.6C320.028 65.88 320.801 62.7067 320.801 59.08C320.801 55.5067 320.028 52.3867 318.481 49.72C316.988 47 314.908 44.92 312.241 43.48C309.628 41.9867 306.694 41.24 303.441 41.24C300.134 41.24 297.148 41.9867 294.481 43.48C291.868 44.92 289.788 47 288.241 49.72C286.694 52.3867 285.921 55.5067 285.921 59.08C285.921 62.7067 286.694 65.88 288.241 68.6C289.788 71.2667 291.894 73.3467 294.561 74.84C297.228 76.28 300.188 77 303.441 77ZM339.887 31.08H352.047V55.4L373.167 31.08H387.647L363.967 58.36L389.247 87H374.767L352.047 61.32V87H339.887V31.08Z" fill="#125C86"/>
<path d="M49.0483 208.344H38V554.241H49.0483V208.344Z" fill="#125C86"/>
<g clip-path="url(#clip0_423_291)">
<path d="M120.998 177.07H110.023V508.899H120.998V177.07Z" fill="#125C86" stroke="#125C86" stroke-width="1.26" stroke-miterlimit="10"/>
<path d="M204.392 248.172H193.418V554.083H204.392V248.172Z" fill="#125C86" stroke="#125C86" stroke-width="1.26" stroke-miterlimit="10"/>
<path d="M287.791 187.805H276.816V535.02H287.791V187.805Z" fill="#125C86" stroke="#125C86" stroke-width="1.26" stroke-miterlimit="10"/>
<path d="M354.525 220.242H343.152V579.759H354.525V220.242Z" fill="#125C86" stroke="#125C86" stroke-width="1.26" stroke-miterlimit="10"/>
</g>
<defs>
<clipPath id="clip0_423_291">
<rect width="279.094" height="471.678" fill="white" transform="translate(75.9062 165)"/>
</clipPath>
</defs>
</svg>
