<svg width="252" height="248" viewBox="0 0 252 248" fill="none" xmlns="http://www.w3.org/2000/svg">
<path d="M95.336 28.918C95.9333 29.058 96.3953 29.3473 96.722 29.786C97.058 30.2153 97.226 30.7147 97.226 31.284C97.226 32.152 96.9367 32.824 96.358 33.3C95.7887 33.7667 94.9673 34 93.894 34H88.7V24.088H93.754C94.762 24.088 95.5553 24.3073 96.134 24.746C96.7127 25.1847 97.002 25.824 97.002 26.664C97.002 27.2427 96.848 27.7327 96.54 28.134C96.2413 28.526 95.84 28.7873 95.336 28.918ZM91.808 27.952H93.012C93.292 27.952 93.4973 27.896 93.628 27.784C93.768 27.672 93.838 27.4993 93.838 27.266C93.838 27.0233 93.768 26.846 93.628 26.734C93.4973 26.6127 93.292 26.552 93.012 26.552H91.808V27.952ZM93.222 31.508C93.502 31.508 93.7073 31.4567 93.838 31.354C93.978 31.242 94.048 31.0647 94.048 30.822C94.048 30.346 93.7727 30.108 93.222 30.108H91.808V31.508H93.222ZM104.626 32.502H101.322L100.832 34H97.5703L101.196 24.088H104.78L108.392 34H105.116L104.626 32.502ZM103.87 30.164L102.974 27.406L102.078 30.164H103.87ZM118.604 34H115.496L112.206 29.016V34H109.098V24.088H112.206L115.496 29.156V24.088H118.604V34ZM126.085 27.476C125.963 27.28 125.791 27.1307 125.567 27.028C125.343 26.916 125.072 26.86 124.755 26.86C124.157 26.86 123.695 27.056 123.369 27.448C123.042 27.8307 122.879 28.358 122.879 29.03C122.879 29.8047 123.061 30.3833 123.425 30.766C123.789 31.1487 124.349 31.34 125.105 31.34C125.823 31.34 126.402 31.0507 126.841 30.472H124.363V28.274H129.417V31.382C128.987 32.1193 128.395 32.754 127.639 33.286C126.883 33.8087 125.926 34.07 124.769 34.07C123.742 34.07 122.846 33.86 122.081 33.44C121.325 33.0107 120.741 32.4133 120.331 31.648C119.929 30.8827 119.729 30.01 119.729 29.03C119.729 28.05 119.929 27.1773 120.331 26.412C120.741 25.6467 121.325 25.054 122.081 24.634C122.837 24.2047 123.723 23.99 124.741 23.99C126.038 23.99 127.093 24.3027 127.905 24.928C128.726 25.5533 129.211 26.4027 129.361 27.476H126.085ZM136.528 34L133.644 29.702V34H130.536V24.088H133.644V28.26L136.486 24.088H140L136.584 28.834L140.224 34H136.528ZM145.934 34.098C145.001 34.098 144.142 33.8787 143.358 33.44C142.584 33.0013 141.968 32.3947 141.51 31.62C141.053 30.8453 140.824 29.9727 140.824 29.002C140.824 28.0313 141.053 27.1587 141.51 26.384C141.968 25.6093 142.584 25.0073 143.358 24.578C144.142 24.1393 145.001 23.92 145.934 23.92C146.868 23.92 147.722 24.1393 148.496 24.578C149.271 25.0073 149.882 25.6093 150.33 26.384C150.788 27.1587 151.016 28.0313 151.016 29.002C151.016 29.9727 150.788 30.8453 150.33 31.62C149.882 32.3947 149.266 33.0013 148.482 33.44C147.708 33.8787 146.858 34.098 145.934 34.098ZM145.934 31.2C146.55 31.2 147.026 31.004 147.362 30.612C147.698 30.2107 147.866 29.674 147.866 29.002C147.866 28.3207 147.698 27.784 147.362 27.392C147.026 26.9907 146.55 26.79 145.934 26.79C145.309 26.79 144.828 26.9907 144.492 27.392C144.156 27.784 143.988 28.3207 143.988 29.002C143.988 29.674 144.156 30.2107 144.492 30.612C144.828 31.004 145.309 31.2 145.934 31.2ZM158.13 34L155.246 29.702V34H152.138V24.088H155.246V28.26L158.088 24.088H161.602L158.186 28.834L161.826 34H158.13Z" fill="white"/>
<path d="M96.602 44.114C96.602 43.162 96.8167 42.308 97.246 41.552C97.6753 40.7867 98.2587 40.1893 98.996 39.76C99.7427 39.3307 100.569 39.116 101.474 39.116C102.538 39.116 103.467 39.3727 104.26 39.886C105.053 40.3993 105.632 41.1273 105.996 42.07H104.47C104.199 41.482 103.807 41.0293 103.294 40.712C102.79 40.3947 102.183 40.236 101.474 40.236C100.793 40.236 100.181 40.3947 99.64 40.712C99.0987 41.0293 98.674 41.482 98.366 42.07C98.058 42.6487 97.904 43.33 97.904 44.114C97.904 44.8887 98.058 45.57 98.366 46.158C98.674 46.7367 99.0987 47.1847 99.64 47.502C100.181 47.8193 100.793 47.978 101.474 47.978C102.183 47.978 102.79 47.824 103.294 47.516C103.807 47.1987 104.199 46.746 104.47 46.158H105.996C105.632 47.0913 105.053 47.8147 104.26 48.328C103.467 48.832 102.538 49.084 101.474 49.084C100.569 49.084 99.7427 48.874 98.996 48.454C98.2587 48.0247 97.6753 47.432 97.246 46.676C96.8167 45.92 96.602 45.066 96.602 44.114ZM109.166 47.964H112.582V49H107.892V39.242H109.166V47.964ZM118.359 49.098C117.454 49.098 116.628 48.888 115.881 48.468C115.135 48.0387 114.542 47.446 114.103 46.69C113.674 45.9247 113.459 45.066 113.459 44.114C113.459 43.162 113.674 42.308 114.103 41.552C114.542 40.7867 115.135 40.194 115.881 39.774C116.628 39.3447 117.454 39.13 118.359 39.13C119.274 39.13 120.105 39.3447 120.851 39.774C121.598 40.194 122.186 40.782 122.615 41.538C123.045 42.294 123.259 43.1527 123.259 44.114C123.259 45.0753 123.045 45.934 122.615 46.69C122.186 47.446 121.598 48.0387 120.851 48.468C120.105 48.888 119.274 49.098 118.359 49.098ZM118.359 47.992C119.041 47.992 119.652 47.8333 120.193 47.516C120.744 47.1987 121.173 46.746 121.481 46.158C121.799 45.57 121.957 44.8887 121.957 44.114C121.957 43.33 121.799 42.6487 121.481 42.07C121.173 41.482 120.749 41.0293 120.207 40.712C119.666 40.3947 119.05 40.236 118.359 40.236C117.669 40.236 117.053 40.3947 116.511 40.712C115.97 41.0293 115.541 41.482 115.223 42.07C114.915 42.6487 114.761 43.33 114.761 44.114C114.761 44.8887 114.915 45.57 115.223 46.158C115.541 46.746 115.97 47.1987 116.511 47.516C117.062 47.8333 117.678 47.992 118.359 47.992ZM126.187 39.242V45.416C126.187 46.284 126.397 46.928 126.817 47.348C127.247 47.768 127.839 47.978 128.595 47.978C129.342 47.978 129.925 47.768 130.345 47.348C130.775 46.928 130.989 46.284 130.989 45.416V39.242H132.263V45.402C132.263 46.214 132.1 46.9 131.773 47.46C131.447 48.0107 131.003 48.4213 130.443 48.692C129.893 48.9627 129.272 49.098 128.581 49.098C127.891 49.098 127.265 48.9627 126.705 48.692C126.155 48.4213 125.716 48.0107 125.389 47.46C125.072 46.9 124.913 46.214 124.913 45.402V39.242H126.187ZM137.427 39.242C138.491 39.242 139.41 39.4427 140.185 39.844C140.969 40.236 141.566 40.8007 141.977 41.538C142.397 42.2753 142.607 43.1433 142.607 44.142C142.607 45.1407 142.397 46.0087 141.977 46.746C141.566 47.474 140.969 48.034 140.185 48.426C139.41 48.8087 138.491 49 137.427 49H134.389V39.242H137.427ZM137.427 47.95C138.687 47.95 139.648 47.6187 140.311 46.956C140.973 46.284 141.305 45.346 141.305 44.142C141.305 42.9287 140.969 41.9813 140.297 41.3C139.634 40.6187 138.677 40.278 137.427 40.278H135.663V47.95H137.427ZM151.119 39.242L147.941 45.318V49H146.667V45.318L143.475 39.242H144.889L147.297 44.184L149.705 39.242H151.119Z" fill="white"/>
<path d="M213.488 84.3589C212.56 83.3721 209.698 81.0886 208.679 80.1649C202.097 74.1578 193.596 73.3202 186.121 71.9604C174.186 69.7859 164.107 71.2949 153.54 76.579C145.248 80.7272 138.485 87.6637 131.869 93.5388C128.428 96.5853 125.768 98.4672 121.148 100.154C117.023 101.657 111.3 102.478 108.271 105.432C101.842 111.698 105.207 120.751 115.585 124.94C125.964 129.128 138.234 131.21 149.311 131.853C164.072 132.714 178.625 133.54 193.338 132.547C203.319 131.876 213.216 131.165 223.12 130.052C228.005 129.478 235.564 127.51 239.954 125.341C253.216 118.818 244.987 105.782 237.784 100.206C229.792 94.0436 223.587 95.0821 213.488 84.3589Z" fill="white"/>
<path d="M91.5678 118.558C90.8357 117.778 88.5786 115.973 87.7749 115.243C82.5836 110.496 75.8785 109.834 69.9827 108.759C60.5691 107.041 52.6198 108.233 44.2852 112.409C37.7453 115.688 32.4109 121.17 27.1921 125.813C24.4782 128.221 22.3807 129.708 18.7364 131.041C15.483 132.229 10.9688 132.877 8.57966 135.213C3.50954 140.164 6.16297 147.32 14.3489 150.63C22.5349 153.94 32.2127 155.586 40.9492 156.094C52.5923 156.774 64.0703 157.427 75.6748 156.642C83.547 156.112 91.3531 155.549 99.1648 154.67C103.018 154.216 108.98 152.661 112.443 150.947C122.902 145.791 116.412 135.489 110.731 131.082C104.428 126.212 99.5336 127.033 91.5678 118.558Z" fill="white"/>
</svg>
