<svg width="252" height="248" viewBox="0 0 252 248" fill="none" xmlns="http://www.w3.org/2000/svg">
<path d="M94.51 28.988C95.0607 29.0907 95.5133 29.366 95.868 29.814C96.2227 30.262 96.4 30.7753 96.4 31.354C96.4 31.8767 96.2693 32.3387 96.008 32.74C95.756 33.132 95.3873 33.44 94.902 33.664C94.4167 33.888 93.8427 34 93.18 34H88.966V24.228H92.998C93.6607 24.228 94.23 24.3353 94.706 24.55C95.1913 24.7647 95.5553 25.0633 95.798 25.446C96.05 25.8287 96.176 26.2627 96.176 26.748C96.176 27.3173 96.022 27.7933 95.714 28.176C95.4153 28.5587 95.014 28.8293 94.51 28.988ZM90.926 28.26H92.718C93.1847 28.26 93.544 28.1573 93.796 27.952C94.048 27.7373 94.174 27.434 94.174 27.042C94.174 26.65 94.048 26.3467 93.796 26.132C93.544 25.9173 93.1847 25.81 92.718 25.81H90.926V28.26ZM92.9 32.404C93.376 32.404 93.7447 32.292 94.006 32.068C94.2767 31.844 94.412 31.5267 94.412 31.116C94.412 30.696 94.272 30.3693 93.992 30.136C93.712 29.8933 93.334 29.772 92.858 29.772H90.926V32.404H92.9ZM103.954 32.138H100.062L99.4181 34H97.3601L100.874 24.214H103.156L106.67 34H104.598L103.954 32.138ZM103.422 30.57L102.008 26.482L100.594 30.57H103.422ZM116.342 34H114.382L109.944 27.294V34H107.984V24.214H109.944L114.382 30.934V24.214H116.342V34ZM125.083 27.168C124.859 26.7573 124.551 26.4447 124.159 26.23C123.767 26.0153 123.309 25.908 122.787 25.908C122.208 25.908 121.695 26.0387 121.247 26.3C120.799 26.5613 120.449 26.9347 120.197 27.42C119.945 27.9053 119.819 28.4653 119.819 29.1C119.819 29.7533 119.945 30.3227 120.197 30.808C120.458 31.2933 120.817 31.6667 121.275 31.928C121.732 32.1893 122.264 32.32 122.871 32.32C123.617 32.32 124.229 32.124 124.704 31.732C125.181 31.3307 125.493 30.7753 125.643 30.066H122.283V28.568H127.575V30.276C127.444 30.9573 127.164 31.5873 126.735 32.166C126.305 32.7447 125.75 33.2113 125.069 33.566C124.397 33.9113 123.641 34.084 122.801 34.084C121.858 34.084 121.004 33.874 120.239 33.454C119.483 33.0247 118.885 32.432 118.447 31.676C118.017 30.92 117.803 30.0613 117.803 29.1C117.803 28.1387 118.017 27.28 118.447 26.524C118.885 25.7587 119.483 25.166 120.239 24.746C121.004 24.3167 121.853 24.102 122.787 24.102C123.888 24.102 124.845 24.3727 125.657 24.914C126.469 25.446 127.029 26.1973 127.337 27.168H125.083ZM134.541 34L130.985 29.646V34H129.025V24.228H130.985V28.61L134.541 24.228H136.907L132.875 29.072L137.019 34H134.541ZM142.844 34.098C141.929 34.098 141.089 33.8833 140.324 33.454C139.558 33.0247 138.952 32.432 138.504 31.676C138.056 30.9107 137.832 30.0473 137.832 29.086C137.832 28.134 138.056 27.28 138.504 26.524C138.952 25.7587 139.558 25.1613 140.324 24.732C141.089 24.3027 141.929 24.088 142.844 24.088C143.768 24.088 144.608 24.3027 145.364 24.732C146.129 25.1613 146.731 25.7587 147.17 26.524C147.618 27.28 147.842 28.134 147.842 29.086C147.842 30.0473 147.618 30.9107 147.17 31.676C146.731 32.432 146.129 33.0247 145.364 33.454C144.598 33.8833 143.758 34.098 142.844 34.098ZM142.844 32.348C143.432 32.348 143.95 32.2173 144.398 31.956C144.846 31.6853 145.196 31.3027 145.448 30.808C145.7 30.3133 145.826 29.7393 145.826 29.086C145.826 28.4327 145.7 27.8633 145.448 27.378C145.196 26.8833 144.846 26.5053 144.398 26.244C143.95 25.9827 143.432 25.852 142.844 25.852C142.256 25.852 141.733 25.9827 141.276 26.244C140.828 26.5053 140.478 26.8833 140.226 27.378C139.974 27.8633 139.848 28.4327 139.848 29.086C139.848 29.7393 139.974 30.3133 140.226 30.808C140.478 31.3027 140.828 31.6853 141.276 31.956C141.733 32.2173 142.256 32.348 142.844 32.348ZM154.816 34L151.26 29.646V34H149.3V24.228H151.26V28.61L154.816 24.228H157.182L153.15 29.072L157.294 34H154.816Z" fill="black"/>
<path d="M111.116 39.242C112.18 39.242 113.099 39.4427 113.874 39.844C114.658 40.236 115.255 40.8007 115.666 41.538C116.086 42.2753 116.296 43.1433 116.296 44.142C116.296 45.1407 116.086 46.0087 115.666 46.746C115.255 47.474 114.658 48.034 113.874 48.426C113.099 48.8087 112.18 49 111.116 49H108.078V39.242H111.116ZM111.116 47.95C112.376 47.95 113.337 47.6187 114 46.956C114.663 46.284 114.994 45.346 114.994 44.142C114.994 42.9287 114.658 41.9813 113.986 41.3C113.323 40.6187 112.367 40.278 111.116 40.278H109.352V47.95H111.116ZM119.222 39.242V45.416C119.222 46.284 119.432 46.928 119.852 47.348C120.282 47.768 120.874 47.978 121.63 47.978C122.377 47.978 122.96 47.768 123.38 47.348C123.81 46.928 124.024 46.284 124.024 45.416V39.242H125.298V45.402C125.298 46.214 125.135 46.9 124.808 47.46C124.482 48.0107 124.038 48.4213 123.478 48.692C122.928 48.9627 122.307 49.098 121.616 49.098C120.926 49.098 120.3 48.9627 119.74 48.692C119.19 48.4213 118.751 48.0107 118.424 47.46C118.107 46.9 117.948 46.214 117.948 45.402V39.242H119.222ZM130.518 49.098C129.874 49.098 129.295 48.986 128.782 48.762C128.278 48.5287 127.881 48.2113 127.592 47.81C127.302 47.3993 127.153 46.928 127.144 46.396H128.502C128.548 46.8533 128.735 47.2407 129.062 47.558C129.398 47.866 129.883 48.02 130.518 48.02C131.124 48.02 131.6 47.8707 131.946 47.572C132.3 47.264 132.478 46.872 132.478 46.396C132.478 46.0227 132.375 45.7193 132.17 45.486C131.964 45.2527 131.708 45.0753 131.4 44.954C131.092 44.8327 130.676 44.702 130.154 44.562C129.51 44.394 128.992 44.226 128.6 44.058C128.217 43.89 127.886 43.6287 127.606 43.274C127.335 42.91 127.2 42.4247 127.2 41.818C127.2 41.286 127.335 40.8147 127.606 40.404C127.876 39.9933 128.254 39.676 128.74 39.452C129.234 39.228 129.799 39.116 130.434 39.116C131.348 39.116 132.095 39.3447 132.674 39.802C133.262 40.2593 133.593 40.866 133.668 41.622H132.268C132.221 41.2487 132.025 40.922 131.68 40.642C131.334 40.3527 130.877 40.208 130.308 40.208C129.776 40.208 129.342 40.348 129.006 40.628C128.67 40.8987 128.502 41.2813 128.502 41.776C128.502 42.1307 128.6 42.42 128.796 42.644C129.001 42.868 129.248 43.0407 129.538 43.162C129.836 43.274 130.252 43.4047 130.784 43.554C131.428 43.7313 131.946 43.9087 132.338 44.086C132.73 44.254 133.066 44.52 133.346 44.884C133.626 45.2387 133.766 45.724 133.766 46.34C133.766 46.816 133.64 47.264 133.388 47.684C133.136 48.104 132.762 48.4447 132.268 48.706C131.773 48.9673 131.19 49.098 130.518 49.098ZM141.647 39.242V40.278H138.987V49H137.713V40.278H135.039V39.242H141.647Z" fill="black"/>
<g clip-path="url(#clip0_20_482)">
<path d="M123.479 100.629C126.2 100.699 128.317 103.067 128.281 106.006C128.24 109.227 125.685 112.051 122.834 112.016C120.073 111.982 117.855 109.331 117.926 106.15C117.997 102.969 120.498 100.531 123.479 100.629Z" fill="#282828"/>
<path d="M99.9932 129.445C100.653 131.168 101.196 132.931 101.62 134.724C101.62 139.334 98.7158 141.466 95.6465 139.945C92.5772 138.423 89.904 136.62 89.839 132.453C89.7931 131.214 90.1585 129.994 90.8808 128.974C91.6031 127.953 92.6439 127.187 93.8486 126.789C95.0275 126.387 96.3193 126.438 97.4609 126.931C98.6025 127.425 99.5081 128.324 99.9932 129.445Z" fill="#282828"/>
<path d="M91.0749 77.0001C93.4819 77.0346 95.5104 79.1725 95.5104 81.6907C95.5104 84.428 93.4228 86.7907 91.0158 86.7791C88.6088 86.7676 86.5212 84.4395 86.5863 81.685C86.6395 79.2704 88.8513 76.9655 91.0749 77.0001Z" fill="#282828"/>
<path d="M88.7035 102.678C90.4363 102.718 91.9857 104.464 91.8911 106.28C91.8632 107.203 91.4638 108.079 90.779 108.719C90.0941 109.358 89.1787 109.709 88.2304 109.697C87.8004 109.675 87.3793 109.569 86.9921 109.386C86.605 109.203 86.2597 108.945 85.9766 108.629C85.6936 108.313 85.4787 107.945 85.3447 107.546C85.2107 107.147 85.1603 106.726 85.1965 106.308C85.2557 104.389 86.9471 102.638 88.7035 102.678Z" fill="#282828"/>
<path d="M65.1246 94.6853C67.9692 94.6046 70.7132 97.6992 70.6896 100.961C70.6898 102.319 70.1429 103.624 69.1663 104.594C68.1898 105.564 66.8617 106.121 65.4676 106.147C62.6939 106.101 60.7364 103.796 60.7364 100.529C60.6891 96.9904 62.345 94.7718 65.1246 94.6853Z" fill="#282828"/>
<path d="M49.565 120.617C50.5349 120.461 51.5344 120.473 52.522 120.409C56.8155 120.444 58.2822 121.516 59.0274 125.198C59.8435 129.232 57.6021 132.482 53.7048 132.747C52.338 132.823 50.9667 132.763 49.6123 132.568C46.4661 132.136 44.7629 129.941 44.692 126.391C44.6732 125.023 45.1523 123.692 46.0443 122.635C46.9363 121.578 48.1836 120.863 49.565 120.617Z" fill="#282828"/>
<path d="M48.5833 210.876C47.3571 210.852 46.1896 210.359 45.3324 209.505C44.4751 208.65 43.9966 207.501 44 206.306C43.9586 203.506 46.4366 200.653 48.9027 200.671C50.243 200.71 51.5149 201.256 52.4481 202.195C53.3812 203.133 53.9021 204.389 53.8999 205.695C53.8585 208.438 51.3096 210.922 48.5833 210.876Z" fill="#282828"/>
<path d="M54.0537 172.392C54.0537 170.153 56.0338 168.049 58.1617 168.049C60.383 168.049 62.3718 170.065 62.3327 172.281C62.2892 174.793 60.4417 176.701 58.0595 176.692C55.6773 176.684 54.0668 174.948 54.0537 172.392Z" fill="#282828"/>
<path d="M68.1111 236.445C65.4084 236.162 63.9713 234.295 63.8057 231.535C63.7751 230.913 63.8752 230.291 64.0996 229.708C64.3241 229.125 64.6683 228.593 65.1113 228.144C65.5542 227.696 66.0865 227.34 66.6755 227.098C67.2645 226.857 67.8979 226.735 68.5369 226.74C71.2691 226.775 73.1971 228.803 73.1557 231.592C73.1143 234.382 70.8552 236.744 68.1111 236.445Z" fill="#282828"/>
<path d="M75.5923 148.035C75.1626 148.014 74.7416 147.909 74.3545 147.726C73.9673 147.544 73.6219 147.287 73.3388 146.971C73.0557 146.655 72.8407 146.287 72.7066 145.889C72.5726 145.491 72.5222 145.07 72.5584 144.653C72.6176 142.728 74.3326 140.976 76.0654 141.016C77.7982 141.057 79.3535 142.809 79.253 144.624C79.2251 145.547 78.8255 146.422 78.1404 147.061C77.4554 147.699 76.5401 148.049 75.5923 148.035Z" fill="#282828"/>
<path d="M88.1003 215.699C85.5455 215.572 83.7358 213.55 83.8186 210.922C83.9014 208.294 86.2906 205.736 88.7686 205.799C91.2465 205.863 93.3992 208.323 93.2691 210.882C93.2273 212.185 92.6623 213.419 91.6956 214.32C90.729 215.221 89.4379 215.717 88.1003 215.699Z" fill="#282828"/>
<path d="M94.1891 179.347C92.5822 180.003 90.5182 179.177 90.0121 177.601C89.806 176.85 89.6476 176.086 89.5378 175.313C89.5157 173.602 90.2381 172.547 91.3733 172.202C91.9547 172.024 92.5759 172.045 93.145 172.261C93.714 172.477 94.2008 172.877 94.5331 173.402C94.9337 174.022 95.3391 174.642 95.6855 175.29C96.5209 176.869 95.8379 178.671 94.1891 179.347Z" fill="#282828"/>
<path d="M109.414 239.994C108.984 239.974 108.562 239.87 108.174 239.687C107.787 239.505 107.441 239.248 107.157 238.932C106.873 238.616 106.658 238.248 106.523 237.849C106.389 237.451 106.338 237.03 106.374 236.612C106.439 234.687 108.149 232.935 109.881 232.975C111.614 233.016 113.169 234.768 113.075 236.583C113.047 237.506 112.647 238.381 111.962 239.02C111.277 239.658 110.362 240.008 109.414 239.994Z" fill="#282828"/>
<path d="M119.11 210.79C116.573 210.963 114.497 208.865 114.379 206.03C114.284 203.488 116.744 200.878 119.269 200.895C121.463 200.895 123.61 203.269 123.681 205.73C123.752 208.191 121.588 210.623 119.11 210.79Z" fill="#282828"/>
<path d="M117.954 174.457C114.695 174.503 112.04 171.61 112.146 168.164C112.253 164.718 114.955 162.009 118.22 162.067C121.484 162.125 123.962 164.724 123.921 168.054C123.88 171.385 120.976 174.41 117.954 174.457Z" fill="#282828"/>
<path d="M126.505 150.801C124.039 150.801 122.011 148.456 122.076 145.701C122.129 143.293 124.341 140.988 126.565 141.016C128.971 141.051 131 143.195 131 145.707C131.03 148.444 128.912 150.813 126.505 150.801Z" fill="#282828"/>
</g>
<g clip-path="url(#clip1_20_482)">
<path d="M138.521 209.371C135.8 209.301 133.683 206.933 133.719 203.994C133.76 200.773 136.315 197.949 139.166 197.984C141.927 198.018 144.145 200.669 144.074 203.85C144.003 207.031 141.502 209.469 138.521 209.371Z" fill="#282828"/>
<path d="M162.007 180.555C161.347 178.832 160.804 177.069 160.38 175.276C160.38 170.666 163.284 168.534 166.354 170.055C169.423 171.577 172.096 173.38 172.161 177.547C172.207 178.786 171.841 180.006 171.119 181.026C170.397 182.047 169.356 182.813 168.151 183.211C166.973 183.613 165.681 183.562 164.539 183.069C163.398 182.575 162.492 181.676 162.007 180.555Z" fill="#282828"/>
<path d="M170.925 233C168.518 232.965 166.49 230.828 166.49 228.309C166.49 225.572 168.577 223.209 170.984 223.221C173.391 223.232 175.479 225.561 175.414 228.315C175.361 230.73 173.149 233.035 170.925 233Z" fill="#282828"/>
<path d="M173.296 207.322C171.564 207.282 170.014 205.536 170.109 203.72C170.137 202.797 170.536 201.921 171.221 201.281C171.906 200.642 172.821 200.291 173.77 200.303C174.2 200.325 174.621 200.431 175.008 200.614C175.395 200.797 175.74 201.055 176.023 201.371C176.306 201.687 176.521 202.055 176.655 202.454C176.789 202.853 176.84 203.274 176.803 203.692C176.744 205.61 175.053 207.362 173.296 207.322Z" fill="#282828"/>
<path d="M196.875 215.315C194.031 215.395 191.287 212.301 191.31 209.039C191.31 207.681 191.857 206.376 192.834 205.406C193.81 204.436 195.138 203.879 196.532 203.853C199.306 203.899 201.264 206.204 201.264 209.471C201.311 213.01 199.655 215.228 196.875 215.315Z" fill="#282828"/>
<path d="M212.435 189.383C211.465 189.539 210.466 189.527 209.478 189.591C205.184 189.556 203.718 188.484 202.973 184.802C202.157 180.768 204.398 177.518 208.295 177.253C209.662 177.177 211.033 177.237 212.388 177.432C215.534 177.864 217.237 180.059 217.308 183.609C217.327 184.977 216.848 186.308 215.956 187.365C215.064 188.422 213.816 189.137 212.435 189.383Z" fill="#282828"/>
<path d="M213.417 99.124C214.643 99.1482 215.81 99.6406 216.668 100.495C217.525 101.35 218.003 102.499 218 103.694C218.041 106.494 215.563 109.347 213.097 109.329C211.757 109.29 210.485 108.744 209.552 107.805C208.619 106.867 208.098 105.611 208.1 104.305C208.142 101.562 210.69 99.0779 213.417 99.124Z" fill="#282828"/>
<path d="M207.946 137.608C207.946 139.847 205.966 141.951 203.838 141.951C201.617 141.951 199.628 139.935 199.667 137.719C199.711 135.207 201.558 133.299 203.94 133.308C206.323 133.316 207.933 135.052 207.946 137.608Z" fill="#282828"/>
<path d="M193.889 73.5554C196.592 73.8378 198.029 75.7049 198.194 78.4652C198.225 79.0871 198.125 79.7086 197.9 80.2916C197.676 80.8746 197.332 81.4068 196.889 81.8556C196.446 82.3044 195.914 82.6605 195.324 82.9019C194.735 83.1433 194.102 83.265 193.463 83.2596C190.731 83.225 188.803 81.1966 188.844 78.4076C188.886 75.6185 191.145 73.2558 193.889 73.5554Z" fill="#282828"/>
<path d="M186.408 161.965C186.837 161.986 187.258 162.091 187.646 162.274C188.033 162.456 188.378 162.713 188.661 163.029C188.944 163.345 189.159 163.713 189.293 164.111C189.427 164.509 189.478 164.93 189.442 165.347C189.382 167.272 187.667 169.024 185.935 168.984C184.202 168.943 182.647 167.191 182.747 165.376C182.775 164.453 183.175 163.578 183.86 162.939C184.545 162.301 185.46 161.951 186.408 161.965Z" fill="#282828"/>
<path d="M173.9 94.3007C176.455 94.4275 178.264 96.4502 178.181 99.0779C178.099 101.706 175.709 104.264 173.231 104.201C170.754 104.137 168.601 101.677 168.731 99.1182C168.773 97.8154 169.338 96.5806 170.304 95.6796C171.271 94.7786 172.562 94.2835 173.9 94.3007Z" fill="#282828"/>
<path d="M167.811 130.653C169.418 129.997 171.482 130.823 171.988 132.399C172.194 133.15 172.352 133.914 172.462 134.687C172.484 136.398 171.762 137.453 170.627 137.798C170.045 137.976 169.424 137.955 168.855 137.739C168.286 137.523 167.799 137.123 167.467 136.598C167.066 135.978 166.661 135.358 166.314 134.71C165.479 133.131 166.162 131.329 167.811 130.653Z" fill="#282828"/>
<path d="M152.586 70.0058C153.016 70.026 153.438 70.1305 153.826 70.313C154.213 70.4954 154.559 70.7522 154.843 71.0679C155.127 71.3836 155.342 71.7519 155.477 72.1505C155.611 72.5492 155.662 72.9702 155.626 73.3884C155.561 75.3131 153.851 77.0649 152.119 77.0246C150.386 76.9843 148.831 75.2324 148.925 73.4172C148.953 72.494 149.353 71.6185 150.038 70.9802C150.723 70.3418 151.638 69.9917 152.586 70.0058Z" fill="#282828"/>
<path d="M142.89 99.2103C145.427 99.0375 147.503 101.135 147.621 103.97C147.716 106.512 145.256 109.122 142.731 109.105C140.537 109.105 138.39 106.731 138.319 104.27C138.248 101.809 140.412 99.3775 142.89 99.2103Z" fill="#282828"/>
<path d="M144.046 135.543C147.305 135.497 149.96 138.39 149.854 141.836C149.747 145.282 147.045 147.991 143.78 147.933C140.516 147.875 138.038 145.276 138.079 141.946C138.12 138.615 141.024 135.59 144.046 135.543Z" fill="#282828"/>
<path d="M135.495 159.199C137.961 159.199 139.989 161.544 139.924 164.299C139.871 166.707 137.659 169.012 135.435 168.984C133.029 168.949 131 166.805 131 164.293C130.97 161.556 133.088 159.187 135.495 159.199Z" fill="#282828"/>
</g>
<defs>
<clipPath id="clip0_20_482">
<rect width="87" height="163" fill="white" transform="translate(44 77)"/>
</clipPath>
<clipPath id="clip1_20_482">
<rect width="87" height="163" fill="white" transform="matrix(-1 0 0 -1 218 233)"/>
</clipPath>
</defs>
</svg>
