<svg width="437" height="589" viewBox="0 0 437 589" fill="none" xmlns="http://www.w3.org/2000/svg">
<path d="M193.57 122.09C195.85 122.09 197.82 122.52 199.48 123.38C201.16 124.22 202.44 125.43 203.32 127.01C204.22 128.59 204.67 130.45 204.67 132.59C204.67 134.73 204.22 136.59 203.32 138.17C202.44 139.73 201.16 140.93 199.48 141.77C197.82 142.59 195.85 143 193.57 143H187.06V122.09H193.57ZM193.57 140.75C196.27 140.75 198.33 140.04 199.75 138.62C201.17 137.18 201.88 135.17 201.88 132.59C201.88 129.99 201.16 127.96 199.72 126.5C198.3 125.04 196.25 124.31 193.57 124.31H189.79V140.75H193.57ZM210.941 122.09V135.32C210.941 137.18 211.391 138.56 212.291 139.46C213.211 140.36 214.481 140.81 216.101 140.81C217.701 140.81 218.951 140.36 219.851 139.46C220.771 138.56 221.231 137.18 221.231 135.32V122.09H223.961V135.29C223.961 137.03 223.611 138.5 222.911 139.7C222.211 140.88 221.261 141.76 220.061 142.34C218.881 142.92 217.551 143.21 216.071 143.21C214.591 143.21 213.251 142.92 212.051 142.34C210.871 141.76 209.931 140.88 209.231 139.7C208.551 138.5 208.211 137.03 208.211 135.29V122.09H210.941ZM235.145 143.21C233.765 143.21 232.525 142.97 231.425 142.49C230.345 141.99 229.495 141.31 228.875 140.45C228.255 139.57 227.935 138.56 227.915 137.42H230.825C230.925 138.4 231.325 139.23 232.025 139.91C232.745 140.57 233.785 140.9 235.145 140.9C236.445 140.9 237.465 140.58 238.205 139.94C238.965 139.28 239.345 138.44 239.345 137.42C239.345 136.62 239.125 135.97 238.685 135.47C238.245 134.97 237.695 134.59 237.035 134.33C236.375 134.07 235.485 133.79 234.365 133.49C232.985 133.13 231.875 132.77 231.035 132.41C230.215 132.05 229.505 131.49 228.905 130.73C228.325 129.95 228.035 128.91 228.035 127.61C228.035 126.47 228.325 125.46 228.905 124.58C229.485 123.7 230.295 123.02 231.335 122.54C232.395 122.06 233.605 121.82 234.965 121.82C236.925 121.82 238.525 122.31 239.765 123.29C241.025 124.27 241.735 125.57 241.895 127.19H238.895C238.795 126.39 238.375 125.69 237.635 125.09C236.895 124.47 235.915 124.16 234.695 124.16C233.555 124.16 232.625 124.46 231.905 125.06C231.185 125.64 230.825 126.46 230.825 127.52C230.825 128.28 231.035 128.9 231.455 129.38C231.895 129.86 232.425 130.23 233.045 130.49C233.685 130.73 234.575 131.01 235.715 131.33C237.095 131.71 238.205 132.09 239.045 132.47C239.885 132.83 240.605 133.4 241.205 134.18C241.805 134.94 242.105 135.98 242.105 137.3C242.105 138.32 241.835 139.28 241.295 140.18C240.755 141.08 239.955 141.81 238.895 142.37C237.835 142.93 236.585 143.21 235.145 143.21ZM258.993 122.09V124.31H253.293V143H250.563V124.31H244.833V122.09H258.993Z" fill="black"/>
<path d="M26.0897 31.08H53.5297C58.8097 31.08 62.943 32.3867 65.9297 35C68.9164 37.6133 70.4097 41.4 70.4097 46.36C70.4097 48.8667 69.823 51.16 68.6497 53.24C67.4764 55.2667 65.8764 56.84 63.8497 57.96C66.623 58.9733 68.703 60.52 70.0897 62.6C71.4764 64.6267 72.1697 67.2933 72.1697 70.6C72.1697 73.96 71.3964 76.8933 69.8497 79.4C68.3564 81.8533 66.2764 83.7467 63.6097 85.08C60.9964 86.36 58.0897 87 54.8897 87H26.0897V31.08ZM51.2097 53.8C53.343 53.8 55.023 53.2667 56.2497 52.2C57.4764 51.1333 58.0897 49.4267 58.0897 47.08C58.0897 44.52 57.4764 42.76 56.2497 41.8C55.0764 40.84 53.263 40.36 50.8097 40.36H38.2497V53.8H51.2097ZM51.9297 77.72C54.543 77.72 56.5164 77.2133 57.8497 76.2C59.2364 75.1333 59.9297 73.2933 59.9297 70.68C59.9297 68.0133 59.2097 66.0933 57.7697 64.92C56.383 63.7467 54.303 63.16 51.5297 63.16H38.2497V77.72H51.9297ZM94.5459 31.08H106.466L128.786 87H116.386L111.586 74.84H89.4259L84.6259 87H72.1459L94.5459 31.08ZM108.386 65.16L100.466 43.88L92.5459 65.16H108.386ZM135.543 31.08H147.383L170.743 67.24V31.08H182.903V87H171.143L147.703 50.84V87H135.543V31.08ZM219.886 88.2C213.913 88.2 208.633 87.0267 204.046 84.68C199.459 82.28 195.913 78.8933 193.406 74.52C190.899 70.1467 189.646 65 189.646 59.08C189.646 53.16 190.899 48.0133 193.406 43.64C195.913 39.2133 199.459 35.8267 204.046 33.48C208.633 31.08 213.913 29.88 219.886 29.88C223.939 29.88 227.513 30.3067 230.606 31.16C233.753 31.96 236.633 33.24 239.246 35V46.6C236.899 44.68 234.206 43.2933 231.166 42.44C228.179 41.5333 224.766 41.08 220.926 41.08C217.353 41.08 214.126 41.8267 211.246 43.32C208.419 44.76 206.179 46.84 204.526 49.56C202.873 52.28 202.046 55.4533 202.046 59.08C202.046 62.76 202.793 65.9867 204.286 68.76C205.833 71.48 207.993 73.5867 210.766 75.08C213.539 76.5733 216.739 77.32 220.366 77.32C223.673 77.32 226.553 76.7333 229.006 75.56V64.76H219.966V55.8H240.766V82.76C235.486 86.3867 228.526 88.2 219.886 88.2ZM247.574 31.08H259.734V55.4L280.854 31.08H295.334L271.654 58.36L296.934 87H282.454L259.734 61.32V87H247.574V31.08ZM325.191 88.2C319.591 88.2 314.498 86.9733 309.911 84.52C305.378 82.0667 301.804 78.6533 299.191 74.28C296.578 69.8533 295.271 64.7867 295.271 59.08C295.271 53.3733 296.578 48.3067 299.191 43.88C301.804 39.4533 305.378 36.0133 309.911 33.56C314.498 31.1067 319.591 29.88 325.191 29.88C330.791 29.88 335.831 31.1067 340.311 33.56C344.844 36.0133 348.418 39.4533 351.031 43.88C353.644 48.3067 354.951 53.3733 354.951 59.08C354.951 64.7867 353.644 69.8533 351.031 74.28C348.418 78.6533 344.844 82.0667 340.311 84.52C335.831 86.9733 330.791 88.2 325.191 88.2ZM325.191 77C328.391 77 331.298 76.28 333.911 74.84C336.578 73.3467 338.684 71.2667 340.231 68.6C341.778 65.88 342.551 62.7067 342.551 59.08C342.551 55.5067 341.778 52.3867 340.231 49.72C338.738 47 336.658 44.92 333.991 43.48C331.378 41.9867 328.444 41.24 325.191 41.24C321.884 41.24 318.898 41.9867 316.231 43.48C313.618 44.92 311.538 47 309.991 49.72C308.444 52.3867 307.671 55.5067 307.671 59.08C307.671 62.7067 308.444 65.88 309.991 68.6C311.538 71.2667 313.644 73.3467 316.311 74.84C318.978 76.28 321.938 77 325.191 77ZM361.637 31.08H373.797V55.4L394.917 31.08H409.397L385.717 58.36L410.997 87H396.517L373.797 61.32V87H361.637V31.08Z" fill="black"/>
<g clip-path="url(#clip0_423_300)">
<path d="M199.477 234.921C206.304 235.097 211.618 241.103 211.529 248.556C211.425 256.725 205.013 263.886 197.859 263.799C190.927 263.711 185.361 256.989 185.539 248.922C185.717 240.855 191.996 234.673 199.477 234.921Z" fill="#282828"/>
<path d="M140.53 308.004C142.186 312.373 143.55 316.845 144.612 321.391C144.612 333.082 137.324 338.489 129.62 334.631C121.917 330.773 115.208 326.199 115.045 315.633C114.93 312.491 115.847 309.396 117.66 306.808C119.473 304.22 122.085 302.277 125.108 301.267C128.067 300.247 131.309 300.377 134.174 301.628C137.039 302.88 139.312 305.16 140.53 308.004Z" fill="#282828"/>
<path d="M118.148 175.001C124.189 175.089 129.28 180.51 129.28 186.897C129.28 193.838 124.041 199.83 118 199.801C111.959 199.772 106.719 193.868 106.883 186.882C107.016 180.759 112.567 174.913 118.148 175.001Z" fill="#282828"/>
<path d="M112.198 240.119C116.547 240.221 120.435 244.649 120.198 249.253C120.128 251.595 119.125 253.817 117.407 255.438C115.688 257.06 113.39 257.951 111.01 257.919C109.931 257.864 108.874 257.596 107.902 257.131C106.931 256.665 106.064 256.013 105.354 255.211C104.643 254.409 104.104 253.475 103.768 252.464C103.431 251.453 103.305 250.386 103.396 249.326C103.544 244.459 107.789 240.017 112.198 240.119Z" fill="#282828"/>
<path d="M53.0198 219.848C60.1591 219.643 67.046 227.491 66.9867 235.762C66.9873 239.208 65.6145 242.516 63.1636 244.976C60.7128 247.436 57.3796 248.85 53.8806 248.915C46.9193 248.798 42.0064 242.953 42.0064 234.666C41.8876 225.693 46.0437 220.067 53.0198 219.848Z" fill="#282828"/>
<path d="M13.9661 285.612C16.4003 285.217 18.9088 285.247 21.3875 285.086C32.1633 285.174 35.8443 287.892 37.7145 297.23C39.7628 307.46 34.1374 315.703 24.356 316.375C20.9256 316.567 17.484 316.415 14.0848 315.922C6.18845 314.826 1.91382 309.258 1.73571 300.255C1.68865 296.785 2.89111 293.411 5.12986 290.731C7.36862 288.05 10.499 286.237 13.9661 285.612Z" fill="#282828"/>
<path d="M11.5044 514.515C8.42681 514.453 5.49676 513.204 3.34525 511.037C1.19374 508.869 -0.00712874 505.956 0.00128398 502.925C-0.102615 495.823 6.11655 488.589 12.306 488.633C15.67 488.732 18.8622 490.118 21.2042 492.498C23.5462 494.878 24.8534 498.063 24.848 501.376C24.7441 508.333 18.3469 514.631 11.5044 514.515Z" fill="#282828"/>
<path d="M25.2344 416.922C25.2344 411.244 30.204 405.906 35.5445 405.906C41.1196 405.906 46.111 411.02 46.0128 416.64C45.9037 423.011 41.2669 427.848 35.2881 427.827C29.3094 427.806 25.2671 423.402 25.2344 416.922Z" fill="#282828"/>
<path d="M60.5144 579.361C53.7313 578.644 50.1244 573.909 49.7088 566.909C49.632 565.332 49.8831 563.756 50.4464 562.277C51.0098 560.799 51.8738 559.449 52.9854 558.311C54.097 557.173 55.433 556.27 56.9113 555.658C58.3897 555.045 59.9793 554.737 61.583 554.75C68.4404 554.838 73.2792 559.982 73.1753 567.055C73.0714 574.129 67.4014 580.121 60.5144 579.361Z" fill="#282828"/>
<path d="M79.2914 355.145C78.213 355.092 77.1564 354.826 76.1848 354.362C75.2131 353.899 74.3462 353.247 73.6357 352.447C72.9252 351.646 72.3855 350.713 72.049 349.703C71.7125 348.693 71.5861 347.626 71.6771 346.567C71.8255 341.686 76.13 337.243 80.4789 337.345C84.8278 337.448 88.7313 341.89 88.479 346.494C88.409 348.835 87.406 351.055 85.6867 352.674C83.9674 354.293 81.6701 355.181 79.2914 355.145Z" fill="#282828"/>
<path d="M110.683 526.751C104.271 526.429 99.7287 521.3 99.9365 514.636C100.144 507.971 106.141 501.483 112.36 501.644C118.579 501.804 123.982 508.045 123.655 514.533C123.55 517.837 122.132 520.969 119.706 523.254C117.28 525.539 114.04 526.794 110.683 526.751Z" fill="#282828"/>
<path d="M125.964 434.557C121.931 436.22 116.751 434.125 115.481 430.128C114.963 428.223 114.566 426.285 114.29 424.326C114.235 419.988 116.048 417.312 118.897 416.436C120.356 415.986 121.915 416.038 123.343 416.586C124.772 417.134 125.993 418.148 126.827 419.478C127.833 421.051 128.85 422.624 129.72 424.268C131.816 428.272 130.102 432.842 125.964 434.557Z" fill="#282828"/>
<path d="M164.177 588.364C163.097 588.313 162.039 588.048 161.066 587.585C160.093 587.122 159.224 586.471 158.512 585.671C157.8 584.87 157.259 583.936 156.921 582.925C156.584 581.914 156.457 580.846 156.548 579.786C156.711 574.905 161.001 570.462 165.35 570.564C169.699 570.667 173.602 575.109 173.365 579.713C173.295 582.054 172.292 584.274 170.573 585.893C168.853 587.512 166.556 588.4 164.177 588.364Z" fill="#282828"/>
<path d="M188.51 514.296C182.142 514.734 176.932 509.415 176.636 502.225C176.398 495.78 182.572 489.159 188.91 489.203C194.417 489.203 199.805 495.224 199.983 501.465C200.161 507.705 194.729 513.872 188.51 514.296Z" fill="#282828"/>
<path d="M185.607 422.157C177.429 422.274 170.764 414.938 171.031 406.198C171.298 397.459 178.082 390.591 186.275 390.737C194.468 390.883 200.687 397.474 200.583 405.921C200.479 414.368 193.192 422.04 185.607 422.157Z" fill="#282828"/>
<path d="M207.07 362.159C200.881 362.159 195.79 356.211 195.953 349.226C196.087 343.117 201.638 337.271 207.219 337.344C213.26 337.432 218.351 342.869 218.351 349.24C218.425 356.182 213.111 362.188 207.07 362.159Z" fill="#282828"/>
</g>
<g clip-path="url(#clip1_423_300)">
<path d="M404.942 249.078C411.769 249.253 417.083 255.259 416.994 262.712C416.89 270.882 410.478 278.043 403.324 277.955C396.392 277.867 390.826 271.145 391.004 263.078C391.182 255.011 397.461 248.829 404.942 249.078Z" fill="#282828"/>
<path d="M358.721 308.004C360.378 312.373 361.741 316.845 362.803 321.391C362.803 333.082 355.515 338.489 347.812 334.631C340.109 330.773 333.399 326.199 333.236 315.633C333.121 312.491 334.038 309.396 335.851 306.808C337.664 304.22 340.276 302.277 343.3 301.267C346.258 300.247 349.5 300.377 352.366 301.628C355.231 302.88 357.504 305.16 358.721 308.004Z" fill="#282828"/>
<path d="M336.34 175.001C342.381 175.089 347.472 180.51 347.472 186.897C347.472 193.838 342.232 199.83 336.191 199.801C330.15 199.772 324.911 193.868 325.074 186.882C325.208 180.759 330.759 174.913 336.34 175.001Z" fill="#282828"/>
<path d="M330.389 240.119C334.738 240.221 338.627 244.649 338.389 249.253C338.319 251.595 337.317 253.817 335.598 255.438C333.879 257.06 331.582 257.951 329.202 257.919C328.122 257.864 327.066 257.596 326.094 257.131C325.122 256.665 324.255 256.013 323.545 255.211C322.835 254.409 322.295 253.475 321.959 252.464C321.623 251.453 321.496 250.386 321.587 249.326C321.736 244.459 325.981 240.017 330.389 240.119Z" fill="#282828"/>
<path d="M271.211 219.848C278.351 219.643 285.237 227.491 285.178 235.762C285.179 239.208 283.806 242.516 281.355 244.976C278.904 247.436 275.571 248.85 272.072 248.915C265.111 248.798 260.198 242.953 260.198 234.666C260.079 225.693 264.235 220.067 271.211 219.848Z" fill="#282828"/>
<path d="M245.469 290.796C247.057 290.539 248.694 290.558 250.311 290.453C257.342 290.51 259.743 292.283 260.963 298.374C262.3 305.046 258.63 310.422 252.248 310.86C250.01 310.986 247.764 310.887 245.546 310.565C240.394 309.85 237.605 306.218 237.489 300.347C237.458 298.084 238.243 295.883 239.704 294.135C241.164 292.386 243.207 291.204 245.469 290.796Z" fill="#282828"/>
<path d="M254.93 499.007C251.853 498.945 248.923 497.697 246.771 495.529C244.62 493.361 243.419 490.448 243.427 487.418C243.323 480.315 249.542 473.081 255.732 473.125C259.096 473.224 262.288 474.611 264.63 476.99C266.972 479.37 268.279 482.555 268.274 485.869C268.17 492.825 261.773 499.124 254.93 499.007Z" fill="#282828"/>
<path d="M243.426 400.882C243.426 391.42 251.59 382.523 260.364 382.523C269.523 382.523 277.723 391.046 277.562 400.413C277.383 411.031 269.765 419.093 259.943 419.059C250.12 419.024 243.48 411.684 243.426 400.882Z" fill="#282828"/>
<path d="M266.116 570.806C259.333 570.09 255.726 565.355 255.31 558.355C255.234 556.777 255.485 555.201 256.048 553.723C256.611 552.244 257.475 550.895 258.587 549.756C259.699 548.618 261.035 547.715 262.513 547.103C263.991 546.491 265.581 546.182 267.185 546.196C274.042 546.283 278.881 551.427 278.777 558.501C278.673 565.574 273.003 571.566 266.116 570.806Z" fill="#282828"/>
<path d="M301.574 351.831C300.909 351.8 300.257 351.647 299.658 351.381C299.058 351.115 298.524 350.74 298.085 350.28C297.647 349.82 297.314 349.284 297.107 348.703C296.899 348.123 296.821 347.51 296.877 346.901C296.969 344.097 299.624 341.544 302.307 341.603C304.99 341.661 307.398 344.214 307.242 346.86C307.199 348.205 306.58 349.481 305.52 350.411C304.459 351.341 303.042 351.851 301.574 351.831Z" fill="#282828"/>
<path d="M319.095 480.435C314.685 480.21 311.561 476.628 311.704 471.974C311.847 467.32 315.971 462.788 320.248 462.9C324.525 463.013 328.241 467.371 328.017 471.902C327.945 474.21 326.969 476.397 325.301 477.992C323.632 479.588 321.403 480.465 319.095 480.435Z" fill="#282828"/>
<path d="M353.143 442.353C343.436 446.123 330.968 441.373 327.911 432.313C326.666 427.995 325.709 423.601 325.046 419.16C324.912 409.325 329.276 403.26 336.134 401.272C339.646 400.252 343.398 400.372 346.836 401.614C350.273 402.856 353.213 405.155 355.221 408.17C357.641 411.736 360.09 415.302 362.183 419.028C367.229 428.104 363.103 438.465 353.143 442.353Z" fill="#282828"/>
<path d="M357.951 558.153C356.871 558.102 355.813 557.837 354.839 557.374C353.866 556.912 352.997 556.26 352.285 555.46C351.573 554.659 351.032 553.725 350.695 552.714C350.357 551.703 350.231 550.635 350.322 549.575C350.485 544.694 354.774 540.251 359.123 540.353C363.472 540.456 367.376 544.898 367.138 549.502C367.068 551.843 366.065 554.063 364.346 555.682C362.627 557.301 360.329 558.189 357.951 558.153Z" fill="#282828"/>
<path d="M399.393 509.007C393.025 509.445 387.815 504.126 387.518 496.936C387.281 490.491 393.455 483.87 399.793 483.914C405.3 483.914 410.688 489.935 410.866 496.176C411.044 502.416 405.612 508.583 399.393 509.007Z" fill="#282828"/>
<path d="M403.798 422.157C395.62 422.274 388.955 414.938 389.223 406.198C389.49 397.459 396.273 390.591 404.466 390.737C412.659 390.883 418.878 397.474 418.775 405.921C418.671 414.368 411.383 422.04 403.798 422.157Z" fill="#282828"/>
<path d="M425.262 362.159C419.072 362.159 413.981 356.211 414.144 349.226C414.278 343.117 419.829 337.271 425.41 337.344C431.451 337.432 436.542 342.869 436.542 349.24C436.616 356.182 431.303 362.188 425.262 362.159Z" fill="#282828"/>
</g>
<defs>
<clipPath id="clip0_423_300">
<rect width="218.352" height="413.375" fill="white" transform="translate(0 175)"/>
</clipPath>
<clipPath id="clip1_423_300">
<rect width="218.352" height="413.375" fill="white" transform="translate(218.191 175)"/>
</clipPath>
</defs>
</svg>
