<?xml version="1.0" encoding="UTF-8" standalone="no"?>
<svg
   xmlns:dc="http://purl.org/dc/elements/1.1/"
   xmlns:cc="http://creativecommons.org/ns#"
   xmlns:rdf="http://www.w3.org/1999/02/22-rdf-syntax-ns#"
   xmlns:svg="http://www.w3.org/2000/svg"
   xmlns="http://www.w3.org/2000/svg"
   xmlns:sodipodi="http://sodipodi.sourceforge.net/DTD/sodipodi-0.dtd"
   xmlns:inkscape="http://www.inkscape.org/namespaces/inkscape"
   width="392"
   height="632"
   viewBox="0 0 392 632"
   fill="none"
   version="1.1"
   id="svg10"
   sodipodi:docname="weather-cloud.svg"
   inkscape:version="1.0.2-2 (e86c870879, 2021-01-15)">
  <metadata
     id="metadata16">
    <rdf:RDF>
      <cc:Work
         rdf:about="">
        <dc:format>image/svg+xml</dc:format>
        <dc:type
           rdf:resource="http://purl.org/dc/dcmitype/StillImage" />
        <dc:title></dc:title>
      </cc:Work>
    </rdf:RDF>
  </metadata>
  <defs
     id="defs14" />
  <sodipodi:namedview
     pagecolor="#7e7e7e"
     bordercolor="#666666"
     borderopacity="1"
     objecttolerance="10"
     gridtolerance="10"
     guidetolerance="10"
     inkscape:pageopacity="0"
     inkscape:pageshadow="2"
     inkscape:window-width="1920"
     inkscape:window-height="1027"
     id="namedview12"
     showgrid="false"
     inkscape:zoom="1.173501"
     inkscape:cx="232.33769"
     inkscape:cy="338.80857"
     inkscape:window-x="-8"
     inkscape:window-y="-8"
     inkscape:window-maximized="1"
     inkscape:current-layer="svg10"
     inkscape:document-rotation="0" />
  <path
     d="m 313.61686,237.23195 c -1.91758,-2.07906 -7.82883,-6.89023 -9.93402,-8.8363 -13.59582,-12.65604 -31.15684,-14.42105 -46.59781,-17.28554 -24.65428,-4.58141 -45.47339,-1.40227 -67.30235,9.73038 -17.12822,8.73955 -31.09866,23.35413 -44.76691,35.73232 -7.10752,6.41885 -12.60082,10.38343 -22.14539,13.93719 -8.52108,3.16728 -20.34358,4.89607 -26.600947,11.12138 -13.278807,13.19984 -6.329203,32.27473 15.109707,41.09857 21.4395,8.82444 46.78601,13.21231 69.66637,14.5665 30.4937,1.81309 60.55461,3.55375 90.94737,1.46223 20.61726,-1.41415 41.06177,-2.91318 61.52052,-5.25822 10.09194,-1.20872 25.70687,-5.35498 34.77531,-9.92392 27.3935,-13.74425 10.3953,-41.20782 -4.48405,-52.95789 -16.50783,-12.98197 -29.32534,-10.79427 -50.1878,-33.3867 z"
     fill="#ffffff"
     id="path2"
     style="stroke-width:0.593678" />
  <path
     d="m 206.69177,406.57542 c -1.66624,-1.81108 -6.80408,-6.00242 -8.63296,-7.69787 -11.81615,-11.02529 -27.07786,-12.56256 -40.49735,-15.05844 -21.42612,-3.99123 -39.51974,-1.22156 -58.489998,8.47732 -14.885647,7.61339 -27.027299,20.34493 -38.905768,31.12817 -6.177294,5.5914 -10.95127,9.04586 -19.246082,12.14203 -7.405281,2.75886 -17.679889,4.26438 -23.117912,9.68809 -11.5401457,11.49918 -5.500661,28.11649 13.131449,35.80357 18.632183,7.6877 40.659929,11.50995 60.545255,12.68961 26.501066,1.57922 52.626066,3.09554 79.039466,1.2743 17.91765,-1.23238 35.68539,-2.53844 53.46521,-4.58138 8.77081,-1.05259 22.34087,-4.66459 30.22232,-8.64502 23.807,-11.9737 9.03443,-35.89885 -3.89659,-46.13451 -14.34695,-11.30987 -25.48594,-9.40414 -43.61704,-29.08587 z"
     fill="#ffffff"
     id="path4"
     style="stroke-width:0.635243" />
  <path
     d="m 137.2646,133.53 c 0,-2.04 0.46,-3.87 1.38,-5.49 0.92,-1.64 2.17,-2.92 3.75,-3.84 1.6,-0.92 3.37,-1.38 5.31,-1.38 2.28,0 4.27,0.55 5.97,1.65 1.7,1.1 2.94,2.66 3.72,4.68 h -3.27 c -0.58,-1.26 -1.42,-2.23 -2.52,-2.91 -1.08,-0.68 -2.38,-1.02 -3.9,-1.02 -1.46,0 -2.77,0.34 -3.93,1.02 -1.16,0.68 -2.07,1.65 -2.73,2.91 -0.66,1.24 -0.99,2.7 -0.99,4.38 0,1.66 0.33,3.12 0.99,4.38 0.66,1.24 1.57,2.2 2.73,2.88 1.16,0.68 2.47,1.02 3.93,1.02 1.52,0 2.82,-0.33 3.9,-0.99 1.1,-0.68 1.94,-1.65 2.52,-2.91 h 3.27 c -0.78,2 -2.02,3.55 -3.72,4.65 -1.7,1.08 -3.69,1.62 -5.97,1.62 -1.94,0 -3.71,-0.45 -5.31,-1.35 -1.58,-0.92 -2.83,-2.19 -3.75,-3.81 -0.92,-1.62 -1.38,-3.45 -1.38,-5.49 z m 26.924,8.25 h 7.32 V 144 h -10.05 v -20.91 h 2.73 z m 19.699,2.43 c -1.94,0 -3.71,-0.45 -5.31,-1.35 -1.6,-0.92 -2.87,-2.19 -3.81,-3.81 -0.92,-1.64 -1.38,-3.48 -1.38,-5.52 0,-2.04 0.46,-3.87 1.38,-5.49 0.94,-1.64 2.21,-2.91 3.81,-3.81 1.6,-0.92 3.37,-1.38 5.31,-1.38 1.96,0 3.74,0.46 5.34,1.38 1.6,0.9 2.86,2.16 3.78,3.78 0.92,1.62 1.38,3.46 1.38,5.52 0,2.06 -0.46,3.9 -1.38,5.52 -0.92,1.62 -2.18,2.89 -3.78,3.81 -1.6,0.9 -3.38,1.35 -5.34,1.35 z m 0,-2.37 c 1.46,0 2.77,-0.34 3.93,-1.02 1.18,-0.68 2.1,-1.65 2.76,-2.91 0.68,-1.26 1.02,-2.72 1.02,-4.38 0,-1.68 -0.34,-3.14 -1.02,-4.38 -0.66,-1.26 -1.57,-2.23 -2.73,-2.91 -1.16,-0.68 -2.48,-1.02 -3.96,-1.02 -1.48,0 -2.8,0.34 -3.96,1.02 -1.16,0.68 -2.08,1.65 -2.76,2.91 -0.66,1.24 -0.99,2.7 -0.99,4.38 0,1.66 0.33,3.12 0.99,4.38 0.68,1.26 1.6,2.23 2.76,2.91 1.18,0.68 2.5,1.02 3.96,1.02 z m 16.774,-18.75 v 13.23 c 0,1.86 0.45,3.24 1.35,4.14 0.92,0.9 2.19,1.35 3.81,1.35 1.6,0 2.85,-0.45 3.75,-1.35 0.92,-0.9 1.38,-2.28 1.38,-4.14 v -13.23 h 2.73 v 13.2 c 0,1.74 -0.35,3.21 -1.05,4.41 -0.7,1.18 -1.65,2.06 -2.85,2.64 -1.18,0.58 -2.51,0.87 -3.99,0.87 -1.48,0 -2.82,-0.29 -4.02,-0.87 -1.18,-0.58 -2.12,-1.46 -2.82,-2.64 -0.68,-1.2 -1.02,-2.67 -1.02,-4.41 v -13.2 z m 24.084,0 c 2.28,0 4.25,0.43 5.91,1.29 1.68,0.84 2.96,2.05 3.84,3.63 0.9,1.58 1.35,3.44 1.35,5.58 0,2.14 -0.45,4 -1.35,5.58 -0.88,1.56 -2.16,2.76 -3.84,3.6 -1.66,0.82 -3.63,1.23 -5.91,1.23 h -6.51 v -20.91 z m 0,18.66 c 2.7,0 4.76,-0.71 6.18,-2.13 1.42,-1.44 2.13,-3.45 2.13,-6.03 0,-2.6 -0.72,-4.63 -2.16,-6.09 -1.42,-1.46 -3.47,-2.19 -6.15,-2.19 h -3.78 v 16.44 z m 29.341,-18.66 -6.81,13.02 V 144 h -2.73 v -7.89 l -6.84,-13.02 h 3.03 l 5.16,10.59 5.16,-10.59 z"
     fill="#ffffff"
     id="path6" />
  <path
     d="M 3.8146034,31.08 H 31.254603 c 5.28,0 9.413,1.3067 12.4,3.92 2.986,2.6133 4.48,6.4 4.48,11.36 0,2.5067 -0.587,4.8 -1.76,6.88 -1.174,2.0267 -2.774,3.6 -4.8,4.72 2.773,1.0133 4.853,2.56 6.24,4.64 1.386,2.0267 2.08,4.6933 2.08,8 0,3.36 -0.774,6.2933 -2.32,8.8 -1.494,2.4533 -3.574,4.3467 -6.24,5.68 -2.614,1.28 -5.52,1.92 -8.72,1.92 H 3.8146034 Z M 28.934603,53.8 c 2.133,0 3.813,-0.5333 5.04,-1.6 1.226,-1.0667 1.84,-2.7733 1.84,-5.12 0,-2.56 -0.614,-4.32 -1.84,-5.28 -1.174,-0.96 -2.987,-1.44 -5.44,-1.44 h -12.56 V 53.8 Z m 0.72,23.92 c 2.613,0 4.586,-0.5067 5.92,-1.52 1.386,-1.0667 2.08,-2.9067 2.08,-5.52 0,-2.6667 -0.72,-4.5867 -2.16,-5.76 -1.387,-1.1733 -3.467,-1.76 -6.24,-1.76 h -13.28 v 14.56 z m 42.616,-46.64 h 11.92 L 106.5106,87 H 94.110603 l -4.8,-12.16 h -22.16 l -4.8,12.16 h -12.48 z m 13.84,34.08 -7.92,-21.28 -7.92,21.28 z M 113.2676,31.08 h 11.84 l 23.36,36.16 V 31.08 h 12.16 V 87 h -11.76 l -23.44,-36.16 V 87 h -12.16 z m 84.343,57.12 c -5.973,0 -11.253,-1.1733 -15.84,-3.52 -4.587,-2.4 -8.133,-5.7867 -10.64,-10.16 -2.507,-4.3733 -3.76,-9.52 -3.76,-15.44 0,-5.92 1.253,-11.0667 3.76,-15.44 2.507,-4.4267 6.053,-7.8133 10.64,-10.16 4.587,-2.4 9.867,-3.6 15.84,-3.6 4.053,0 7.627,0.4267 10.72,1.28 3.147,0.8 6.027,2.08 8.64,3.84 v 11.6 c -2.347,-1.92 -5.04,-3.3067 -8.08,-4.16 -2.987,-0.9067 -6.4,-1.36 -10.24,-1.36 -3.573,0 -6.8,0.7467 -9.68,2.24 -2.827,1.44 -5.067,3.52 -6.72,6.24 -1.653,2.72 -2.48,5.8933 -2.48,9.52 0,3.68 0.747,6.9067 2.24,9.68 1.547,2.72 3.707,4.8267 6.48,6.32 2.773,1.4933 5.973,2.24 9.6,2.24 3.307,0 6.187,-0.5867 8.64,-1.76 v -10.8 h -9.04 V 55.8 h 20.8 v 26.96 c -5.28,3.6267 -12.24,5.44 -20.88,5.44 z m 27.688,-57.12 h 12.16 V 55.4 l 21.12,-24.32 h 14.48 l -23.68,27.28 25.28,28.64 h -14.48 l -22.72,-25.68 V 87 h -12.16 z m 77.617,57.12 c -5.6,0 -10.693,-1.2267 -15.28,-3.68 -4.533,-2.4533 -8.107,-5.8667 -10.72,-10.24 -2.613,-4.4267 -3.92,-9.4933 -3.92,-15.2 0,-5.7067 1.307,-10.7733 3.92,-15.2 2.613,-4.4267 6.187,-7.8667 10.72,-10.32 4.587,-2.4533 9.68,-3.68 15.28,-3.68 5.6,0 10.64,1.2267 15.12,3.68 4.533,2.4533 8.107,5.8933 10.72,10.32 2.613,4.4267 3.92,9.4933 3.92,15.2 0,5.7067 -1.307,10.7733 -3.92,15.2 -2.613,4.3733 -6.187,7.7867 -10.72,10.24 -4.48,2.4533 -9.52,3.68 -15.12,3.68 z m 0,-11.2 c 3.2,0 6.107,-0.72 8.72,-2.16 2.667,-1.4933 4.773,-3.5733 6.32,-6.24 1.547,-2.72 2.32,-5.8933 2.32,-9.52 0,-3.5733 -0.773,-6.6933 -2.32,-9.36 -1.493,-2.72 -3.573,-4.8 -6.24,-6.24 -2.613,-1.4933 -5.547,-2.24 -8.8,-2.24 -3.307,0 -6.293,0.7467 -8.96,2.24 -2.613,1.44 -4.693,3.52 -6.24,6.24 -1.547,2.6667 -2.32,5.7867 -2.32,9.36 0,3.6267 0.773,6.8 2.32,9.52 1.547,2.6667 3.653,4.7467 6.32,6.24 2.667,1.44 5.627,2.16 8.88,2.16 z m 36.446,-45.92 h 12.16 V 55.4 l 21.12,-24.32 h 14.48 l -23.68,27.28 25.28,28.64 h -14.48 l -22.72,-25.68 V 87 h -12.16 z"
     fill="#ffffff"
     id="path8" />
</svg>
