<svg width="392" height="632" viewBox="0 0 392 632" fill="none" xmlns="http://www.w3.org/2000/svg">
<g clip-path="url(#clip0_423_348)">
<path d="M335.001 247.431C335.001 276.336 314.129 295.97 283.548 296.188C256.745 296.334 231.563 272.089 231.539 246.169C231.539 219.133 255.752 194.913 282.217 195.374C312.265 195.908 335.001 218.405 335.001 247.431Z" fill="#FFE500"/>
<path d="M187.858 443.935C181.539 443.935 177.64 441.071 176.357 436.387C175.702 434.027 175.775 431.524 176.566 429.207C177.357 426.889 178.829 424.866 180.788 423.403C183.209 421.753 185.389 420.078 187.786 418.549C193.573 415.127 200.231 417.918 202.725 424.714C205.219 431.509 202.12 439.809 196.284 441.872C193.53 442.767 190.714 443.456 187.858 443.935Z" fill="#282828"/>
<path d="M291.278 493.06C284.958 493.06 281.06 490.171 279.777 485.512C279.116 483.148 279.186 480.64 279.977 478.318C280.769 475.995 282.244 473.968 284.208 472.504C286.629 470.853 288.808 469.203 291.205 467.771C296.992 464.349 303.675 467.164 306.169 473.959C308.663 480.755 305.539 489.055 299.704 491.118C296.941 491.951 294.126 492.599 291.278 493.06Z" fill="#282828"/>
<path d="M127.719 402.289C135.225 402.289 138.736 407.143 136.242 412.506C133.748 417.87 130.818 422.214 124.135 422.408C122.061 422.441 120.034 421.789 118.367 420.552C116.699 419.315 115.485 417.562 114.91 415.564C114.227 413.59 114.286 411.434 115.075 409.499C115.864 407.565 117.329 405.985 119.196 405.056C121.972 403.944 124.82 403.02 127.719 402.289Z" fill="#282828"/>
<path d="M194.856 505.775C194.888 507.266 194.607 508.747 194.033 510.122C193.459 511.498 192.604 512.738 191.523 513.762C190.442 514.786 189.158 515.572 187.756 516.069C186.353 516.567 184.862 516.763 183.379 516.648C180.402 516.581 177.559 515.396 175.412 513.329C173.264 511.262 171.968 508.463 171.781 505.484C171.861 502.503 173.078 499.667 175.181 497.558C177.285 495.45 180.115 494.23 183.089 494.15C184.627 494.124 186.155 494.406 187.583 494.979C189.011 495.552 190.311 496.405 191.407 497.487C192.502 498.569 193.372 499.86 193.964 501.283C194.556 502.706 194.86 504.233 194.856 505.775Z" fill="#282828"/>
<path d="M221.903 554.627C221.934 556.118 221.654 557.598 221.08 558.974C220.506 560.35 219.651 561.589 218.57 562.613C217.489 563.637 216.205 564.423 214.803 564.92C213.4 565.417 211.909 565.615 210.426 565.499C207.451 565.427 204.611 564.24 202.464 562.174C200.318 560.108 199.021 557.312 198.828 554.335C198.902 551.353 200.117 548.512 202.222 546.403C204.326 544.293 207.16 543.075 210.136 543.002C211.674 542.976 213.202 543.258 214.63 543.831C216.058 544.403 217.358 545.256 218.454 546.338C219.549 547.42 220.419 548.711 221.011 550.134C221.603 551.557 221.906 553.085 221.903 554.627Z" fill="#282828"/>
<path d="M173.427 616.83C173.458 618.321 173.178 619.802 172.604 621.177C172.029 622.553 171.174 623.793 170.093 624.817C169.012 625.841 167.729 626.627 166.326 627.124C164.924 627.621 163.433 627.818 161.95 627.702C158.973 627.635 156.129 626.451 153.982 624.384C151.834 622.317 150.539 619.517 150.352 616.538C150.431 613.558 151.648 610.721 153.751 608.613C155.855 606.504 158.685 605.284 161.659 605.205C163.197 605.179 164.725 605.461 166.153 606.034C167.581 606.607 168.881 607.459 169.977 608.542C171.073 609.624 171.942 610.914 172.534 612.337C173.127 613.761 173.43 615.288 173.427 616.83Z" fill="#282828"/>
<path d="M277.591 544.267C277.591 550.723 272.918 555.116 266.09 555.14C263.115 555.067 260.275 553.881 258.129 551.815C255.982 549.749 254.685 546.952 254.492 543.976C254.572 540.995 255.789 538.158 257.892 536.05C259.996 533.941 262.826 532.722 265.8 532.642C267.339 532.616 268.868 532.898 270.298 533.471C271.727 534.043 273.029 534.895 274.126 535.978C275.224 537.06 276.095 538.35 276.69 539.773C277.285 541.196 277.591 542.724 277.591 544.267Z" fill="#282828"/>
<path d="M58.8047 526.741C58.8047 519.46 60.5965 516.912 66.6013 515.626C68.0226 515.222 69.5172 515.149 70.9708 515.413C72.4245 515.678 73.7986 516.272 74.9881 517.15C76.1775 518.028 77.1507 519.168 77.8332 520.481C78.5157 521.795 78.8893 523.247 78.9256 524.727C79.0586 527.069 78.9613 529.418 78.6351 531.741C77.9329 537.104 74.3494 540.016 68.5626 540.138C66.2584 540.097 64.0442 539.234 62.3178 537.704C60.5914 536.174 59.466 534.077 59.1437 531.789C58.9448 530.114 58.8316 528.428 58.8047 526.741Z" fill="#282828"/>
<path d="M58.8047 618.624C58.8047 611.343 60.5965 608.771 66.6013 607.509C68.0226 607.105 69.5172 607.032 70.9708 607.296C72.4245 607.561 73.7986 608.154 74.9881 609.033C76.1775 609.911 77.1507 611.05 77.8332 612.364C78.5157 613.677 78.8893 615.129 78.9256 616.61C79.0585 618.943 78.9612 621.285 78.6351 623.599C77.9329 628.987 74.3494 631.899 68.5626 631.997C66.262 631.957 64.0506 631.097 62.3248 629.571C60.5989 628.046 59.4712 625.955 59.1437 623.672C58.9456 621.996 58.8324 620.311 58.8047 618.624Z" fill="#282828"/>
<path d="M83.4078 368.001C85.8962 368.034 88.2794 369.012 90.0769 370.737C91.8743 372.462 92.9522 374.806 93.093 377.297C93.0197 378.49 92.7095 379.657 92.1804 380.728C91.6514 381.8 90.9141 382.754 90.012 383.537C89.1099 384.319 88.0611 384.912 86.927 385.283C85.7929 385.653 84.5965 385.793 83.4078 385.694C80.9609 385.624 78.6407 384.587 76.9534 382.81C75.266 381.032 74.3484 378.658 74.4005 376.205C74.4372 375.068 74.7014 373.949 75.1774 372.916C75.6535 371.883 76.3317 370.957 77.1718 370.192C78.0119 369.427 78.9968 368.839 80.0681 368.462C81.1393 368.086 82.275 367.929 83.4078 368.001Z" fill="#282828"/>
<path d="M35.1779 466.365C29.3183 466.365 25.7348 463.598 25.4927 458.842C25.2506 454.085 30.3354 449.304 35.7349 449.328C38.0426 449.392 40.2322 450.366 41.828 452.038C43.4238 453.71 44.2968 455.945 44.2577 458.259C44.2819 462.87 40.5047 466.195 35.1779 466.365Z" fill="#282828"/>
<path d="M231.396 469.492C233.687 469.669 235.828 470.703 237.394 472.389C238.959 474.075 239.835 476.29 239.846 478.593C239.879 480.617 239.114 482.573 237.718 484.035C236.322 485.498 234.407 486.351 232.388 486.408C230.102 486.369 227.908 485.499 226.215 483.958C224.522 482.418 223.446 480.312 223.188 478.035C223.18 475.821 224.032 473.691 225.565 472.096C227.097 470.502 229.188 469.568 231.396 469.492Z" fill="#282828"/>
<path d="M131.325 555.406C133.615 555.582 135.755 556.612 137.324 558.292C138.893 559.973 139.776 562.182 139.8 564.483C139.82 566.51 139.049 568.465 137.651 569.929C136.253 571.394 134.339 572.252 132.318 572.322C130.032 572.284 127.838 571.413 126.145 569.872C124.452 568.332 123.376 566.226 123.117 563.949C123.11 561.735 123.962 559.606 125.494 558.011C127.027 556.416 129.118 555.482 131.325 555.406Z" fill="#282828"/>
<path d="M245.195 434.937C245.332 432.832 246.27 430.859 247.815 429.428C249.361 427.996 251.396 427.214 253.5 427.243C255.699 427.393 257.753 428.398 259.223 430.044C260.693 431.69 261.463 433.846 261.37 436.053C261.352 437.05 261.133 438.032 260.728 438.942C260.323 439.852 259.74 440.672 259.012 441.351C258.285 442.031 257.428 442.557 256.494 442.897C255.559 443.238 254.566 443.386 253.573 443.334C251.393 443.207 249.335 442.281 247.79 440.733C246.246 439.185 245.322 437.122 245.195 434.937Z" fill="#282828"/>
<path d="M113.383 479.445C113.487 477.956 114.154 476.562 115.247 475.548C116.34 474.534 117.777 473.975 119.267 473.985C120.825 474.097 122.279 474.814 123.319 475.983C124.358 477.152 124.903 478.681 124.836 480.246C124.83 480.956 124.681 481.657 124.397 482.307C124.114 482.957 123.701 483.543 123.185 484.028C122.669 484.514 122.06 484.889 121.394 485.132C120.729 485.375 120.022 485.48 119.315 485.44C117.764 485.347 116.302 484.684 115.207 483.578C114.113 482.472 113.463 481.001 113.383 479.445Z" fill="#282828"/>
<path d="M261.906 246.472C260.114 244.045 254.642 238.148 252.584 235.794C239.848 220.504 222.778 217.81 207.814 213.951C183.916 207.714 163.432 210.675 141.64 222.882C124.522 232.59 110.163 249.045 96.362 263C90.228 269.793 82.6249 275.089 74.1346 278.483C65.66 281.881 54.0379 283.483 47.6699 290.618C34.1106 305.568 40.0912 328.09 60.6479 339.157C81.2047 350.223 105.781 356.291 128.081 358.694C157.79 361.897 187.088 365.028 216.894 363.693C237.087 362.771 257.136 361.776 277.208 359.761C289.177 358.303 300.812 354.815 311.615 349.447C338.903 334.351 323.528 301.661 309.508 287.415C293.939 271.518 281.324 273.605 261.906 246.472Z" fill="#282828"/>
<path d="M277.594 402.023C277.698 400.534 278.365 399.141 279.458 398.126C280.551 397.112 281.988 396.553 283.477 396.563C285.034 396.681 286.484 397.399 287.522 398.567C288.561 399.735 289.107 401.261 289.047 402.824C289.038 403.533 288.886 404.232 288.601 404.88C288.316 405.529 287.904 406.113 287.389 406.598C286.873 407.083 286.265 407.459 285.602 407.702C284.938 407.946 284.232 408.054 283.526 408.018C281.973 407.93 280.508 407.268 279.412 406.161C278.317 405.054 277.669 403.58 277.594 402.023Z" fill="#282828"/>
<path d="M68.9062 426.945C68.9996 425.454 69.6635 424.056 70.7596 423.043C71.8557 422.031 73.2996 421.481 74.7901 421.509C76.3466 421.615 77.8 422.327 78.8404 423.492C79.8808 424.657 80.4258 426.184 80.3591 427.746C80.3503 428.457 80.1981 429.158 79.9117 429.808C79.6253 430.458 79.2107 431.044 78.6926 431.529C78.1746 432.014 77.5639 432.39 76.8974 432.632C76.2308 432.874 75.5222 432.979 74.8142 432.94C73.2637 432.851 71.8012 432.189 70.7098 431.081C69.6184 429.974 68.9757 428.5 68.9062 426.945Z" fill="#282828"/>
<path d="M210.182 382.656C212.279 382.731 214.276 383.572 215.797 385.02C217.317 386.469 218.257 388.425 218.439 390.519C218.482 391.567 218.312 392.611 217.94 393.59C217.568 394.57 217.001 395.463 216.274 396.217C215.548 396.97 214.676 397.568 213.712 397.973C212.748 398.379 211.712 398.585 210.667 398.577C208.481 398.477 206.411 397.563 204.862 396.015C203.313 394.467 202.395 392.395 202.289 390.204C202.493 388.211 203.401 386.355 204.847 384.971C206.294 383.588 208.186 382.767 210.182 382.656Z" fill="#282828"/>
<path d="M320.814 396.757C321.911 396.746 322.998 396.965 324.006 397.4C325.013 397.835 325.919 398.477 326.664 399.284C327.41 400.09 327.979 401.044 328.335 402.085C328.691 403.125 328.826 404.228 328.731 405.324C328.606 407.345 327.699 409.238 326.201 410.598C324.704 411.958 322.736 412.678 320.717 412.605C319.671 412.622 318.632 412.425 317.664 412.026C316.696 411.628 315.82 411.036 315.088 410.286C314.356 409.537 313.784 408.646 313.407 407.667C313.03 406.689 312.857 405.644 312.896 404.596C312.865 403.55 313.05 402.508 313.438 401.536C313.826 400.565 314.41 399.684 315.153 398.949C315.896 398.214 316.782 397.639 317.756 397.262C318.73 396.885 319.771 396.713 320.814 396.757Z" fill="#282828"/>
<path d="M139.12 354.72C141.226 354.685 143.265 355.464 144.811 356.897C146.358 358.33 147.295 360.306 147.425 362.413C147.319 364.523 146.382 366.505 144.821 367.924C143.26 369.343 141.201 370.084 139.096 369.985C137.112 369.854 135.244 369.003 133.84 367.592C132.437 366.18 131.594 364.305 131.469 362.316C131.519 360.304 132.343 358.39 133.769 356.974C135.195 355.558 137.113 354.751 139.12 354.72Z" fill="#282828"/>
<path d="M26.6755 397.095C28.7815 397.06 30.8202 397.839 32.3671 399.272C33.9139 400.705 34.85 402.681 34.9806 404.788C34.874 406.898 33.9375 408.88 32.3764 410.299C30.8152 411.718 28.7567 412.459 26.6514 412.36C24.6669 412.224 22.7986 411.373 21.392 409.963C19.9855 408.553 19.1358 406.681 19 404.692C19.0559 402.678 19.8855 400.764 21.3156 399.348C22.7457 397.933 24.6659 397.125 26.6755 397.095Z" fill="#282828"/>
<path d="M331.179 174.086L313.625 195.37" stroke="#FFF200" stroke-width="3.27" stroke-miterlimit="10"/>
<path d="M345.586 308.517L324.352 290.922" stroke="#FFF200" stroke-width="3.27" stroke-miterlimit="10"/>
<path d="M371.151 236.898L344.25 242.82" stroke="#FFF200" stroke-width="3.27" stroke-miterlimit="10"/>
<path d="M246.234 163.234L254.854 189.47" stroke="#FFF200" stroke-width="3.27" stroke-miterlimit="10"/>
</g>
<path d="M166.82 122.09C169.1 122.09 171.07 122.52 172.73 123.38C174.41 124.22 175.69 125.43 176.57 127.01C177.47 128.59 177.92 130.45 177.92 132.59C177.92 134.73 177.47 136.59 176.57 138.17C175.69 139.73 174.41 140.93 172.73 141.77C171.07 142.59 169.1 143 166.82 143H160.31V122.09H166.82ZM166.82 140.75C169.52 140.75 171.58 140.04 173 138.62C174.42 137.18 175.13 135.17 175.13 132.59C175.13 129.99 174.41 127.96 172.97 126.5C171.55 125.04 169.5 124.31 166.82 124.31H163.04V140.75H166.82ZM184.191 122.09V135.32C184.191 137.18 184.641 138.56 185.541 139.46C186.461 140.36 187.731 140.81 189.351 140.81C190.951 140.81 192.201 140.36 193.101 139.46C194.021 138.56 194.481 137.18 194.481 135.32V122.09H197.211V135.29C197.211 137.03 196.861 138.5 196.161 139.7C195.461 140.88 194.511 141.76 193.311 142.34C192.131 142.92 190.801 143.21 189.321 143.21C187.841 143.21 186.501 142.92 185.301 142.34C184.121 141.76 183.181 140.88 182.481 139.7C181.801 138.5 181.461 137.03 181.461 135.29V122.09H184.191ZM208.395 143.21C207.015 143.21 205.775 142.97 204.675 142.49C203.595 141.99 202.745 141.31 202.125 140.45C201.505 139.57 201.185 138.56 201.165 137.42H204.075C204.175 138.4 204.575 139.23 205.275 139.91C205.995 140.57 207.035 140.9 208.395 140.9C209.695 140.9 210.715 140.58 211.455 139.94C212.215 139.28 212.595 138.44 212.595 137.42C212.595 136.62 212.375 135.97 211.935 135.47C211.495 134.97 210.945 134.59 210.285 134.33C209.625 134.07 208.735 133.79 207.615 133.49C206.235 133.13 205.125 132.77 204.285 132.41C203.465 132.05 202.755 131.49 202.155 130.73C201.575 129.95 201.285 128.91 201.285 127.61C201.285 126.47 201.575 125.46 202.155 124.58C202.735 123.7 203.545 123.02 204.585 122.54C205.645 122.06 206.855 121.82 208.215 121.82C210.175 121.82 211.775 122.31 213.015 123.29C214.275 124.27 214.985 125.57 215.145 127.19H212.145C212.045 126.39 211.625 125.69 210.885 125.09C210.145 124.47 209.165 124.16 207.945 124.16C206.805 124.16 205.875 124.46 205.155 125.06C204.435 125.64 204.075 126.46 204.075 127.52C204.075 128.28 204.285 128.9 204.705 129.38C205.145 129.86 205.675 130.23 206.295 130.49C206.935 130.73 207.825 131.01 208.965 131.33C210.345 131.71 211.455 132.09 212.295 132.47C213.135 132.83 213.855 133.4 214.455 134.18C215.055 134.94 215.355 135.98 215.355 137.3C215.355 138.32 215.085 139.28 214.545 140.18C214.005 141.08 213.205 141.81 212.145 142.37C211.085 142.93 209.835 143.21 208.395 143.21ZM232.243 122.09V124.31H226.543V143H223.813V124.31H218.083V122.09H232.243Z" fill="black"/>
<path d="M4.33969 31.08H31.7797C37.0597 31.08 41.193 32.3867 44.1797 35C47.1664 37.6133 48.6597 41.4 48.6597 46.36C48.6597 48.8667 48.073 51.16 46.8997 53.24C45.7264 55.2667 44.1264 56.84 42.0997 57.96C44.873 58.9733 46.953 60.52 48.3397 62.6C49.7264 64.6267 50.4197 67.2933 50.4197 70.6C50.4197 73.96 49.6464 76.8933 48.0997 79.4C46.6064 81.8533 44.5264 83.7467 41.8597 85.08C39.2464 86.36 36.3397 87 33.1397 87H4.33969V31.08ZM29.4597 53.8C31.593 53.8 33.273 53.2667 34.4997 52.2C35.7264 51.1333 36.3397 49.4267 36.3397 47.08C36.3397 44.52 35.7264 42.76 34.4997 41.8C33.3264 40.84 31.513 40.36 29.0597 40.36H16.4997V53.8H29.4597ZM30.1797 77.72C32.793 77.72 34.7664 77.2133 36.0997 76.2C37.4864 75.1333 38.1797 73.2933 38.1797 70.68C38.1797 68.0133 37.4597 66.0933 36.0197 64.92C34.633 63.7467 32.553 63.16 29.7797 63.16H16.4997V77.72H30.1797ZM72.7959 31.08H84.7159L107.036 87H94.6359L89.8359 74.84H67.6759L62.8759 87H50.3959L72.7959 31.08ZM86.6359 65.16L78.7159 43.88L70.7959 65.16H86.6359ZM113.793 31.08H125.633L148.993 67.24V31.08H161.153V87H149.393L125.953 50.84V87H113.793V31.08ZM198.136 88.2C192.163 88.2 186.883 87.0267 182.296 84.68C177.709 82.28 174.163 78.8933 171.656 74.52C169.149 70.1467 167.896 65 167.896 59.08C167.896 53.16 169.149 48.0133 171.656 43.64C174.163 39.2133 177.709 35.8267 182.296 33.48C186.883 31.08 192.163 29.88 198.136 29.88C202.189 29.88 205.763 30.3067 208.856 31.16C212.003 31.96 214.883 33.24 217.496 35V46.6C215.149 44.68 212.456 43.2933 209.416 42.44C206.429 41.5333 203.016 41.08 199.176 41.08C195.603 41.08 192.376 41.8267 189.496 43.32C186.669 44.76 184.429 46.84 182.776 49.56C181.123 52.28 180.296 55.4533 180.296 59.08C180.296 62.76 181.043 65.9867 182.536 68.76C184.083 71.48 186.243 73.5867 189.016 75.08C191.789 76.5733 194.989 77.32 198.616 77.32C201.923 77.32 204.803 76.7333 207.256 75.56V64.76H198.216V55.8H219.016V82.76C213.736 86.3867 206.776 88.2 198.136 88.2ZM225.824 31.08H237.984V55.4L259.104 31.08H273.584L249.904 58.36L275.184 87H260.704L237.984 61.32V87H225.824V31.08ZM303.441 88.2C297.841 88.2 292.748 86.9733 288.161 84.52C283.628 82.0667 280.054 78.6533 277.441 74.28C274.828 69.8533 273.521 64.7867 273.521 59.08C273.521 53.3733 274.828 48.3067 277.441 43.88C280.054 39.4533 283.628 36.0133 288.161 33.56C292.748 31.1067 297.841 29.88 303.441 29.88C309.041 29.88 314.081 31.1067 318.561 33.56C323.094 36.0133 326.668 39.4533 329.281 43.88C331.894 48.3067 333.201 53.3733 333.201 59.08C333.201 64.7867 331.894 69.8533 329.281 74.28C326.668 78.6533 323.094 82.0667 318.561 84.52C314.081 86.9733 309.041 88.2 303.441 88.2ZM303.441 77C306.641 77 309.548 76.28 312.161 74.84C314.828 73.3467 316.934 71.2667 318.481 68.6C320.028 65.88 320.801 62.7067 320.801 59.08C320.801 55.5067 320.028 52.3867 318.481 49.72C316.988 47 314.908 44.92 312.241 43.48C309.628 41.9867 306.694 41.24 303.441 41.24C300.134 41.24 297.148 41.9867 294.481 43.48C291.868 44.92 289.788 47 288.241 49.72C286.694 52.3867 285.921 55.5067 285.921 59.08C285.921 62.7067 286.694 65.88 288.241 68.6C289.788 71.2667 291.894 73.3467 294.561 74.84C297.228 76.28 300.188 77 303.441 77ZM339.887 31.08H352.047V55.4L373.167 31.08H387.647L363.967 58.36L389.247 87H374.767L352.047 61.32V87H339.887V31.08Z" fill="black"/>
<defs>
<clipPath id="clip0_423_348">
<rect width="353" height="470" fill="white" transform="translate(19 162)"/>
</clipPath>
</defs>
</svg>
